<svg xmlns="http://www.w3.org/2000/svg" width="319.968" height="316.98" viewBox="0 0 319.968 316.98">
  <g id="Group_17717" data-name="Group 17717" transform="translate(-801.54 -664.549)">
    <g id="Group_19" data-name="Group 19">
      <path id="Path_27734" data-name="Path 27734" d="M-4225.052,2163.729V2147.3l3.761-1.021,5.93.678v17.669l-4.138,1.627-5.883-2.208Z" transform="translate(5041.414 -1318.907)"/>
      <path id="Path_27733" data-name="Path 27733" d="M-4016.562,2123.137l91.77-2.061,2.385,2.061-.932,89.358-2.453,4.127-77.1,2.345-13.672-2.345-2.233-7.437v-80.211Z" transform="translate(4828.696 -1271.355)" fill="#fdc2b4"/>
      <path id="Path_27711" data-name="Path 27711" d="M-4015.926,2122.79l117.922-1.714,3.064,1.714-1.2,74.307-3.151,3.431-99.069,1.951-17.568-1.951-2.87-6.184v-66.7Z" transform="translate(5016.448 -1307.932)" fill="#9acac4"/>
      <g id="Integration_2" data-name="Integration 2" transform="translate(801.54 664.549)">
        <path id="Path_27713" data-name="Path 27713" d="M298.714,107.216c.45,1.35.872,2.644,1.244,3.951a21,21,0,0,1,.593,6.645c-.023.576.077.754.723.774a33.963,33.963,0,0,1,4.427.4,1.631,1.631,0,0,1,1.443,1.661c-.029,2.771-.1,5.541-.191,8.311-.112,3.376-.256,6.752-.4,10.127-.048,1.139-.127,2.277-.2,3.415-.047.757.307,1.038,1.053,1.051a32.574,32.574,0,0,1,5,.243,12.164,12.164,0,0,1,3.487,1.434c.826.442.636,1.452.844,2.228a2.062,2.062,0,0,1,.006.5q.1,11.35.2,22.7c.038,3.47.153,6.939.19,10.409.083,7.8.162,15.6.192,23.4.011,2.837-.09,5.675-.2,8.51-.084,2.212-.2,4.426-.417,6.627a7.658,7.658,0,0,1-.8,2.95c-.96,1.695-2.817,2.3-4.532,2.663a48.011,48.011,0,0,1-6.833.654c-2.84.18-5.684.281-8.527.41-1.638.074-3.276.129-4.913.2-1.305.059-2.619.063-3.908.241a1.671,1.671,0,0,0-1.008.95c-1.4,3.382-2.582,6.868-4.15,10.17-2.211,4.656-4.759,9.151-7.044,13.774a56.93,56.93,0,0,1-5.029,8.6c-1.661,2.26-3.411,4.454-5.129,6.672a123.651,123.651,0,0,1-12.391,13.137c-2.751,2.647-5.746,5.044-8.666,7.512a122.448,122.448,0,0,1-13.679,9.444,92.51,92.51,0,0,1-9.712,5.494c-4.384,2.092-8.866,4.019-13.425,5.691-4.607,1.689-9.324,3.114-14.061,4.4-3.324.9-6.763,1.383-10.152,2.042-2.437.474-4.865,1.009-7.318,1.378-2.066.311-4.159.449-6.244.615-2.107.167-4.219.379-6.329.378-2.143,0-4.286-.236-6.429-.371-1.005-.063-2.016-.083-3.014-.209q-4.453-.561-8.9-1.2c-2.1-.3-4.2-.589-6.279-1.01-2.968-.6-5.917-1.3-8.864-2a61.153,61.153,0,0,1-5.943-1.575c-2.789-.969-5.543-2.058-8.248-3.242-3.131-1.371-6.243-2.806-9.273-4.386-3.734-1.947-7.413-4.009-11.045-6.141-3.041-1.785-6.036-3.663-8.947-5.652-2.26-1.544-4.366-3.315-6.528-5-1.339-1.044-2.659-2.112-3.976-3.183a1.752,1.752,0,0,1-.3-.473c.221-.1.441-.21.664-.31.176-.079.356-.15.535-.224-.2-.126-.4-.362-.6-.36-4.6.045-9.2.133-13.807.178-3,.03-6-.007-8.993.008q-18.345.092-36.69.187c-2,.008-4.01-.092-6.012-.2a14.821,14.821,0,0,1-2.63-.4,4.765,4.765,0,0,1-3.036-2.289,1.4,1.4,0,0,0-.633-.623c-1.643-.518-1.771-1.969-1.919-3.276-.352-3.111-.6-6.235-.816-9.359-.187-2.672-.3-5.351-.406-8.028-.153-3.808-.278-7.617-.4-11.426-.079-2.4-.174-4.807-.2-7.212-.083-9.5-.285-19-.142-28.495.066-4.408.49-8.818.6-13.241a46.514,46.514,0,0,1,1.2-8.884,9.6,9.6,0,0,1,3.441-5.978c.784-.586,1.306-1.584,2.4-1.685,1.465-.135,2.94-.17,4.412-.211,1.173-.033,1.523-.467,1.209-1.583a2.466,2.466,0,0,1-.12-.648c-.007-3.764-.085-7.53.033-11.29.048-1.539.042-3.179,1.374-4.425.909-.851,2.024-.807,3.079-1.024.56-.115.723-.119.536-.813-1.1-4.052-2.144-8.118-3.107-12.2a50.525,50.525,0,0,1-1.088-6.238,38.025,38.025,0,0,1-.2-6.107,35.164,35.164,0,0,1,2.558-11.819,38.988,38.988,0,0,1,5.48-9.7,63.406,63.406,0,0,1,6.621-6.827,34.721,34.721,0,0,1,5.833-4.224c2.392-1.387,4.964-2.469,7.481-3.634a62.691,62.691,0,0,0,10.3-5.782,22.851,22.851,0,0,0,7.258-7.964,47.526,47.526,0,0,0,2-5.164c.164-.432.321-.867.481-1.3-.474-.141-.951-.275-1.423-.425a5.238,5.238,0,0,1-3.232-3.6c-1.189-3.3-.664-6.584.524-9.762A23.937,23.937,0,0,1,61.569,59c1.8-2.137,3.8-4.106,5.777-6.091a28.442,28.442,0,0,1,7.29-5.072,40.748,40.748,0,0,1,9.2-3.827c2.276-.538,4.541-1.136,6.836-1.577,1.66-.319,3.363-.407,5.041-.637a3.593,3.593,0,0,0,.924-.414,8.026,8.026,0,0,0-.495-.633,60.384,60.384,0,0,1-4.258-4.529,16.3,16.3,0,0,1-2.768-6.135,27.867,27.867,0,0,1-.573-8.343,21.562,21.562,0,0,1,1.76-7.556,20.291,20.291,0,0,1,9.52-9.685A39.761,39.761,0,0,1,111.7.6,45.141,45.141,0,0,1,122.152.1a37.279,37.279,0,0,1,10.8,2.345,30.774,30.774,0,0,1,9.393,5.328,25.943,25.943,0,0,1,5.107,5.579,21.461,21.461,0,0,1,3.408,8.572c.33,2.312.569,4.638.8,6.963.121,1.2.131,2.41.22,3.613a2.63,2.63,0,0,0,.256.69,2.929,2.929,0,0,0,.525-.517,28.535,28.535,0,0,1,1.9-3.2,16.54,16.54,0,0,1,5.858-4.836,19.436,19.436,0,0,1,7.562-2c2.47-.088,4.953-.324,7.409-.165a28.4,28.4,0,0,1,13.5,4.3,20.985,20.985,0,0,1,6.544,6.228,30.023,30.023,0,0,1,2.575,5.517,43.039,43.039,0,0,1,1.281,4.465c.147.544.227,1.1.347,1.656.16.739.489.848,1.063.424a17.006,17.006,0,0,1,8.963-3.476,22.016,22.016,0,0,1,9.928,1.491,22.963,22.963,0,0,1,4.945,3c2.8,2.056,4.186,5.089,5.276,8.274.348,1.018.809,1.122,1.683.5a10.24,10.24,0,0,1,5.648-2.064,18.038,18.038,0,0,1,10.848,3.032,10.524,10.524,0,0,1,4.958,10.927c-.362,2.687-2.227,4.584-4.355,6.156-.731.54-.792.937-.064,1.516,2.826,2.252,5.637,4.524,8.517,6.7,2.259,1.71,4.975,2.461,7.638,3.255,2.823.842,5.672,1.6,8.528,2.33a42.842,42.842,0,0,1,9.888,3.876,35.137,35.137,0,0,1,6.317,4.311,36.243,36.243,0,0,1,6.731,7.6c.963,1.477,1.685,3.112,2.566,4.726M180.551,141.94c.3.526.625,1.038.893,1.58a2.191,2.191,0,0,0,1.729,1.4,11.15,11.15,0,0,0,3.122-.019,8.365,8.365,0,0,0,3.451-1.252,63.377,63.377,0,0,0,5.513-5.05c1.148-1.133,2.178-2.371,3.8-2.865.217-.066.375-.329.56-.5a2.589,2.589,0,0,0-.683-.274c-.969-.092-1.943-.131-2.914-.214a2.337,2.337,0,0,1-1.983-1.771,5.166,5.166,0,0,1,1.6-4.534,19.077,19.077,0,0,0,1.682-1.707c.189-.224.174-.62.252-.938a2.819,2.819,0,0,0-.913-.027c-2.62.829-4.731,2.514-6.88,4.136a1.4,1.4,0,0,0-.527,1.8,10.151,10.151,0,0,1,.582,4.554,6.434,6.434,0,0,1-3.652,5.414c-2.116.788-3.1.646-4.28-1.206a6.219,6.219,0,0,1-.648-1.824c-.26-1.028-.889-1.378-1.829-.894q-1.65.851-3.259,1.782a2,2,0,0,1-3.08-1.27,27.576,27.576,0,0,1-.584-5.141,4.229,4.229,0,0,1,.852-2.312,6.734,6.734,0,0,1,1.894-1.644A17.61,17.61,0,0,0,179.91,125c.982-1.3,1.972-2.6,3.042-3.834a18.475,18.475,0,0,1,7.412-5.009,32.9,32.9,0,0,1,8.983-2.175c2.258-.206,4.539-.2,6.81-.206a7.29,7.29,0,0,1,2.228.393,16.174,16.174,0,0,1,7.608,5.682,1.543,1.543,0,0,1-.914,2.667,7.086,7.086,0,0,1-2.249-.084c-1.276-.185-2.536-.48-3.811-.673-.565-.085-.963-.008-.608.8.618,1.408,1.054,2.9,1.682,4.3a.913.913,0,0,0,1.323.531,11.2,11.2,0,0,0,3.4-1.928,7.759,7.759,0,0,1,4.437-2.314c1.271-.115,1.473-.31,1.571-1.537a2.182,2.182,0,0,1,2.4-2.253,12.628,12.628,0,0,0,3.1.131c2.366-.578,4.653-1.474,7.005-2.119s4.692-1.473,7.191-1.2a15.91,15.91,0,0,1,3.342.612c2.656.889,5.412,1.5,7.817,3.094a5.9,5.9,0,0,0,4.457,1.263c1.646-.339,3.29-.717,4.894-1.21,1.051-.323,1.185-1.221.424-2.014-.484-.5-1.025-.959-1.475-1.491-1.8-2.128-2.316-4.778-.032-6.89,1.109-1.026,2.3-1.964,3.492-2.9.943-.742.971-.953.265-1.871-1.587-2.067-3.1-4.192-4.719-6.231a25.621,25.621,0,0,0-3.514-3.921c-2.491-2.061-5.18-3.879-7.757-5.837-2.945-2.237-5.824-4.564-8.8-6.762-2.3-1.7-4.736-3.223-7.05-4.907a5.458,5.458,0,0,0-4.144-.762c-2.252.239-4.536.184-6.807.243-2.837.073-5.673.155-8.511.2-5.435.081-10.87.171-16.3.2q-25.789.125-51.578.213c-4.636.022-9.271.116-13.907.2-2.271.04-4.541.136-6.812.193-2.9.074-5.807.125-8.71.206-1.539.043-3.076.136-4.614.194-3.675.138-7.35.277-11.026.4-2.537.083-5.075.118-7.611.216a4.43,4.43,0,0,0-1.746.352,20.453,20.453,0,0,0-2.968,1.755q-3.973,2.876-7.865,5.861c-1,.765-1.937,1.624-2.862,2.483-.113.1-.018.683.05.7.9.179,1.813.318,2.727.426,1.814.215,3.628.443,5.448.595,2.812.234,5.632.375,8.443.625a28.4,28.4,0,0,1,3.448.595c.886.191,1.8.541,1.774,1.629-.027,1.013-.9,1.349-1.756,1.554-2,.48-4,1.018-6.02,1.371-1.116.195-1.572.7-1.375,1.744.365,1.922-.9,3.015-2.182,3.845a59.86,59.86,0,0,1-10.6,5.276c-1.483.588-3.059.033-2.8-1.872a4.529,4.529,0,0,1,.732-1.981c1.326-1.835,2.713-3.632,4.168-5.365.492-.586.047-.928-.215-.952a2.991,2.991,0,0,0-1.852.239c-1.874,1.327-3.679,2.756-5.457,4.212-2.522,2.064-4.991,4.193-7.5,6.277a21.034,21.034,0,0,1-5.914,3.814,2.1,2.1,0,0,0-.963.732,102.281,102.281,0,0,0-7.624,13.525c-.358.774-.087.948.6.912q1.259-.067,2.515-.2a12.891,12.891,0,0,1,5.357.827,4.629,4.629,0,0,0,4.645-.593,24.406,24.406,0,0,1,2.664-1.509,2.6,2.6,0,0,1,3.6,1.094,6.356,6.356,0,0,1,.831,2.535,47.136,47.136,0,0,1-.191,6.285c-.165,1.6-1.54,2.53-2.574,3.621a15.277,15.277,0,0,0-3.429,6.071,1.753,1.753,0,0,0,1.039,2.056c1.8.871,3.625,1.708,5.413,2.61.941.475,1.771,1.32,2.752,1.534a5.013,5.013,0,0,1,4,3.616,6.93,6.93,0,0,0,1.855,3.432c.625.517,1.208.505,1.489-.221a33.675,33.675,0,0,0,1.022-3.474,19.424,19.424,0,0,0,.144-6.74,14.179,14.179,0,0,1,.291-5.443c.668-2.168,3.033-3.978,5.576-2.35a18.982,18.982,0,0,1,3.021,2.6c2.016,2,4.206,3.035,7.14,2.1a4.1,4.1,0,0,1,3.4.618,5.607,5.607,0,0,1,2.6,4.8c.065,1.653.275,1.845,1.9,1.934a6.164,6.164,0,0,1,4.428,2.047,3.044,3.044,0,0,1,.654,1.609c.184,1.711-1.078,2.631-2.3,3.284a16.191,16.191,0,0,1-7.81,1.672,6.145,6.145,0,0,0-5.461,2.885.742.742,0,0,0-.073.654c.1.136.432.155.654.136.99-.086,1.976-.27,2.966-.292a3.084,3.084,0,0,1,2.445,2.122c.163,1.992-.33,3.526-2.669,4.876-1.11.641-2.236.34-3.345.345a3.411,3.411,0,0,0-3.045,1.161,8,8,0,0,1-1.506,1.15c-1.295,1-2.8,1.81-3.1,3.68-.15.914-.495,1.793-.71,2.7-.181.762.3,1.087.949,1.124,2.708.158,5.423.215,8.125.438a13.153,13.153,0,0,1,3.458.8c1.679.625,2.121,2.3,2.4,3.768.682,3.581,1.183,7.2,1.622,10.823.27,2.227.309,4.482.42,6.726.092,1.87.167,3.741.2,5.613.083,4.768.17,9.537.186,14.306,0,1.374.1,2.51,1.389,3.438,1.74,1.252,2.572,3.235,3.435,5.146a1.6,1.6,0,0,0,1.808,1.135,3.244,3.244,0,0,1,1.429.145,77.434,77.434,0,0,1,14.426,6.654c2.593,1.493,2.959,3.791,1.7,6.042a37.932,37.932,0,0,1-2.162,3.2,27.2,27.2,0,0,0-4.021,9.428,7.065,7.065,0,0,1-5.683,5.707,2.869,2.869,0,0,0-1.623.846c-2.472,3.355-4.817,6.8-7.3,10.152-1.4,1.894-2.846,3.785-5.124,4.8a2.669,2.669,0,0,0-1.036,1.262,19.886,19.886,0,0,1-1.388,3.109c-1.535,2.066-3.251,4-4.915,5.968-.6.707-.6,1.153.179,1.6,4.927,2.815,9.839,5.66,14.812,8.392a45.714,45.714,0,0,0,7.092,3.368c4.65,1.59,9.426,2.81,14.11,4.3a106.044,106.044,0,0,0,12.574,2.916c2.5.474,5.042.761,7.577,1.007,2.874.279,5.759.5,8.644.591,2.166.069,4.342-.076,6.511-.183,1.746-.086,3.495-.194,5.229-.4q4.308-.522,8.6-1.195c2.712-.421,5.438-.8,8.109-1.417q5.812-1.334,11.547-3c2.988-.867,5.943-1.88,8.849-3,3.5-1.345,6.947-2.849,10.4-4.319,1.728-.735,3.425-1.542,5.132-2.327a18.67,18.67,0,0,0,2.659-1.289c2.226-1.495,4.321-3.193,6.594-4.609a96.68,96.68,0,0,0,12.331-9.295c1.379-1.2,2.725-2.439,4.076-3.672,1.67-1.524,3.417-2.977,4.974-4.61,2.431-2.549,4.763-5.2,7.073-7.857a53.424,53.424,0,0,0,3.672-4.674c1.631-2.367,3.172-4.8,4.667-7.257,1.955-3.212,3.933-6.416,5.711-9.726A141.712,141.712,0,0,0,282.43,227.5c.058-.153-.138-.576-.253-.592a10.436,10.436,0,0,0-1.529-.027c-3.969.065-7.939.145-11.908.2-6.068.078-12.136.2-18.2.189-10.731-.017-21.462-.12-32.193-.185-1.2-.007-1.341.111-1.313,1.271.045,1.838.1,3.677.208,5.512a19.48,19.48,0,0,0,.4,2.731,3.028,3.028,0,0,1-1.573,3.33c-1.563.8-3.131,1.6-4.734,2.321a2.429,2.429,0,0,0-1.487,1.86c-.119.595-.1,1.217-.218,1.812-.368,1.875-.714,3.757-1.175,5.61-.6,2.4-2.065,4.409-3.18,6.573a23.05,23.05,0,0,1-1.759,2.768c-1.124,1.578-2.933,2.2-4.576,2.935a5.3,5.3,0,0,1-6.852-1.831c-3.522-5.376-7.126-10.711-9.434-16.774-.693-1.819-1.629-3.616-1.358-5.613a27.173,27.173,0,0,1,1.189-4.8,3.7,3.7,0,0,0-.346-3.745c-1.35-1.761-2.606-3.6-3.977-5.34-1.213-1.543-2.167-3.043-.917-5.041a2.54,2.54,0,0,0-.234-2.517c-.146-.308-.386-.571-.545-.874-.844-1.605-1.893-2.984-3.828-3.3a38.7,38.7,0,0,0-4.718-.65c-2.76-.106-5.53-.092-8.292,0a5.652,5.652,0,0,1-3.867-1.283c-2.582-2.119-5.083-4.338-7.582-6.556a7.132,7.132,0,0,1-2.088-4.624c-.228-1.645-.283-3.324-.634-4.941a7.428,7.428,0,0,1,1.694-6.339c1.74-2.27,3.583-4.462,5.43-6.647,2.114-2.5,4.265-4.971,6.432-7.427a3.368,3.368,0,0,1,2.6-1.191,18.576,18.576,0,0,0,3.012-.2c3.52-.6,6.814-2.281,10.484-2.185,1.369.036,2.738.027,4.107.07a4.1,4.1,0,0,1,1.208.213,2.256,2.256,0,0,1,1.256,3.427c-.124.2-.064.773.083.853q2.731,1.469,5.523,2.823c.658.318.951-.031.971-.726.044-1.472.137-2.942.19-4.414q.115-3.206.194-6.412c0-.1-.134-.309-.182-.3a.916.916,0,0,0-.423.2A6.167,6.167,0,0,1,187,168.5c-1.242.6-2.214-.216-3.206-.747-2.238-1.2-4.431-2.483-6.685-3.65a1.882,1.882,0,0,0-2.846.747,4.426,4.426,0,0,1-3.05,2.048,3.339,3.339,0,0,0-2.971,2.347,4.152,4.152,0,0,1-3.363,3.071,10.139,10.139,0,0,1-6.022-.5c-1.28-.536-2.456-1.189-2.836-2.654a9.777,9.777,0,0,1-.346-2.15,11.084,11.084,0,0,1,.142-3.279c.5-1.774,2.15-2.045,3.709-2.188,1.057-.1,2.132.025,3.195-.035.61-.034,1.413-.07,1.507-.857a15.535,15.535,0,0,0-.089-2.544c-.107-2.275-.591-3.361,1.989-4.367a15.457,15.457,0,0,0,4.808-3.139,17.668,17.668,0,0,1,4.476-3.393,2.992,2.992,0,0,0,1.389-1.664,13.158,13.158,0,0,0,.435-3.117c.057-.786.236-1.558.966-1.85.692-.276,1.287.222,1.753.766.151.177.328.332.592.6M142.18,73.191c3.768-.067,7.536-.2,11.3-.188,12.928.036,25.856.121,38.784.188q19.242.1,38.484.187c2.578.008,5.172.242,7.73-.379,2.319-.563,4.752-.734,6.8-2.171a18.95,18.95,0,0,0,2.734-1.8c2.69-2.725,1.6-6.518-.329-8.619a13.9,13.9,0,0,0-7.123-4.011c-1.949-.482-3.9-.723-5.687.423a20.619,20.619,0,0,0-3.783,2.88,2.1,2.1,0,0,1-3.463-.607c-.652-1.46-1.256-2.945-1.8-4.449a12.932,12.932,0,0,0-6.677-7.641,18.146,18.146,0,0,0-6.155-1.757,19.789,19.789,0,0,0-4.774.113c-2.791.419-4.992,2.038-7.1,3.834-2.336,1.988-3.713.9-4.434-1.171-.561-1.615-.658-3.385-1.057-5.063a24.612,24.612,0,0,0-2.592-7.116,18.767,18.767,0,0,0-9.2-7.883,28.164,28.164,0,0,0-13.854-2.334,44.846,44.846,0,0,0-4.941.628A13.613,13.613,0,0,0,158,29.982a25.5,25.5,0,0,0-4.1,6.2c-1.092,2.132-1.917,4.4-2.9,6.589a1.8,1.8,0,0,1-2.05,1.217,2.4,2.4,0,0,1-1.286-2.353c.232-2.179.509-4.359.588-6.546a46.82,46.82,0,0,0-.8-12.052,31.169,31.169,0,0,0-1.709-5.582,17.939,17.939,0,0,0-4.881-6.564,27.329,27.329,0,0,0-9.017-5.266,31.666,31.666,0,0,0-6.852-1.8c-2.126-.218-4.237-.624-6.367-.751a16.034,16.034,0,0,0-3.826.379c-2.554.475-5.121.935-7.627,1.609a25,25,0,0,0-9.514,4.747c-3.918,3.223-5.679,7.534-5.938,12.516a23.62,23.62,0,0,0,.587,6.547A16.282,16.282,0,0,0,96.4,36.367a46.337,46.337,0,0,0,3.7,3.335,2.734,2.734,0,0,1,.916,3.05,3.031,3.031,0,0,1-2.679,1.842c-2.245.329-4.523.455-6.756.844-2.334.407-4.647.966-6.941,1.566A37.893,37.893,0,0,0,74.8,51.222,35.589,35.589,0,0,0,63.485,61.375c-2.043,2.942-3.6,6.066-3.574,9.819.022,2.85,1.872,4.249,3.871,5.331a.688.688,0,0,0,.372.059c2.049-.194,4.1-.425,6.147-.587,2.14-.169,4.285-.283,6.428-.406q3.713-.213,7.428-.4,4.113-.21,8.227-.4c3.208-.143,6.417-.269,9.626-.4,1.6-.067,3.209-.136,4.813-.2q2.656-.1,5.313-.2c1.771-.067,3.542-.138,5.313-.2q3.156-.108,6.312-.2c2.3-.07,4.607-.149,6.911-.2,3.769-.079,7.538-.137,11.507-.2M39.456,277.839c4.369-.067,8.738-.2,13.107-.186,7.367.016,14.734.18,22.1.163,4.442-.01,8.886-.179,13.323-.4,2.4-.121,4.779-.486,7.164-.78,2.13-.263,3.137-1.482,3.17-3.639.035-2.3.121-4.608.194-6.912.059-1.871.134-3.742.2-5.613q.1-3.106.2-6.212c.07-2.337.152-4.674.2-7.012.08-4.136.179-8.272.189-12.408.007-2.9-.149-5.807-.18-8.711-.083-7.8-.111-15.6-.221-23.4-.039-2.744-.193-5.49-.4-8.227a67.547,67.547,0,0,0-.819-7.058c-.362-1.969-.481-2.479-2.674-2.339-1.27.081-2.543.2-3.814.188-1.838-.011-3.675-.145-5.513-.18q-6.553-.125-13.107-.2c-5.3-.073-10.6-.129-15.9-.2-4-.056-8.005-.148-12.008-.194q-10.55-.12-21.1-.2c-4.5-.029-8.993-.005-13.49-.005a4.534,4.534,0,0,0-4.482,3.176,31.085,31.085,0,0,0-1.572,9.331c-.164,5.5-.128,11-.239,16.5-.069,3.443-.328,6.884-.366,10.327-.035,3.169.094,6.34.182,9.509.116,4.175.257,8.35.4,12.525.05,1.472.132,2.943.2,4.414.134,3.042.258,6.085.4,9.127.121,2.543.259,5.086.4,7.629.127,2.31.226,4.623.419,6.927.072.861.1,1.993.629,2.493a5.58,5.58,0,0,0,3.831,1.768l29.594-.2M246.3,223.679q5.054-.1,10.107-.2c3.5-.068,7.005-.128,10.507-.2,2.67-.057,5.34-.131,8.01-.2s5.34-.128,8.01-.2q3.206-.088,6.411-.2,2.706-.091,5.412-.2c1.571-.062,3.141-.155,4.713-.194,3.336-.082,6.673-.115,10.007-.221a9.4,9.4,0,0,0,2.523-.412c.692-.22,1.355-.574,1.374-1.555.019-.946.341-1.886.359-2.832.1-5.333.205-10.668.2-16,0-6.133-.121-12.267-.185-18.4q-.1-9.949-.2-19.9c-.016-1.732,0-3.463,0-5.2v-.6c0-2.742-.022-5.485.015-8.226.01-.724-.118-1.332-.823-1.587a4.241,4.241,0,0,0-1.508-.207c-1.372.03-2.743.184-4.114.174-2.737-.021-5.473-.174-8.21-.172-2.97,0-5.939.164-8.909.171-2.37.005-4.741-.1-7.11-.19-2.976-.113-5.95-.3-8.926-.385-3.9-.108-7.8-.207-11.706-.2-7.532.02-15.064.136-22.6.181-4.962.03-9.924-.02-14.886.013-4.8.032-9.6.175-14.4.178a122.188,122.188,0,0,0-13.441.6,5.29,5.29,0,0,0-4.648,4.93c-.185,7.263-.148,14.531-.258,21.8-.042,2.777-.263,5.551-.381,8.327-.086,2.036-.2,4.075-.191,6.111q.042,7.752.2,15.5c.064,2.977.166,5.958.416,8.924a66.855,66.855,0,0,0,.992,6.678,3.206,3.206,0,0,0,2.605,2.86c2.063.323,4.155.5,6.242.613,2.5.139,5.006.158,7.509.215,3.236.074,6.472.183,9.708.193,8.992.026,17.983.009,27.175.009m6.6-80.74c4.967.067,9.935.122,14.9.205,2.038.034,4.075.164,6.112.186,3.031.033,6.062,0,9.092.018.781.006.9-.363.691-.982-.225-.672-.47-1.337-.723-2-1.129-2.963-2.16-5.968-3.425-8.872s-2.7-5.75-4.188-8.555c-1.249-2.358-2.632-4.65-4.036-6.921-1.53-2.474-3.156-4.89-4.735-7.334a1,1,0,0,0-1.636-.191c-.876.766-1.759,1.525-2.661,2.261-1.461,1.192-2.045,2.4-.742,4.04.553.695,1.269,1.257,1.879,1.91a2.9,2.9,0,0,1-.542,4.659,15.486,15.486,0,0,1-5.664,2.024,7.337,7.337,0,0,1-5.307-.831,4.326,4.326,0,0,0-1.568-.767,19.717,19.717,0,0,1-5.891-1.488c-1.981-.758-4.022-1.6-6.128-1.286a58.9,58.9,0,0,0-7.51,1.86c-2.188.633-4.313,1.455-6.667.9-.738-.175-1.356.024-1.344,1.036a2.434,2.434,0,0,1-2.52,2.53,5.14,5.14,0,0,0-3.881,1.735,8.363,8.363,0,0,1-4.563,2.723c-2.043.379-3.412.523-4.217-2.053-.211-.676-.508-1.326-.7-2.007-.43-1.532-1.256-2.96-1.112-4.645a1.494,1.494,0,0,1,1.21-1.5,7.021,7.021,0,0,1,2.235.108c1.115.172,2.215.438,3.324.645a1.178,1.178,0,0,0,.442-.105,1.5,1.5,0,0,0-.227-.4q-.826-.759-1.68-1.488a9.959,9.959,0,0,0-7.6-2.386c-1.885.165-3.77.359-5.647.6a27.545,27.545,0,0,0-10.268,3.419,12.312,12.312,0,0,0-4.038,3.519,30.11,30.11,0,0,1-3.261,4.033c-1.34,1.33-2.951,2.382-4.353,3.655a3.909,3.909,0,0,0-1.418,2.071,11.027,11.027,0,0,0,.543,3.436c.1.44.348.934,1.01.339a6.553,6.553,0,0,1,4.72-2.062,3.459,3.459,0,0,1,1.608.664c.777.518.786,1.449,1.06,2.248.2.569.562,1.356,1.012,1.485a2.2,2.2,0,0,0,1.671-.69,5.176,5.176,0,0,0,1.175-5.537c-.575-1.984-.5-3.76,1.322-5.109.334-.248.649-.521.979-.775a24.285,24.285,0,0,1,6.616-3.806c1.546-.551,3.134.082,3.35,1.416a3.326,3.326,0,0,1-.882,3.318,16.8,16.8,0,0,0-2.229,2.261c-.343.439-.693,1.311-.486,1.633.262.409,1.072.554,1.67.641.993.146,2.008.138,3.011.226a2.929,2.929,0,0,1,2.15,1.6c.186.895-.182,1.538-1.4,2.073a16.75,16.75,0,0,0-5.84,4.245c-1.185,1.327-2.427,2.6-3.676,3.871a5.364,5.364,0,0,1-1.166.79,13.407,13.407,0,0,1-7.629,1.6,4.435,4.435,0,0,1-3.224-1.855,6.648,6.648,0,0,1-.462-.738,7.034,7.034,0,0,0-.377.893,5.273,5.273,0,0,1-3.062,3.7,8.052,8.052,0,0,0-2.6,1.63,19.272,19.272,0,0,1-6.781,4.9.753.753,0,0,0-.541.966,23.236,23.236,0,0,1,.534,2.368c.122,1.306.33,2.707-.835,3.7a5.83,5.83,0,0,1-3.965,1.015c-.871.008-1.747-.2-2.614-.165a1.509,1.509,0,0,0-1.524,1.783,12.156,12.156,0,0,1,.2,1.316,2.875,2.875,0,0,0,2.205,2.872c.682.209,1.374.382,2.063.569,1.539.416,3.856-.664,4.314-2.116a4.3,4.3,0,0,1,3.287-2.858c1.232-.365,2.507-.621,3.335-1.847a3.084,3.084,0,0,1,2.339-1.542,8.577,8.577,0,0,1,5.041,1.1c1.179.694,2.342,1.417,3.535,2.086a2.426,2.426,0,0,0,.866.114c-.094-.227-.171-.464-.286-.68-.392-.738-.858-1.443-1.184-2.208a7.577,7.577,0,0,1-.742-3.6,1.945,1.945,0,0,1,2.045-2.012c1.345-.014,2.106,1.047,3.114,1.653.187.112.369.231.553.347a2.62,2.62,0,0,0,.283-.777c.031-1.2.065-2.4,0-3.6a9.055,9.055,0,0,1,1.385-5.332c1.357-2.243,3.042-4.037,5.709-4.454,2.907-.455,5.841-.791,8.776-1,2.794-.2,5.6-.194,8.408-.222q12.848-.125,25.7-.2c4.7-.027,9.392,0,14.288,0m-63.353,76.343c-.3-1.907-.681-3.806-.88-5.724-.278-2.673-.5-5.357-.6-8.042-.142-3.733-.173-7.47-.212-11.206-.032-3.1-.013-6.194,0-9.291a4.581,4.581,0,0,1,.193-1.016,2.085,2.085,0,0,0-1.038-2.484c-1.926-.895-3.889-1.71-5.809-2.616-1.849-.872-2.885-1.538-2.107-3.438.361-.882-.172-1.01-.624-1.121a6.146,6.146,0,0,0-2.2-.2,45.979,45.979,0,0,0-5.016.9,33.727,33.727,0,0,1-8.281,1.458,4.223,4.223,0,0,0-3.406,1.424q-2.926,3.37-5.793,6.791c-1.747,2.1-3.456,4.223-5.157,6.355a4.867,4.867,0,0,0-1.106,3.421c.153,1.963.539,3.907.758,5.867a5.761,5.761,0,0,0,1.82,4.048c2.072,1.771,4.071,3.631,6.193,5.338a5.513,5.513,0,0,0,3.349,1.545c4.243.064,8.5-.285,12.721.4,1.622.264,3.35.486,4.356,1.979a43.781,43.781,0,0,1,2.726,4.761,2.71,2.71,0,0,1-.184,2.831,1.916,1.916,0,0,0,.193,2.495c1.386,1.792,2.806,3.558,4.158,5.374,1.053,1.414,2.031,2.936,1.622,4.8-.281,1.284-.918,2.487-1.269,3.761-.258.936-.751,1.849-.314,2.917.955,2.336,1.665,4.784,2.77,7.042,1.334,2.724,2.943,5.317,4.49,7.932,1.065,1.8,2.213,3.551,3.354,5.3a2.158,2.158,0,0,0,2.281,1.152,8.471,8.471,0,0,0,5.249-2.923,32.005,32.005,0,0,0,3.139-5.277,25.169,25.169,0,0,0,2.517-9.546c.155-1.841.819-3.4,2.637-4.16a33.832,33.832,0,0,1,5.258-1.989c1.165-.273.854-.689.57-1.3a20.14,20.14,0,0,1-1.854-8.616c0-.872-.4-1.123-1.152-1.159-1.105-.054-2.209-.143-3.314-.194-4.479-.206-8.963-.343-13.436-.644a7.668,7.668,0,0,1-3.239-1.054c-2.16-1.269-2.834-3.491-3.358-5.9m-131.5-88.734c-.223-.023-.448-.037-.67-.072-1.711-.266-3.3-1.07-5.112-.963a8.377,8.377,0,0,1-4.139-.341c-.4-.183-.811-.026-1.057.534-.72,1.635-1.622,3.192-2.294,4.845-1.379,3.392-2.8,6.778-3.931,10.257-1.195,3.684-2.107,7.463-3.067,11.219-.549,2.15-.994,4.33-1.4,6.513-.394,2.115-.7,4.248-1.006,6.378-.232,1.611-.417,3.229-.6,4.846-.212,1.847-.431,3.695-.589,5.547-.066.771.236,1.217,1.176,1.221,4.269.019,8.537.112,12.805.179q6.3.1,12.605.2c3.7.062,7.4.157,11.107.192,3.5.033,6.994.034,10.489-.03a1.518,1.518,0,0,0,1.123-.821,16.324,16.324,0,0,0,.447-2.516,6.768,6.768,0,0,1,2.476-4.546c1.427-1.028,3.178-1.626,4.54-2.719,1.339-1.074,2.753-.88,4.218-.979a3.38,3.38,0,0,0,1.912-.618,4.179,4.179,0,0,0,.99-1.894c.053-.171-.475-.671-.813-.779a3.674,3.674,0,0,0-1.458-.045c-.818.086-1.627.255-2.444.361a1.658,1.658,0,0,1-1.8-2.28,7.938,7.938,0,0,1,2.95-4.121c2.071-1.624,4.55-1.529,6.955-1.794a12.691,12.691,0,0,0,5.128-1.6c.778-.458.739-1.078-.044-1.589a5.832,5.832,0,0,0-3.365-.8,2.032,2.032,0,0,1-2.256-1.479,17.576,17.576,0,0,1-.592-2.549c-.309-2.436-1.629-3.583-4.078-3.043a10.259,10.259,0,0,1-3.537.127,8.17,8.17,0,0,1-4.42-2.573c-.948-.909-1.88-1.841-2.9-2.671a1.313,1.313,0,0,0-2.1.55,5.382,5.382,0,0,0-.547,2.06c0,2.87.191,5.741.144,8.609a12.686,12.686,0,0,1-1.462,5.979,3.109,3.109,0,0,1-4.11,1.293c-1.828-.857-2.541-2.535-3.181-4.248-.517-1.385-1.094-2.531-2.841-2.7a4.493,4.493,0,0,1-2.328-1.065,23.2,23.2,0,0,0-6.462-3.484,3.362,3.362,0,0,1-1.978-3.021,9.4,9.4,0,0,1,1.687-5.291c1.03-1.641,2.382-3.078,3.553-4.635a3.035,3.035,0,0,0,.729-1.48,50.239,50.239,0,0,0,0-5.625c-.08-1.2-.869-1.455-1.872-.72-1.905,1.4-3.856,2.635-6.589,2.185m-2.4-34.774c-.783.6-1.558,1.211-2.352,1.8a59.585,59.585,0,0,1-9.947,5.408,95,95,0,0,0-8.508,4.282,36.662,36.662,0,0,0-9.288,8.178,36.653,36.653,0,0,0-7.292,12.967,46.733,46.733,0,0,0-1.624,7.8,27.808,27.808,0,0,0,.182,6.5,51.44,51.44,0,0,0,1.446,6.984c1,3.7,2.379,7.3,2.735,11.16a1.236,1.236,0,0,0,.706.839,6.864,6.864,0,0,0,1.7.23c1.911.154,2.559.857,2.559,2.8,0,4.262.007,8.525-.009,12.787a10.02,10.02,0,0,1-.2,1.615c-.159.939.2,1.37,1.208,1.384.965.014,1.931-.005,2.9.005.9.01,1.264-.426,1.307-1.314.094-1.945.2-3.892.4-5.827q.414-3.9,1-7.778c.483-3.183.924-6.382,1.62-9.522.861-3.879,1.889-7.726,2.982-11.548a110.392,110.392,0,0,1,7.208-17.491c1.69-3.5,3.29-7.062,5.264-10.4,2.452-4.147,5.2-8.126,7.911-12.112a71.008,71.008,0,0,1,7.65-9.324A126.12,126.12,0,0,1,77.456,83.988c1.974-1.568,4.1-2.939,6.158-4.406a1.45,1.45,0,0,0,.26-.344c-.165-.083-.334-.245-.5-.237-.74.036-1.476.146-2.216.181-1.737.083-3.474.159-5.212.2-3.435.082-6.871.143-10.307.2-1.118.019-1.561.381-1.494,1.5.185,3.087-1.055,5.694-2.625,8.21a28.551,28.551,0,0,1-5.882,6.478M248.9,78.587c-.99-.99-2.03-1.934-2.955-2.981-.988-1.119-1.534-1.267-2.95-.733a10.307,10.307,0,0,1-2.287.5c-.931.122-1.877.124-2.812.228-.24.027-.459.244-.688.373a3.083,3.083,0,0,0,.48.579c2.472,1.824,4.983,3.6,7.424,5.46,1.638,1.25,3.179,2.627,4.767,3.943,1.933,1.6,3.944,3.123,5.78,4.83a54.073,54.073,0,0,1,4.182,4.552c1.923,2.251,3.9,4.471,5.635,6.863,2.88,3.972,5.586,8.07,8.365,12.115a88.517,88.517,0,0,1,7.876,14.526c1.923,4.362,3.495,8.877,5.284,13.3a1.987,1.987,0,0,0,1.221,1.142c1.656.2,3.336.187,5.007.25.655.025.992-.309.93-.952-.107-1.113-.356-2.22-.376-3.333q-.153-8.351-.205-16.7c-.012-1.942,1.137-3.719,2.731-3.936,1.063-.145,1.159-.431,1.092-1.4a35.419,35.419,0,0,0-1.389-6.929,26.675,26.675,0,0,0-6.123-10.447,31.45,31.45,0,0,0-11.294-8.16c-4.651-2.025-9.58-3.114-14.419-4.52A32.138,32.138,0,0,1,257,84.5a85.693,85.693,0,0,1-8.1-5.917M103.109,231.973c-.067,1.871-.156,3.741-.2,5.612-.082,3.967-.129,7.936-.208,11.9-.05,2.536-.126,5.072-.2,7.608-.06,2.1-.1,4.208-.2,6.309-.177,3.647-.3,7.3-.638,10.935-.14,1.507-.38,3.224-2.348,3.706-.142.035-.248.2-.387.269a24.238,24.238,0,0,1-2.554,1.306c-2.834,1.083-5.856,1.217-8.823,1.6-1.764.226-3.552.263-5.324.436a1.3,1.3,0,0,0-.858.5c-.085.127.167.6.381.786,1.731,1.5,3.462,3.011,5.248,4.45a32.936,32.936,0,0,0,3.554,2.518,1.622,1.622,0,0,0,1.5.006c1.262-1.294,2.421-2.693,3.561-4.1,1-1.238,2.154-2.4,2.344-4.121a4,4,0,0,1,2.76-3.4,4.194,4.194,0,0,0,1.569-1.2q2.026-2.478,3.917-5.065,2.4-3.284,4.684-6.65a7.225,7.225,0,0,1,4.008-3.234,4.772,4.772,0,0,0,3.5-3.457,38.684,38.684,0,0,1,4.3-9.7c.842-1.316,1.73-2.605,2.514-3.955.741-1.277.578-2.343-.393-2.923a38.455,38.455,0,0,0-3.657-2.02c-3.3-1.512-6.633-2.955-9.962-4.4a3,3,0,0,0-1.415-.358c-1.87.214-2.429-.078-3.288-1.673-.809-1.5-1.713-2.956-2.6-4.418-.1-.157-.335-.227-.507-.338a1.744,1.744,0,0,0-.269.583c-.032.764-.013,1.531-.013,2.5M62.939,105.467c.769-.636,1.536-1.275,2.308-1.907,2.934-2.4,5.846-4.834,8.815-7.193,1.366-1.085,2.888-1.838,4.732-1.194a3.46,3.46,0,0,1,2.468,1.885c.342,1.007-.5,1.674-1.095,2.4-1.255,1.526-2.443,3.108-3.621,4.694-.145.2-.061.562-.084.849.255-.077.516-.139.763-.236.171-.067.319-.193.485-.276,2.205-1.108,4.433-2.173,6.611-3.331,1.611-.857,3.1-1.809,2.645-4.11a1.726,1.726,0,0,1,1.075-1.723,8.4,8.4,0,0,1,4.022-1.177,4.6,4.6,0,0,0,1.425-.5,4.61,4.61,0,0,0-1.2-.454c-2.173-.171-4.351-.28-6.527-.419-2.01-.128-4.023-.224-6.027-.414-1.257-.119-2.5-.359-3.748-.591-1.431-.267-2.735-.344-3.872.9-2.516,2.747-5.217,5.329-7.649,8.145a61.667,61.667,0,0,0-4.184,5.949c-.131.194.014.575.031.869a2.915,2.915,0,0,0,.561-.3c.666-.576,1.315-1.172,2.071-1.861M19.271,180.511c1.031,0,2.063-.016,3.094.005.7.014,1-.285,1.012-.991.044-2.135.155-4.269.184-6.4.034-2.528.009-5.056.007-7.585a1.077,1.077,0,0,0-1.192-1.209c-1.2-.013-2.4-.023-3.593,0-2.158.042-2.782.522-2.8,2.322q-.053,6.487.027,12.973c0,.3.527.783.871.848a13.858,13.858,0,0,0,2.388.04m168.275-19.186c-.657-.657-1.3-1.329-1.981-1.958a.8.8,0,0,0-.659-.158.624.624,0,0,0-.238.559,7.722,7.722,0,0,0,.662,1.909c.786,1.343,1.663,2.633,2.524,3.931a5.632,5.632,0,0,0,.671.714c.04-.311.1-.621.116-.932.019-.53,0-1.061.007-1.592A3,3,0,0,0,187.546,161.325Z" transform="translate(0 0)"/>
        <path id="Path_27714" data-name="Path 27714" d="M520,449.726c2.376.971,2.993,2.508,1.816,4.648-.767,1.4-1.767,2.66-2.573,4.036a3.6,3.6,0,0,0-.6,1.925,5.747,5.747,0,0,1-1.762,4.382,74.532,74.532,0,0,0-8.229,11.489c-1.059,1.8-1.766,3.8-2.729,5.658a12.328,12.328,0,0,1-3.021,4.047,4.434,4.434,0,0,1-3.842.521,10.129,10.129,0,0,1-5.375-2.626,75.433,75.433,0,0,1-5.653-6.445,6.917,6.917,0,0,1-1.023-6.11c.43-1.768,1.014-3.5,1.617-5.223a3.212,3.212,0,0,0-.814-3.393,11.141,11.141,0,0,1-2.173-4.4c-1-3.435-3.462-5.167-6.715-6.141a3.62,3.62,0,0,1-2.706-1.975,2.362,2.362,0,0,0-.639-.926c-.722-.606-.6-1.174-.211-1.942.8-1.588,2.36-2.224,3.64-3.226,1.924-1.507,3.824-3.051,5.663-4.661a30.578,30.578,0,0,1,9.471-5.853,10.475,10.475,0,0,1,7.651.16,57.092,57.092,0,0,1,7.592,3.6,14.07,14.07,0,0,1,5.613,6.8c.49,1.1.877,2.24,1.418,3.308a3.974,3.974,0,0,0,3.063,2.143c.146.024.28.128.519.194M489.621,470.61a5.532,5.532,0,0,0-.008,4.365,17.812,17.812,0,0,0,1.77,2.756c.638.8,1.577,1.383,2.14,2.224a9.312,9.312,0,0,0,4.469,3.645c2.031.8,3.171.729,4.211-.62a11.072,11.072,0,0,0,1.479-2.477,53.738,53.738,0,0,1,5.768-10.284c1.726-2.459,3.737-4.718,5.616-7.071a3.566,3.566,0,0,0,1.134-2.824,4.347,4.347,0,0,1,.993-3.083c.716-1.11,1.509-2.17,2.247-3.266.935-1.388.753-2.06-.886-2.424a6.406,6.406,0,0,1-4.671-4.225,27.866,27.866,0,0,0-1.907-3.9,10.8,10.8,0,0,0-2.592-3.238,42.056,42.056,0,0,0-6.378-3.613,18.194,18.194,0,0,0-4.7-1.4c-2-.334-3.851.509-5.6,1.378a32.028,32.028,0,0,0-7.7,5.514,28.857,28.857,0,0,1-6.708,5.042c-.45.227-.426.379-.383.854.12,1.33,1.117,1.548,2.049,1.973a35.031,35.031,0,0,1,4.96,2.466c1.627,1.084,2.057,3.1,2.867,4.774.714,1.479,1.008,3.118,2.277,4.371a3.791,3.791,0,0,1,1.293,3.3C490.962,466.743,490.221,468.562,489.621,470.61Z" transform="translate(-380.117 -346.357)"/>
        <path id="Path_27715" data-name="Path 27715" d="M355.329,592.5c-1.543-.533-2.971-1.114-4.434-1.585s-2.839-2.689-2.949-4a1.3,1.3,0,0,1,1.487-1.584c1.144.048,2.282.25,3.42.4.783.107,1.556.31,2.341.361,1.667.109,3.343.09,5.007.225,2.794.228,5.584.546,7.888,2.393a9.494,9.494,0,0,1,1.788,1.684c1.535,2.1,3.7,3.311,5.905,4.528a37.483,37.483,0,0,1,4.228,2.8c1.106.823,1.143,2.2.075,2.628a5.914,5.914,0,0,1-2.19.022,17.1,17.1,0,0,0-2.393-.054,1.4,1.4,0,0,0-1.183,1.513c-.117,2.452-.909,3.562-3.223,4.153a4.723,4.723,0,0,1-3.853-1.1,8.411,8.411,0,0,1-3.712-6.82c-.11-2.026-.746-2.892-2.728-3.6-1.8-.642-3.583-1.313-5.474-1.971m15.988,2.7c-1-.977-2.037-1.919-2.987-2.942a9.108,9.108,0,0,0-3.4-2.564,19.763,19.763,0,0,0-6.375-.987c-.565-.021-1.136.046-1.7-.013-1.65-.174-3.293-.4-4.943-.576-.185-.02-.392.163-.589.252.147.178.259.451.446.518,2.083.756,4.191,1.444,6.264,2.224,1.811.681,3.613,1.4,5.37,2.208a3.631,3.631,0,0,1,2.086,2.49c.187.809.083,1.683.238,2.5.375,2,1.075,3.819,3.076,4.777,1.789.857,3.01,1.129,3.335-1.557.286-2.36,1.409-3.049,2.854-3.436.234-.063.475-.1.713-.146a3.386,3.386,0,0,0-.641-.645C373.866,596.613,372.638,595.96,371.317,595.194Z" transform="translate(-278.401 -468.343)"/>
        <path id="Path_27716" data-name="Path 27716" d="M1104.593,1180.658a11.189,11.189,0,0,1,5.793-6.761c.325-.182,1-.268,1.166-.085a1.942,1.942,0,0,1,.351,1.309c-.046.815-.291,1.618-.356,2.434-.225,2.841-.263,5.705-.659,8.52a8.4,8.4,0,0,1-2.609,5.289,4.278,4.278,0,0,1-6.676-1.648,3.2,3.2,0,0,1,1.132-3.362,5.2,5.2,0,0,0,1.379-2.829c.183-.931.289-1.877.479-2.866m4.547-.35c.067-.671.153-1.341.189-2.014a2.484,2.484,0,0,0-.161-.684,3.126,3.126,0,0,0-.621.452,11.143,11.143,0,0,0-2,4.756c-.432,1.788-.531,3.7-2.105,5.031-.266.225-.5.93-.361,1.1a2.4,2.4,0,0,0,1.321.817c1.124.215,2.178-.542,2.75-2.089A21.706,21.706,0,0,0,1109.139,1180.309Z" transform="translate(-881.323 -939.143)"/>
        <path id="Path_27717" data-name="Path 27717" d="M799.8,688.338c1.595.05,2.057.671,1.768,2.192a1.742,1.742,0,0,0,.506,1.583,8.452,8.452,0,0,1,1.442,2.869,2.942,2.942,0,0,0,1.538,1.845,3.547,3.547,0,0,1,1.271,1.139c.716,1.066.366,2.212-1.079,2.973-2.067,1.088-4.2,2.062-6.358,2.956a2.116,2.116,0,0,1-2.613-.328,2.337,2.337,0,0,1-.118-2.9c.76-1.187,1.5-2.389,2.355-3.51a1.02,1.02,0,0,0-.088-1.6c-.365-.339-.688-.727-1.064-1.052-1.8-1.556-1.539-3.38,0-4.985.629-.658,1.128-1.743,2.445-1.175m-1.849,13.14a2.247,2.247,0,0,0,.819.156,6.017,6.017,0,0,0,1.2-.458c1.377-.61,2.763-1.2,4.116-1.866.335-.164.743-.461-.058-.784a4.033,4.033,0,0,1-2.513-3.3,2.558,2.558,0,0,0-.885-1.592,2.216,2.216,0,0,1-1.057-2.98.407.407,0,0,0-.021-.341.366.366,0,0,0-.326-.092,2.157,2.157,0,0,0-.737,2.8c.5.6,1.01,1.192,1.552,1.751,1.121,1.158,1.189,1.824.265,3.154-.143.206-.286.413-.423.623C799.277,699.49,798.666,700.434,797.955,701.479Z" transform="translate(-636.689 -550.646)"/>
        <path id="Path_27718" data-name="Path 27718" d="M1194.332,497.278a38.869,38.869,0,0,1-4.65,2.191,23.8,23.8,0,0,1-4.283.747c-.863.121-1.74.14-2.611.211a1.591,1.591,0,0,1-1.781-.975,1.5,1.5,0,0,1,.632-1.822,34.478,34.478,0,0,1,4.024-3.04,17.085,17.085,0,0,1,10.417-2.563,1.488,1.488,0,0,1,1.251,2.065c-.55,1.47-1.769,2.277-3,3.186m-9.543.35c-.49.439-.18.634.248.583,1.031-.123,2.05-.349,3.078-.507,2.214-.341,3.947-1.725,5.87-2.695.187-.094.284-.364.423-.552a1.769,1.769,0,0,0-.6-.211c-.374.015-.741.138-1.116.182A16.981,16.981,0,0,0,1184.789,497.628Z" transform="translate(-944.882 -393.66)"/>
        <path id="Path_27719" data-name="Path 27719" d="M686.637,608.226c1.416.2,2.727.438,4.048.59,1.538.176,3.084.287,4.628.406a3.516,3.516,0,0,1,3.085,1.893,2.019,2.019,0,0,1-.4,2.446,9.842,9.842,0,0,1-5.3,2.645,14.666,14.666,0,0,1-3.444.578c-1.958,0-3.248-1.109-2.5-3.579.411-1.354.387-1.514-.857-2.173-.859-.455-1.2-1.243-.341-2.025a6.773,6.773,0,0,1,1.074-.78m8.993,4.7a4.475,4.475,0,0,0,.372-.3c.216-.214.419-.441.627-.663a3.352,3.352,0,0,0-.746-.558,5.282,5.282,0,0,0-1.442-.362c-1.3-.1-2.607-.111-3.9-.225-.855-.075-1.211.182-1.122,1.084a5.179,5.179,0,0,1-.184,1.411c-.168.9.159,1.2,1.039.984C692.021,613.856,693.777,613.443,695.631,612.922Z" transform="translate(-548.155 -486.671)"/>
        <path id="Path_27720" data-name="Path 27720" d="M1248.1,532.742a30.938,30.938,0,0,1,3.241-3.173c1.213-.893,2.421-.13,2.4,1.372-.044,2.833-.118,5.666-.2,8.5a8.826,8.826,0,0,1-.2,1.612,1.432,1.432,0,0,1-1.933.868,13.005,13.005,0,0,1-4.3-3.093,3.426,3.426,0,0,1-.476-3.141,13.408,13.408,0,0,1,1.476-2.942m1.249,1.949a15.69,15.69,0,0,0-.785,1.672c-.231.679-.309,1.392.483,1.819.652.351,1.312.69,1.988.99.123.055.467-.067.491-.162a6.291,6.291,0,0,0,.212-1.41c.024-1.6.014-3.2,0-4.795a2.844,2.844,0,0,0-.14-.611c-.223.105-.519.152-.656.326C1250.417,533.187,1249.941,533.9,1249.347,534.69Z" transform="translate(-997.349 -423.428)"/>
        <path id="Path_27721" data-name="Path 27721" d="M314.128,551.232a10.367,10.367,0,0,1-2.4-.233,1.8,1.8,0,0,1-1.183-2.393,5.411,5.411,0,0,1,3.587-3.56,1.061,1.061,0,0,1,.69,0c1.7.714,3.484.259,5.224.389a16.644,16.644,0,0,1,2.6.237,1.909,1.909,0,0,1,1.213.944,1.626,1.626,0,0,1-.425,1.359,9.572,9.572,0,0,1-6.282,2.863c-.979.087-1.951.259-3.026.392m.7-1.8a15.8,15.8,0,0,0,5.694-1.21,2.446,2.446,0,0,0,.6-.485,2.719,2.719,0,0,0-.768-.289c-.731-.04-1.465-.014-2.2-.014a20.216,20.216,0,0,1-3.093-.03c-1.466-.229-1.645-.238-2.333.978-.486.859-.26,1.251.741,1.245A5.447,5.447,0,0,0,314.827,549.433Z" transform="translate(-248.391 -436.072)"/>
        <path id="Path_27722" data-name="Path 27722" d="M903.927,455.353v-.6c0-1.8.159-1.877,1.995-2.025,1.21-.1,2.391-.518,3.6-.652,1.511-.168,3.11-.567,4.373.757,1.966,2.061.86,5.343-1.271,6.447a1.9,1.9,0,0,1-1.74-.171,11.481,11.481,0,0,0-5.293-2.442,4.765,4.765,0,0,1-1.665-1.315m8.694-.8a3.347,3.347,0,0,0-.734-.587c-1.548-.639-2.934.251-4.384.527-.131.025-.222.266-.331.407.164.084.325.235.492.243a6.858,6.858,0,0,1,3.855,1.736c.565.431.894.382,1.027-.271A7.794,7.794,0,0,0,912.62,454.553Z" transform="translate(-723.276 -361.577)"/>
        <path id="Path_27723" data-name="Path 27723" d="M263.981,588.836c.662-.927,1.589-.81,2.448-.734,1.409.123,2.832.233,3.911,1.379a1.979,1.979,0,0,1,.008,2.6,6.675,6.675,0,0,1-3.657,1.995c-1.64.315-3.288.621-4.947.785-1.194.118-1.2-.272-1.179-1.465.023-1.291.8-1.92,1.537-2.673.6-.615,1.219-1.222,1.88-1.882m2.548,3.248c.568-.234,1.132-.476,1.7-.7.611-.241.527-.685.086-.863-.692-.28-1.442-.807-2.226-.228-.871.643-1.716,1.324-2.555,2.008-.063.052-.047.3.023.389a.473.473,0,0,0,.394.157C264.751,592.609,265.539,592.341,266.529,592.084Z" transform="translate(-208.487 -470.529)"/>
        <path id="Path_27724" data-name="Path 27724" d="M965.335,442.144A3.13,3.13,0,0,1,962.871,444a9.721,9.721,0,0,1-6.019-1.391,1.786,1.786,0,0,1,.836-3.418c1.7.084,3.407.105,5.107.215a2.8,2.8,0,0,1,2.54,2.738m-5.146-1.049a12.127,12.127,0,0,0-1.453-.083,2.42,2.42,0,0,0-.746.311,2.332,2.332,0,0,0,.452.6,1.53,1.53,0,0,0,.78.26q1.543.043,3.089,0a2.079,2.079,0,0,0,.674-.285c-.2-.167-.372-.443-.591-.481C961.7,441.293,960.992,441.261,960.189,441.094Z" transform="translate(-764.749 -351.416)"/>
        <path id="Path_27725" data-name="Path 27725" d="M1162.258,540.409a10.839,10.839,0,0,1-.01,1.4,1.657,1.657,0,0,1-1.529,1.573,10.044,10.044,0,0,1-4.979-.957,1.546,1.546,0,0,1-.834-1.923,2.844,2.844,0,0,1,.692-1.3,6.534,6.534,0,0,1,3.761-1.966,2.178,2.178,0,0,1,2.3,1.625c.189.487.4.966.6,1.548m-4.3.6a12.3,12.3,0,0,0,1.511.179.711.711,0,0,0,.563-.369c.126-.609-.867-1.425-1.457-1.194a4.927,4.927,0,0,0-1.105.69,1.753,1.753,0,0,0-.321.484A4.515,4.515,0,0,0,1157.961,541.008Z" transform="translate(-924.049 -429.846)"/>
        <path id="Path_27726" data-name="Path 27726" d="M768.111,724.321c-.913-1.4-.425-2.785.024-4.069a4.475,4.475,0,0,1,1.985-2.844,2.305,2.305,0,0,1,3.339,2.071,5.6,5.6,0,0,1-3.146,5.118,1.8,1.8,0,0,1-2.2-.277m2.248-4.746c-.3.838-.62,1.67-.882,2.52-.05.163.1.414.22.589.033.05.3.024.387-.052a3.562,3.562,0,0,0,1.387-2.612C771.484,719.083,771.124,719.047,770.359,719.575Z" transform="translate(-614.19 -573.838)"/>
        <path id="Path_27727" data-name="Path 27727" d="M143.482,956.664a15.106,15.106,0,0,0,3.3.573c.349,0,.859-.867,1-1.414.686-2.591,2.289-3.25,4.87-2.355a11.763,11.763,0,0,1,2.66,1.279c1,.666.791,1.759.608,2.749a4.358,4.358,0,0,1-.5,1.186,1.445,1.445,0,0,0,.289,1.819,22.62,22.62,0,0,0,1.65,1.8,1.453,1.453,0,0,0,1.136.209c.835-.2,1.637-.541,2.453-.822A3.525,3.525,0,0,1,165.6,963.2a8.665,8.665,0,0,1,.768,1.181A1.893,1.893,0,0,1,166,966.82a7.808,7.808,0,0,1-1.626,1.384c-1.395.661-1.786,1.49-1.205,3a8.483,8.483,0,0,1,.236,2.9,1.455,1.455,0,0,0,1.307,1.64c2.069.522,3.027,1.209,2.289,3.757a28.569,28.569,0,0,1-1.408,3.91,2.144,2.144,0,0,1-3.133,1.038c-1.205-.588-1.462-.556-2.279.553-.845,1.147-1.88,2.152-2.788,3.255a1.026,1.026,0,0,0-.149.848,16.565,16.565,0,0,0,.911,2.019c1.105,2.139.157,3.695-1.776,4.538a16.659,16.659,0,0,1-3.673,1.006,2.883,2.883,0,0,1-2.882-1.665c-.564-1.061-1.011-1.158-2.127-.906a13.513,13.513,0,0,1-3.236.365,2.293,2.293,0,0,0-2.254,1.214c-.68,1.084-1.6,2-3.062,1.8a3.9,3.9,0,0,1-1.445-.591,24.262,24.262,0,0,1-2.954-2.018,2.129,2.129,0,0,1-.505-3.04,2.139,2.139,0,0,0-.378-2.616c-.65-.781-1.237-1.615-1.844-2.431a1.365,1.365,0,0,0-1.927-.451,8.652,8.652,0,0,1-2.6.939c-2.045.25-2.611-1.324-2.853-2.785-.413-2.487,1.206-3.67,2.988-4.778.917-.57,1.981-1.027,1.825-2.443-.121-1.1-.11-2.212-.22-3.312-.113-1.121-1.165-1.135-1.906-1.414-1.509-.569-2.386-1.451-2.015-2.888a8.581,8.581,0,0,1,1.985-3.718c.526-.544,1.916-.485,2.862-.339,1.58.243,1.56.288,2.35-1a17.172,17.172,0,0,1,2.031-2.457c.62-.68,1.19-1.239.33-2.208a4.083,4.083,0,0,1-.806-1.944c-.276-1.559.046-2.069,1.459-2.846.518-.285,1.007-.62,1.521-.913,3.072-1.753,4.529-.179,6.1,1.92.111.149.191.321.336.532m17.237,11.442c.636-.636,1.274-1.269,1.907-1.909.356-.36.877-.674.474-1.3a1.283,1.283,0,0,0-1.628-.521,12.943,12.943,0,0,0-1.847.841,2.319,2.319,0,0,1-2.248-.019,25.724,25.724,0,0,1-4.547-3.04c-1.508-1.12-1.709-1.237-1.121-3.428a12.129,12.129,0,0,0,.3-1.37c.017-.117-.152-.262-.235-.393-.118.085-.29.144-.344.259a7.7,7.7,0,0,1-.626,1.431c-.415.545-.956,1.36-1.481,1.39a36.814,36.814,0,0,1-5.7-.174,4.216,4.216,0,0,1-1.875-.973c-.751-.561-1.364-1.311-2.131-1.843a1.319,1.319,0,0,0-1.228.076c-.34.259-.958.444-.6,1.3a4.721,4.721,0,0,1-.549,4.6c-1,1.513-1.946,3.066-2.99,4.55a3,3,0,0,1-2.833,1.331,14.248,14.248,0,0,0-1.814-.172,3.736,3.736,0,0,0-1.112.428,4.507,4.507,0,0,0,.679.753,7.461,7.461,0,0,0,1.371.78,3.406,3.406,0,0,1,2.323,3.8c-.075.757.186,1.543.158,2.311-.039,1.065.408,2.27-.69,3.1q-1.556,1.177-3.131,2.329c-.379.277-.8.5-1.164.792a.5.5,0,0,0-.074.462.447.447,0,0,0,.39.184c1.129-.239,2.241-.583,3.38-.738.816-.112,1.669-.238,2.258.769.777,1.329,1.749,2.545,2.651,3.8a3.929,3.929,0,0,0,.716.8,2.934,2.934,0,0,1,1.019,4c-.131.265.2.759.318,1.147.247-.164.588-.272.725-.5,1.026-1.713,2.211-2.831,4.5-2.306a42.941,42.941,0,0,0,5.315.462c1.33.132,2.612.329,3.223,1.861.271.681.953.627,1.673.36.9-.335.653-.879.406-1.4a5.561,5.561,0,0,1,.868-6.1c.9-1.2,1.875-2.341,2.741-3.563,1.237-1.747,2.245-2.111,4.251-1.505a1.367,1.367,0,0,0,1.18-.175c.52-.664.471-2.055-.014-2.19-1.3-.361-1.906-1.469-2.688-2.366a3.217,3.217,0,0,1-.635-1.519c-.149-.857-.044-1.766-.247-2.6A3.812,3.812,0,0,1,160.719,968.105Z" transform="translate(-99.679 -762.613)"/>
        <path id="Path_27728" data-name="Path 27728" d="M275.169,1200.479a8.021,8.021,0,0,1,.612-1.542,2.534,2.534,0,0,1,2-1.47c1.3-.108,1.976-1.21,2.889-1.951a3.468,3.468,0,0,0,1.11-3.152c-.043-1.584,2.146-4.048,3.7-4.28,1.479-.22,2.249.815,3.076,1.718.98,1.07,2.33,1.309,3.085.09.916-1.479,2.4-1.419,3.8-1.362a6.2,6.2,0,0,1,2.163.767,1.927,1.927,0,0,1,.952,2.782,2.422,2.422,0,0,0,1.453,3.31,2.475,2.475,0,0,0,1.477-.359,3.852,3.852,0,0,1,5.59,2.339,2.925,2.925,0,0,1-.563,1.806,3.783,3.783,0,0,1-1.111,1.134c-1.317.955-1.322,3.262-.678,4.409a2.646,2.646,0,0,0,.979.942c2.109,1.189,1.781,1.862,1.408,3.719a10.852,10.852,0,0,1-.892,2.121,1.673,1.673,0,0,1-2.082,1.131c-1.569-.53-2.249.429-2.981,1.441-.054.075-.078.191-.148.234-1.207.733-.674,1.866-.629,2.861.02.45.325.884.36,1.336a2.137,2.137,0,0,1-1.12,2.217,6.873,6.873,0,0,1-3.607.963,1.9,1.9,0,0,1-1.833-1,1.539,1.539,0,0,0-1.8-.815c-1.011.122-2.025.237-3.027.414a1.324,1.324,0,0,0-.775.48c-1.142,1.6-2.192,2.25-4.057,1.173-.5-.289-1.132-.356-1.618-.662a2.41,2.41,0,0,1-.9-3.219,1.763,1.763,0,0,0-.235-1.759c-.424-.693-.845-1.393-1.33-2.043-.417-.559-.961-.484-1.56-.208a7.756,7.756,0,0,1-1.841.608,1.745,1.745,0,0,1-2.016-1.276,3.373,3.373,0,0,1,.789-3.88,12.934,12.934,0,0,0,1.843-2.422c.568-.885.135-1.616-.487-2.33a13.22,13.22,0,0,1-1.742-2.373,5.494,5.494,0,0,1-.247-1.891m3.9,1.4a2.747,2.747,0,0,1,1.9,3.177,2.091,2.091,0,0,0,.006.895,2.945,2.945,0,0,1-1,3.641.884.884,0,0,0-.171.781c.042.149.421.291.645.285a3.157,3.157,0,0,1,2.88,1.913c.445.766.672,1.657,1.091,2.441.47.877,1.335,1.572,1.148,2.731-.013.08.19.285.245.269a.557.557,0,0,0,.333-.274,2.462,2.462,0,0,1,2.675-1.465c1.572.044,3.15.054,4.709.228a9.981,9.981,0,0,1,1.959.791c.408.143,1,.363,1.251.186s.223-.8.273-1.239c.089-.782-.109-1.73.267-2.317a27,27,0,0,1,2.776-3.257,3.039,3.039,0,0,1,2.4-1.228c.339.006.687-.4,1.03-.612a3.656,3.656,0,0,0-.541-.823c-.4-.352-.9-.585-1.3-.939s-1.054-.81-1.053-1.219c.006-2.486-.095-5.047,2.014-6.941a.338.338,0,1,0-.278-.607,1.043,1.043,0,0,0-.506.208c-1.792,1.181-3.026,1.094-4.455-.488-.6-.667-1.29-1.255-1.893-1.921a3.318,3.318,0,0,1-.894-1.317c-.236-1.086-.72-1.018-1.487-.557-.553.332-1.173.846-1.736.814-1.958-.111-4.039-.123-5.1-2.315-.091-.187-.444-.247-.676-.366a3.3,3.3,0,0,0-.1.752,4.479,4.479,0,0,1-.482,3.239c-.776,1.1-1.517,2.23-2.241,3.367a2.476,2.476,0,0,1-2.478,1.169,4.223,4.223,0,0,0-1.114-.181,2.571,2.571,0,0,0-.81.344C278.566,1201.289,278.766,1201.533,279.066,1201.878Z" transform="translate(-219.824 -950.619)"/>
        <path id="Path_27729" data-name="Path 27729" d="M124.336,1266.172a2.144,2.144,0,0,1,2.109.786,1.767,1.767,0,0,0,2.642.052c.661-.687,1.33-1.238,2.351-.69s1.2,1.078,1.063,2.418c-.066.624.1,1.236.988,1.188.631-.034,1.266.015,1.9-.012a1.793,1.793,0,0,1,1.7,1.035,1.329,1.329,0,0,1-.267,1.727c-.846.948-.488,2.089-.5,3.164a.712.712,0,0,0,.343.537c1.046.458,1.014,1.342,1.028,2.273a1.594,1.594,0,0,1-2.148,1.589c-.646-.234-.935.041-1.263.446a4.145,4.145,0,0,1-.41.526,1.253,1.253,0,0,0-.391,1.675,1.446,1.446,0,0,1-.236,1.917,2.447,2.447,0,0,1-2.63.546,14.72,14.72,0,0,0-2.254-.822,1.871,1.871,0,0,0-1.969.771c-.442.54-.993.842-1.655.4-.692-.46-1.622-.726-1.648-1.808-.049-2.018-.63-2.592-2.658-2.573-.621.006-1.119-.018-1.4-.737a1.571,1.571,0,0,1,.337-1.835c.408-.411.987-.689,1.294-1.155.508-.771.237-1.475-.731-2.065a1.954,1.954,0,0,1-1.017-2.081c.169-1.026.942-1.507,2.093-1.526a2.1,2.1,0,0,0,1.95-2.626,2.693,2.693,0,0,1,1.377-3.12m2.148,12.041a1.765,1.765,0,0,0,1.894.683,3.569,3.569,0,0,0,2.3-3.669c-.174-1.265-2.169-2.437-3.154-1.854A3.66,3.66,0,0,0,126.485,1278.214Z" transform="translate(-95.123 -1013.065)"/>
        <path id="Path_27730" data-name="Path 27730" d="M1097.019,824.56c-.067,2.937-.123,5.774-.207,8.61a22.8,22.8,0,0,1-.2,2.314,2.8,2.8,0,0,1-2,2.055,17.2,17.2,0,0,1-2.314.2c-5,.081-10,.134-15,.21q-5.455.083-10.908.2c-2.67.055-5.34.13-8.011.2-2.57.065-5.14.151-7.711.2-4.668.081-9.337.13-14.005.206-3.337.054-6.673.155-10.009.193-7.233.082-14.466.128-21.7.208-4.069.045-8.139.106-12.207.2-2.44.06-2.649-.848-2.777-2.831-.322-4.962-.333-9.944-.46-14.918-.076-3-.128-6.007-.2-9.01-.055-2.2-.17-4.408-.191-6.612-.083-8.832-.136-17.664-.214-26.5a1.115,1.115,0,0,1,1.018-1.291c.829-.121,1.1.529,1.164,1.116.2,1.736.328,3.482.412,5.228.107,2.235.152,4.474.2,6.711.016.661.325.937.969.931,1.2-.012,2.4-.029,3.6,0a22.958,22.958,0,0,1,10.7,3.356c3.536,1.98,6.286,4.877,9.094,7.709.818.826,1.127.9,2.024.041,2.206-2.121,4.385-4.275,6.7-6.277,2.866-2.482,5.751-4.966,8.819-7.184a25.408,25.408,0,0,1,9.429-4.2c3.261-.717,6.582-.783,9.628.973a17.8,17.8,0,0,1,3.082,2.194,40.912,40.912,0,0,1,7.16,8.512c.617.981,1.025,1.05,2.061.457a45.634,45.634,0,0,1,12.832-4.947,56.214,56.214,0,0,1,6.656-.824,29.822,29.822,0,0,1,4.112-.188c1.832.074,3.655.345,5.486.455a1.014,1.014,0,0,0,.751-.65c.135-1.465.115-2.944.248-4.409a40.091,40.091,0,0,1,.626-4.441c.077-.377.624-.708,1.027-.931.1-.056.626.344.7.607a6.852,6.852,0,0,1,.221,1.807c.019,3.231.035,6.462,0,9.692-.039,3.87-.13,7.739-.192,11.608-.071,4.4-.123,8.8-.206,13.206-.036,1.9-.128,3.805-.195,5.808m-41.469,10.992a9.065,9.065,0,0,1,1.217-.192c3.2-.081,6.406-.139,9.61-.208,3-.064,6.007-.2,9.01-.186,5.6.019,11.2.119,16.8.188a1.516,1.516,0,0,1,.379.049c1.153.316,1.448.112,1.45-1.029q0-4.4,0-8.793c0-1.7-.026-3.4.007-5.1.036-1.838.138-3.675.186-5.513.016-.595-.279-.774-.78-.4-2.2,1.635-4.819,1.748-7.371,1.963a17.081,17.081,0,0,1-6.42-.868,29.027,29.027,0,0,1-12.27-7.5c-1.354-1.371-2.507-2.942-3.724-4.445a1.017,1.017,0,0,0-1.614-.232c-2.4,1.922-4.753,3.919-7.21,5.772a68.518,68.518,0,0,1-6.38,4.374,24.723,24.723,0,0,1-16.357,3.547,23.123,23.123,0,0,1-7.714-2.85,29.652,29.652,0,0,1-6.918-5.268,1.28,1.28,0,0,0-1.932-.088,33.936,33.936,0,0,1-8.262,4.4,20.256,20.256,0,0,1-5.4,1.211,21.576,21.576,0,0,1-8.194-.346c-1.061-.317-1.388-.1-1.37,1,.058,3.636.153,7.272.19,10.909.033,3.231,0,6.462.009,9.693,0,1.1.216,1.334,1.278,1.3.707-.021,1.41-.167,2.116-.184q5.154-.124,10.309-.2c5.734-.079,11.469-.126,17.2-.208,2.6-.037,5.208-.127,7.811-.2q3.756-.1,7.512-.2c2.371-.065,4.741-.141,7.112-.2,3.17-.075,6.34-.135,9.71-.2M1027.67,797.88c-.537.471-1.093.922-1.609,1.416q-2.9,2.776-5.78,5.574a2.61,2.61,0,0,1-.213.21c-1.047.8-1.112,1.183-.1,2.057a43.531,43.531,0,0,0,3.689,2.9c4.611,3.2,9.625,4.91,15.287,3.721a30.833,30.833,0,0,0,12.668-6.042c1.615-1.256,3.211-2.536,4.812-3.81,1.328-1.056,2.649-2.119,3.977-3.174.527-.419.8-.771.256-1.475-1.425-1.851-2.608-3.905-4.156-5.639a26.827,26.827,0,0,0-4.823-4.228,9.218,9.218,0,0,0-6.721-1.243,22.658,22.658,0,0,0-6.272,1.759,40.69,40.69,0,0,0-11.013,7.98m66.75,5c.067-2.2.129-4.406.2-6.609.022-.648-.152-1.033-.907-1.1-1.719-.152-3.43-.522-5.147-.548a43.684,43.684,0,0,0-5.725.383,36.25,36.25,0,0,0-5.211.918,71.927,71.927,0,0,0-7.038,2.291,31.536,31.536,0,0,0-4.271,2.217c-.418.24-.961.641-.433,1.3,1.085,1.348,2.1,2.754,3.264,4.034a24.257,24.257,0,0,0,6.052,4.663,21.975,21.975,0,0,0,10.083,3.121c2.518.1,4.919-.732,7.345-1.293.653-.151,1.492-.139,1.575-1.068.115-1.3.173-2.607.2-3.912.033-1.4.008-2.8.008-4.395m-97.628-8.094q-2.055-.1-4.11-.2c-.708-.035-1.02.3-.988,1,.073,1.6.156,3.205.2,4.809q.122,4.75.2,9.5a1.3,1.3,0,0,0,1.141,1.471,32.381,32.381,0,0,0,4.861.75,24.093,24.093,0,0,0,5.433-.585,20.7,20.7,0,0,0,6.721-2.557c1.131-.714,2.272-1.414,3.429-2.086.985-.572,1.037-.773.214-1.6a60.841,60.841,0,0,0-4.747-4.681,31.259,31.259,0,0,0-5.951-3.924A36.8,36.8,0,0,0,996.793,794.782Z" transform="translate(-791.26 -622.665)"/>
        <path id="Path_27731" data-name="Path 27731" d="M195.584,1031.8c-3.664,1.031-6,.2-8.383-2.748a9.413,9.413,0,0,1-2.187-6.368,14.384,14.384,0,0,1,1.318-5.136,10.573,10.573,0,0,1,5.182-5.782,6.154,6.154,0,0,1,5.127.016,14.967,14.967,0,0,1,5.659,3.228,8.032,8.032,0,0,1,1.5,8.492c-1.407,3.47-4,5.819-7.03,7.8a5.593,5.593,0,0,1-1.189.5m-4.2-14.889a7.591,7.591,0,0,0-1.037,1.468c-.516,1.285-1.309,2.63-1.269,3.929a6.656,6.656,0,0,0,2.473,5.115,2.777,2.777,0,0,0,1.942.7c2.9-.676,5.175-2.214,5.948-5.3a6,6,0,0,0,.391-3.11c-.5-2-2.119-2.8-3.509-3.927a2.585,2.585,0,0,0-3.11-.349A11.78,11.78,0,0,0,191.387,1016.909Z" transform="translate(-148.034 -809.118)"/>
        <path id="Path_27732" data-name="Path 27732" d="M332.926,1236.491c2.9,1.914,3.662,4.618,2.519,7.542a11.221,11.221,0,0,1-5.585,5.991,5.221,5.221,0,0,1-6.4-.992,7.755,7.755,0,0,1-2.339-5.41,10.888,10.888,0,0,1,1.847-5.8,10.034,10.034,0,0,1,2.5-2.341,4.593,4.593,0,0,1,5.005-.236c.811.375,1.6.8,2.451,1.245m-.749,7.245c.547-1.775.566-3.428-1.092-4.688-.4-.307-.837-.579-1.216-.913a2.129,2.129,0,0,0-2.676-.18c-2.155,1.265-3.89,4.812-2.288,7.687.881,1.582,2.13,2.231,3.349,1.807A5.762,5.762,0,0,0,332.176,1243.735Z" transform="translate(-256.947 -987.88)"/>
      </g>
    </g>
  </g>
</svg>
