<svg xmlns="http://www.w3.org/2000/svg" width="40.914" height="59.492" viewBox="0 0 40.914 59.492">
  <g id="Group_17675" data-name="Group 17675" transform="translate(-38.238 -885.005)" opacity="0.264">
    <path id="Path_27777" data-name="Path 27777" d="M-4372.385,4436.4l-.231-4.072.611-2.433,1.03-2.193,1.091-1.167v-1.581s2.921.125,3.485-.524,1.885-5.4,1.885-5.4,3.12,2.458,3.757,2.5,8.8,2.292,8.8,2.292l5.167,4.334,1.685,4.171.469,5.275-1.011,1.916-1.143-3.857-1.075-1.133-2.208-.719-4.684-4.2-1.589.865-3.656,1.857-4.974-.637-3.431-1.505-1.475,1.855-1.529,4.695Z" transform="translate(4417.968 -3533.228)" stroke="#707070" stroke-width="0.5"/>
    <g id="Group_24" data-name="Group 24" transform="translate(38.238 885.005)">
      <path id="Path_27739" data-name="Path 27739" d="M125.984,1192.461a7.2,7.2,0,0,1-.267,1.468c-.1.248-.438.4-.671.594-.012.01-.039,0-.06,0-7.082.04-14.164.1-21.246.113-3.826.006-7.652-.092-11.478-.1-1.925-.006-3.849.078-5.774.111a1.111,1.111,0,0,1-1.264-1.292c.1-1.172.348-2.331.46-3.5a9.694,9.694,0,0,1,1.338-3.879,11.459,11.459,0,0,1,3.844-3.957,15.935,15.935,0,0,1,5.555-2.247,10.851,10.851,0,0,1,4.449-.178c.128.027.4-.067.409-.124a2.32,2.32,0,0,0-.033-.968,1.108,1.108,0,0,0-.572-.474,13.185,13.185,0,0,1-6.488-6.75,17.031,17.031,0,0,1-1.6-5.17.85.85,0,0,0-.561-.56,2.748,2.748,0,0,1-2.315-2.1,22.927,22.927,0,0,1-.471-3.5,4.154,4.154,0,0,1,.82-2.8,2.215,2.215,0,0,1,1.631-.959.9.9,0,0,0,.826-1.36,8.314,8.314,0,0,1-.729-4.539,17.285,17.285,0,0,1,.74-3.935,10.894,10.894,0,0,1,1.531-2.694,2.343,2.343,0,0,0,.5-1.5c-.029-.709.191-.918.915-.9.469.013.939.125,1.406.106a2.01,2.01,0,0,0,2.034-1.66c.276-1.145.475-2.309.748-3.455a2.36,2.36,0,0,1,.447-.841c.272-.356.582-.316.91-.014a12.24,12.24,0,0,0,2.148,1.853,9.641,9.641,0,0,0,2.873.948,19.373,19.373,0,0,1,3.97.974c1.224.511,2.486.938,3.691,1.489a13.077,13.077,0,0,1,4.692,3.875,8.14,8.14,0,0,1,1.222,1.738,8.981,8.981,0,0,1,.758,2.649c.177,1.818.195,3.651.265,5.479a2.519,2.519,0,0,1-.108.62.665.665,0,0,0,.477.788c1.331.552,1.628,1.7,1.691,2.945a16.549,16.549,0,0,1-.588,4.847,3.472,3.472,0,0,1-2.881,2.665.638.638,0,0,0-.392.365c-.346,1.093-.595,2.22-1,3.289a11.967,11.967,0,0,1-1.97,3.495,21.1,21.1,0,0,1-4.4,3.883,13.728,13.728,0,0,1-1.289.693,1.483,1.483,0,0,0-.408,1.6.322.322,0,0,0,.242.131,21.484,21.484,0,0,1,6.061.359,14.655,14.655,0,0,1,4.592,1.368,9.652,9.652,0,0,1,4.1,3.92,10.378,10.378,0,0,1,1.329,6.062c-.022.328-.078.653-.119,1.04m-7.767-32.219c-.04-.934-.072-1.868-.123-2.8-.073-1.321-.133-2.644-.249-3.962a1.985,1.985,0,0,0-1.588-1.937,7.227,7.227,0,0,1-2.36-1.009,43.712,43.712,0,0,1-3.457-2.94.664.664,0,0,0-1.061-.014,15.84,15.84,0,0,1-1.759,1.309,6.8,6.8,0,0,1-3.1.9,9.142,9.142,0,0,1-4.442-.651c-.922-.36-1.817-.787-2.742-1.138-.408-.155-.889-.419-1.237.142a5,5,0,0,0-.451.783,22.689,22.689,0,0,0-1.7,6.147c-.167,1.813-.348,3.625-.473,5.44a14.259,14.259,0,0,0,.108,1.829c.043.711.067,1.423.128,2.133a6.22,6.22,0,0,0,.2,1.189c.36,1.244.774,2.472,1.122,3.719a12.272,12.272,0,0,0,2.875,4.988,11.393,11.393,0,0,0,4.107,2.651,7.915,7.915,0,0,0,3.576.875,7.12,7.12,0,0,0,1.654-.25,20.7,20.7,0,0,0,3.205-1.183,18.666,18.666,0,0,0,2.338-1.685,11.616,11.616,0,0,0,3.512-4.1,15.723,15.723,0,0,0,1.182-3.756,23.659,23.659,0,0,0,.593-2.964c.125-1.187.1-2.39.141-3.708m-24.756-8.859c.526-1.178,1.008-2.377,1.589-3.527.723-1.434,1.041-1.524,2.355-1.113,1.225.383,2.372,1.005,3.575,1.469a7.914,7.914,0,0,0,4.814.2,7.408,7.408,0,0,0,3-1.826,1.652,1.652,0,0,1,2.331,0c.819.795,1.61,1.625,2.49,2.347a6.3,6.3,0,0,0,3.129,1.67,2.409,2.409,0,0,1,2.2,2.242c.078.555.139,1.113.231,1.665a1.7,1.7,0,0,0,.207.432,1.5,1.5,0,0,0,.161-.476,21.587,21.587,0,0,0-.225-4.512c-.394-1.681-.509-3.454-1.909-4.734-.944-.862-1.83-1.789-2.783-2.641a10.883,10.883,0,0,0-3.241-1.686,24.427,24.427,0,0,0-6.026-1.7,6.981,6.981,0,0,1-4.306-2.066,1.753,1.753,0,0,0-.3-.208c-.085.126-.218.243-.248.381-.14.654-.218,1.321-.379,1.969-.3,1.221-.695,2.441-2.059,2.855a8.026,8.026,0,0,1-2.04.2c-.471.016-.61.181-.445.617.152.4.129.873-.232,1.048a3.625,3.625,0,0,0-1.492,1.87,9.951,9.951,0,0,0-.887,4.24c-.025.631-.093,1.26-.106,1.891,0,.124.163.25.251.376.074-.084.182-.158.214-.256a3.971,3.971,0,0,0,.129-.736m25.666,30.642a.372.372,0,0,1-.121,0,26.466,26.466,0,0,0-8.6-1.217c-.521-.013-.708.2-.7.707.022.9.006,1.793.006,2.689,0,2.062-.011,4.124.006,6.186.007.812.049,1.627.136,2.434a.7.7,0,0,0,.463.468,12.851,12.851,0,0,0,1.887.137q5.822.016,11.644,0a.707.707,0,0,0,.786-.731c.052-.98.1-1.961.121-2.942a6.994,6.994,0,0,0-.791-3.128,9.747,9.747,0,0,0-4.848-4.6m-17.778-.91c-.221-.1-.445-.3-.662-.288a38.284,38.284,0,0,0-4.08.251,11.781,11.781,0,0,0-4.629,1.685,10.56,10.56,0,0,0-5.077,6.38,21.422,21.422,0,0,0-.579,3.089c-.1,1.082-.156,1.224,1.136,1.207,4.166-.056,8.333-.087,12.5-.127a9.054,9.054,0,0,1,1.03.007c.476.05.635-.118.612-.6-.1-2.067-.2-4.135-.243-6.2-.039-1.757-.008-3.516-.008-5.4m3.944,3.7a3.558,3.558,0,0,0,.779-.309,14.024,14.024,0,0,1,1.675-1.241,1.261,1.261,0,0,0,.773-1.331c0-.853.056-1.707.117-2.558.032-.444-.061-.7-.577-.633-.486.061-.976.1-1.466.122-.343.018-.751-.116-1.019.026a3.426,3.426,0,0,1-2.286.09c-.583-.09-.705-.017-.728.566-.026.651-.139,1.3-.1,1.951a1.989,1.989,0,0,0,.595,1.69c.713.532,1.412,1.084,2.239,1.627m14.138-23.724c-.121,1.224-.256,2.446-.346,3.672-.01.142.312.445.334.432a3.448,3.448,0,0,0,1.2-.849,6.178,6.178,0,0,0,.737-1.929c.141-.627.05-1.3.165-1.941a5.568,5.568,0,0,0-.167-2.941,1.166,1.166,0,0,0-.715-.6c-.16-.045-.459.241-.626.437s-.2.5-.363.69c-.34.386-.174.562.19.777.233.137.523.355.578.587.2.855.337,1.729.458,2.6.019.138-.156.3-.242.455-.171-.115-.442-.2-.494-.352-.127-.376-.131-.793-.229-1.182a3.461,3.461,0,0,0-.305-.64c-.057.219-.114.438-.172.778m-28.579-1.4a1.5,1.5,0,0,1,1.158-1.344c.427-.111.422-.52.333-.833a.609.609,0,0,0-.552-.227,2.115,2.115,0,0,0-.969.727,4.384,4.384,0,0,0-.488,1.782,13.529,13.529,0,0,0,.232,2.68,2.532,2.532,0,0,0,1.128,1.938c.161.092.332.166.5.248a1.734,1.734,0,0,0,.168-.531c-.017-.69-.088-1.378-.107-2.068-.02-.726,0-1.452-.008-2.179a1.332,1.332,0,0,0-.081-.314c-.093.084-.242.152-.269.254-.105.383-.152.783-.262,1.165-.044.151-.2.269-.3.4-.138-.119-.368-.219-.4-.361a5.325,5.325,0,0,1-.078-1.338m13.288,29.913a11.157,11.157,0,0,0,.464-1.374.778.778,0,0,0-.274-.588.557.557,0,0,0-.53-.027,2.008,2.008,0,0,0-1.12,1.779c.054,1.171.079,2.343.133,3.513a1.183,1.183,0,0,0,.181.391c.1-.12.25-.226.288-.363.3-1.067.575-2.139.858-3.331m4.369.485a11.087,11.087,0,0,0-.028-1.748,1.246,1.246,0,0,0-.608-.687c-.492-.289-.763.228-1.1.438-.107.068-.142.408-.075.568.5,1.2,1.037,2.39,1.569,3.58.036.08.124.137.188.2.057-.117.167-.236.163-.351-.022-.628-.072-1.256-.113-2.005m-1.578-4.854c-.519.523-.508.543.2.794a6.355,6.355,0,0,1,.7.35c.644.323.675.3.676-.4q0-.725,0-1.45,0-.191,0-.383c-.152.031-.34.016-.449.1-.371.291-.714.618-1.128.992m-3.337.91c.6-.6.593-.592-.128-1.1-.13-.092-.219-.243-.349-.334-.1-.072-.265-.156-.359-.122a.419.419,0,0,0-.187.325c-.019.586-.027,1.174,0,1.758.008.147.177.286.271.429.071-.1.14-.2.215-.3C103.217,1186.605,103.376,1186.409,103.594,1186.15Z" transform="translate(-85.218 -1135.151)"/>
      <path id="Path_27761" data-name="Path 27761" d="M212.76,1415.361c1.229-.4,2.395-.8,3.567-1.192a1.138,1.138,0,0,1,.536-.016c.347.062.431.356.191.614a5.624,5.624,0,0,1-3.054,1.544,13.514,13.514,0,0,1-8.475-.974,1.7,1.7,0,0,1-.7-.479.854.854,0,0,1-.089-.715c.051-.122.45-.216.626-.147.817.318,1.593.743,2.416,1.043a9.292,9.292,0,0,0,4.677.323A2.436,2.436,0,0,1,212.76,1415.361Z" transform="translate(-190.197 -1380.137)"/>
      <path id="Path_27762" data-name="Path 27762" d="M287.752,1289.378a4.771,4.771,0,0,0-3.679.2,1.581,1.581,0,0,1-.885-.062c-.066-.018-.122-.4-.045-.535a1.577,1.577,0,0,1,.553-.535,5.044,5.044,0,0,1,6.05.735c.264.246.445.563.2.805-.147.145-.574.1-.835.016A10.258,10.258,0,0,1,287.752,1289.378Z" transform="translate(-259.091 -1269.232)"/>
      <path id="Path_27763" data-name="Path 27763" d="M172.669,1291.937a5.234,5.234,0,0,0-4.313.272c-.435.2-.991.532-1.257-.065-.242-.543.376-.8.761-1.018a6.661,6.661,0,0,1,5.343-.351,1.446,1.446,0,0,1,.25.126c.556.283.99.953.742,1.087a2.647,2.647,0,0,1-1.168.06A1.007,1.007,0,0,1,172.669,1291.937Z" transform="translate(-157.114 -1271.549)"/>
      <path id="Path_27764" data-name="Path 27764" d="M253.844,1363.467a6.079,6.079,0,0,1-.992.486.556.556,0,0,1-.507-.143.571.571,0,0,1,.11-.511,4.254,4.254,0,0,1,.831-.764.707.707,0,0,0,.254-1.01c-.108-.238-.221-.475-.343-.707a.5.5,0,0,1,.295-.728c.163-.08.568-.013.63.108a6.6,6.6,0,0,1,.7,1.764C254.943,1362.655,254.274,1362.994,253.844,1363.467Z" transform="translate(-232.04 -1332.764)"/>
      <path id="Path_27765" data-name="Path 27765" d="M240.805,1443.362c-1.074.081-2.087.178-3.1.222-.133.006-.341-.242-.394-.411-.032-.1.144-.3.268-.411a.721.721,0,0,1,.412-.158c.92-.041,1.842-.092,2.762-.075a2.294,2.294,0,0,1,.782.344A7.6,7.6,0,0,1,240.805,1443.362Z" transform="translate(-218.849 -1405.226)"/>
      <path id="Path_27766" data-name="Path 27766" d="M193.357,1319.758a1.016,1.016,0,0,1,.316-1.335,1.205,1.205,0,0,1,1.432.238.858.858,0,0,1-.086,1.2,1.05,1.05,0,0,1-1.4.215A.934.934,0,0,1,193.357,1319.758Z" transform="translate(-180.138 -1296.063)"/>
      <path id="Path_27767" data-name="Path 27767" d="M302.577,1319.8c.212-.568.671-.573,1.088-.5a.734.734,0,0,1,.588.807c.01.446-.073.856-.541.965a.9.9,0,0,1-1.094-.4A.786.786,0,0,1,302.577,1319.8Z" transform="translate(-276.1 -1296.924)"/>
      <path id="Path_27768" data-name="Path 27768" d="M325.916,1544.627a4.09,4.09,0,0,1,.654.924,1.889,1.889,0,0,1,.145,1.209c-.473,1.119-1.065,2.188-1.622,3.271a1.251,1.251,0,0,1-.326.408c-.285.222-.526.112-.5-.225a4.82,4.82,0,0,1,.273-1.338,20.5,20.5,0,0,1,.935-2.16c.3-.594-.139-.923-.377-1.329a7.175,7.175,0,0,1-.618-1.018.5.5,0,0,1,.838-.555A4.5,4.5,0,0,1,325.916,1544.627Z" transform="translate(-295.253 -1494.082)"/>
      <path id="Path_27769" data-name="Path 27769" d="M169.231,1550.369a6.951,6.951,0,0,1-1.092-3.246,2.876,2.876,0,0,1,1.2-2.075.7.7,0,0,1,.689.045c.126.135.087.479.032.71-.036.152-.226.268-.348.4-.716.766-.371,1.554-.06,2.351.272.7.54,1.4.758,2.109.057.187-.079.433-.126.652a2.12,2.12,0,0,1-.535-.257A3.107,3.107,0,0,1,169.231,1550.369Z" transform="translate(-158.076 -1495.243)"/>
    </g>
  </g>
</svg>
