<svg xmlns="http://www.w3.org/2000/svg" width="38.457" height="59.422" viewBox="0 0 38.457 59.422">
  <g id="Group_17672" data-name="Group 17672" transform="translate(-105.721 -707.899)" opacity="0.264">
    <g id="Group_20" data-name="Group 20" transform="translate(105.721 707.899)">
      <path id="Path_27735" data-name="Path 27735" d="M530.532,8.454c.879-.25,1.73-.472,2.582-.694a1.226,1.226,0,0,1,.255-.053c1.039-.04,2.078-.1,3.117-.1a7.674,7.674,0,0,1,1.461.214c.52.1.68-.021.721-.551a7.777,7.777,0,0,1,1.686-4.18A8.5,8.5,0,0,1,543.283.561a5.629,5.629,0,0,1,4-.353,7.158,7.158,0,0,1,3.31,1.923,10.534,10.534,0,0,1,2.252,2.847,17.187,17.187,0,0,1,1.7,4.734c.16,1.027.458,2.033.646,3.057.122.663.158,1.343.231,2.015q.223,2.072.444,4.144c.006.055,0,.111,0,.166.037,1.52.083,3.039.109,4.559.044,2.537.072,5.074.114,7.611.031,1.834.062,3.669.117,5.5a.985.985,0,0,1-.614,1.014,7.833,7.833,0,0,1-7.117-.007,1.035,1.035,0,0,1-.266-.158c-.631-.605-.845-.507-1.286.265a12.1,12.1,0,0,1-3.116,3.585q-1.2.926-2.4,1.842a2.816,2.816,0,0,1-.45.251c-1.125.561-1.231.754-1.07,2.013.025.192.015.352.361.266a5.164,5.164,0,0,1,1.21.049c1.2.01,2.4.025,3.606,0a7.164,7.164,0,0,1,5.224,1.883,14.81,14.81,0,0,1,3.659,4.758,13.941,13.941,0,0,1,.8,3.216,12.441,12.441,0,0,1,.122,1.949,1.019,1.019,0,0,1-.889,1.177,12.472,12.472,0,0,1-1.9.222c-2.148.06-4.3.079-6.446.121-1.631.031-3.262.072-4.892.11-1.538.036-3.077.107-4.615.1-2.149-.005-4.3-.067-6.446-.1-2.334-.038-4.667-.092-7-.1-1.168-.006-2.336.08-3.505.1-1.1.018-1.572-.555-1.37-1.644.177-.961.32-1.931.563-2.875a12.705,12.705,0,0,1,2.631-5.293,9.609,9.609,0,0,1,4.313-2.975A12.358,12.358,0,0,1,528.358,46c.816-.055,1.634-.078,2.451-.114.111,0,.238.035.33-.007.322-.145.811.461.948-.069.291-1.126.051-1.751-.645-2.088a12.341,12.341,0,0,1-3.862-2.744,11.281,11.281,0,0,1-2.214-3.691c-.414-1.109-.613-2.3-.918-3.45-.027-.1-.151-.268-.207-.259-1,.156-1.341-.634-1.734-1.257a7.547,7.547,0,0,1-1.144-5.008,2.825,2.825,0,0,1,1.519-2.579.607.607,0,0,0,.221-.545,13.8,13.8,0,0,1-.32-5.548,9.662,9.662,0,0,1,1.244-4.145c.581-.994,1.3-1.908,1.977-2.845a9.638,9.638,0,0,1,3.367-2.7c.357-.2.754-.319,1.16-.5m17.455,16.733a3,3,0,0,1-.1-.675,5.477,5.477,0,0,0-.553-2.716,7.63,7.63,0,0,0-2.165-3.084c-1.075-.823-2.176-1.612-3.283-2.389-.214-.151-.439-.135-.68.148a9.652,9.652,0,0,1-3.079,2.661,16.832,16.832,0,0,1-5.892,1.435,12.5,12.5,0,0,0-4.278.8,5.007,5.007,0,0,0-2.243,1.792c-.224.349-.17.531.306.537,1.409.017,2.818.049,4.226.109,1.08.046,2.162.112,3.236.227a1.934,1.934,0,0,1,1.767.943,2.365,2.365,0,0,0,1.443.371.353.353,0,0,0,.191-.229c.036-.559.418-.635.858-.654q1.115-.049,2.229-.11c1.3-.072,2.6-.165,3.9-.215.849-.033,1.7-.006,2.552-.006a1.066,1.066,0,0,1,1.121,1.335,12.338,12.338,0,0,1-.342,1.579A3.977,3.977,0,0,1,545.23,29.8a8.01,8.01,0,0,1-3.508.784A5.252,5.252,0,0,1,537.55,28.6a2.743,2.743,0,0,1-.783-2.062.474.474,0,0,0-.138-.376c-.265-.2-1.16.171-1.3.482a8.887,8.887,0,0,1-.784,1.558,5.26,5.26,0,0,1-4.015,2.374,5.407,5.407,0,0,1-4.744-2.316,1.875,1.875,0,0,0-.288-.235c-.051.127-.151.255-.146.38.063,1.634.107,3.27.223,4.9a11.185,11.185,0,0,0,1.609,5.157,10.467,10.467,0,0,0,2.658,2.987,16.609,16.609,0,0,0,4.235,2.1,3.817,3.817,0,0,0,1.258.417,11.058,11.058,0,0,0,2.357-.317,10.791,10.791,0,0,0,5.549-3.07,21.81,21.81,0,0,0,1.944-2.2,12.93,12.93,0,0,0,1.662-2.911,26.474,26.474,0,0,0,1.012-6.346c.137-1.269.092-2.557.129-3.947m.278,32.8,4.947-.111c.074,0,.182.031.216-.006.124-.135.328-.3.314-.44a18.434,18.434,0,0,0-.327-2.247,10.772,10.772,0,0,0-.741-2.518,13.61,13.61,0,0,0-3.306-4.223,4.338,4.338,0,0,0-2.432-1.211c-1.575-.119-3.155-.169-4.734-.219a.572.572,0,0,0-.414.332c-.121.36-.15.75-.24,1.123a5.71,5.71,0,0,1-3.313,4.357,4.771,4.771,0,0,1-3.14.182,5.46,5.46,0,0,1-3.255-2.383,5.119,5.119,0,0,1-1.083-2.608c-.028-.906-.138-.936-1.069-.9a21.949,21.949,0,0,0-2.569.224A8.2,8.2,0,0,0,522.69,49.5a10.441,10.441,0,0,0-3.022,5.123q-.36,1.438-.644,2.894c-.08.4.147.6.568.585.927-.043,1.856-.112,2.783-.106,3.054.019,6.109.061,9.163.107,1.52.023,3.039.09,4.559.1.816.006,1.633-.088,2.45-.1,3.2-.046,6.4-.078,9.718-.115m-15.429-29.3a4.392,4.392,0,0,0,1.377-2.149c.161-.68-.141-1.348-.705-1.4-1.469-.129-2.94-.231-4.411-.336-.276-.02-.555.007-.832,0-.706-.031-1.412-.1-2.118-.089-.152,0-.448.276-.43.383a5.415,5.415,0,0,0,2.164,3.753,4,4,0,0,0,4.955-.16m5.051-1.942a.591.591,0,0,0,0,.22,4.36,4.36,0,0,0,3.925,2.611,6.47,6.47,0,0,0,3.032-.716,1.545,1.545,0,0,0,.831-.73c.353-.929.592-1.9.852-2.863.014-.053-.177-.233-.271-.231-.891.018-1.782.049-2.672.1-1.674.1-3.347.229-5.021.325-.669.038-.941.475-.68,1.282m.777,21.09a3.989,3.989,0,0,0,.313-1.08,9.988,9.988,0,0,0-.215-1.788c-.028-.151-.238-.4-.342-.384-.409.043-.8.2-1.212.263-1.114.172-2.228.52-3.33-.116-.421-.243-.8.029-.752.532a11.591,11.591,0,0,0,.337,2.074,3.171,3.171,0,0,0,2.764,2.088,2.686,2.686,0,0,0,2.438-1.589m1.5,1.054a6.7,6.7,0,0,0,.266-.941,4.261,4.261,0,0,0-.039-.829,2.716,2.716,0,0,0-.494.661c-1.006,2.943-4.237,3.483-6.409,1.543a3.9,3.9,0,0,1-1.161-1.8c-.049-.159-.232-.276-.353-.413a1.735,1.735,0,0,0-.182.517,3.414,3.414,0,0,0,.656,1.889c.937,1.473,2.033,2.59,4.007,2.5a4.111,4.111,0,0,0,3.708-3.134M524.233,28.961c0-.9.014-1.808-.014-2.712a.648.648,0,0,0-.3-.442c-.591-.34-1.2.2-1.353.827a5.985,5.985,0,0,0-.119,2.466,10.12,10.12,0,0,0,1.6,3.436c.039.066.142.1.215.142a.832.832,0,0,0,.082-.277c-.022-.3-.095-.6-.1-.9-.015-.811-.005-1.623-.005-2.546M550.1,30.4a8.182,8.182,0,0,0,.333-4.033c-.124-.66-.406-.951-.88-.907-.405.037-.661.459-.676,1.058-.028,1.074-.054,2.148-.115,3.22-.041.728-.152,1.451-.208,2.179a1.671,1.671,0,0,0,.122.5,1.878,1.878,0,0,0,.31-.3C549.342,31.574,549.689,31.015,550.1,30.4Z" transform="translate(-517.751 0)"/>
      <path id="Path_27741" data-name="Path 27741" d="M633.9,325.765c-.369-.184-.711-.34-1.052-.5s-.6-.381-.475-.8c.162-.535.591-.362.933-.282a6.374,6.374,0,0,1,1.11.391,8.46,8.46,0,0,0,4.212.641c1.125-.1,2.231-.4,3.35-.586a13.056,13.056,0,0,1,1.649-.156c.145-.005.3.162.444.251-.1.134-.172.345-.3.389a21.577,21.577,0,0,1-3.133.981,16.314,16.314,0,0,1-3.558.223A21.756,21.756,0,0,1,633.9,325.765Z" transform="translate(-619.623 -288.119)"/>
      <path id="Path_27742" data-name="Path 27742" d="M679.848,273.707c.121-.065.175-.154.253-.192.753-.367.985-.395.5-1.567a.97.97,0,0,1,0-.593c.12-.414.4-.472.669-.152a2.644,2.644,0,0,1,.658,2.146c-.045.271-.37.547-.633.719a5.788,5.788,0,0,1-1.29.618c-.145.05-.4-.106-.547-.231-.058-.049.005-.287.064-.416A.947.947,0,0,1,679.848,273.707Z" transform="translate(-661.489 -240.917)"/>
      <path id="Path_27743" data-name="Path 27743" d="M672.811,356.385c.9,0,1.753-.011,2.6.009a1.659,1.659,0,0,1,.506.191c-.123.149-.216.355-.374.437a5.81,5.81,0,0,1-2.949.339c-.154,0-.3-.308-.451-.474A6.934,6.934,0,0,1,672.811,356.385Z" transform="translate(-655.008 -316.824)"/>
      <path id="Path_27744" data-name="Path 27744" d="M622.654,235c.035.354.165.754.023.989-.264.436-.72.462-1.224.275-.407-.151-.413-.427-.374-.732C621.155,234.948,621.958,234.667,622.654,235Z" transform="translate(-609.596 -208.789)"/>
      <path id="Path_27745" data-name="Path 27745" d="M733.158,235.159a.752.752,0,0,1,.541-.949.767.767,0,0,1,1.005.47.611.611,0,0,1-.231.872c-.295.21-.628.356-.938-.013C733.429,235.413,733.3,235.3,733.158,235.159Z" transform="translate(-709.222 -208.169)"/>
    </g>
  </g>
</svg>
