<svg xmlns="http://www.w3.org/2000/svg" width="42.327" height="58.779" viewBox="0 0 42.327 58.779">
  <g id="Group_17673" data-name="Group 17673" transform="translate(-109.969 -819.169)" opacity="0.264">
    <g id="Group_22" data-name="Group 22" transform="translate(109.969 819.169)">
      <path id="Path_27737" data-name="Path 27737" d="M586.911,765.411a9.025,9.025,0,0,1,.27,4.065c-.037.2.019.421-.025.619a1.621,1.621,0,0,1-1.654,1.336c-1.237.056-2.474.122-3.712.123q-13.174.016-26.347.011c-1.467,0-2.935.062-4.4.124-1.534.064-3.072.113-4.6.263-1.183.116-1.575-.95-1.437-1.8.186-1.151.408-2.3.623-3.442a14.7,14.7,0,0,1,2.632-6.123,8.865,8.865,0,0,1,3.911-3.1c.255-.1.588-.47.579-.7a2.929,2.929,0,0,1,1.807-2.772,22.132,22.132,0,0,1,2.521-1.025c.307-.123.446-.224.12-.557a22.718,22.718,0,0,1-2.762-3.051,10.812,10.812,0,0,1-1.91-4.721,9,9,0,0,1-.223-1.776,1.952,1.952,0,0,0-.954-2.053,5.1,5.1,0,0,1-2.072-3.4,8.653,8.653,0,0,1-.136-3.731,2.531,2.531,0,0,1,2.249-2.04c.452-.035.406-.3.361-.6a20.6,20.6,0,0,1-.335-2.427,19.293,19.293,0,0,1,.874-5.214,12.23,12.23,0,0,1,4.18-6.166,14.537,14.537,0,0,1,6.339-3.155c1.554-.368,3.14-.611,4.715-.886.529-.093,1.005-.037,1.172.638a.638.638,0,0,0,.51.341,17.28,17.28,0,0,0,2.257-.3,1.262,1.262,0,0,1,1.369.354,1.037,1.037,0,0,0,1.078.377,4.82,4.82,0,0,1,4.569,1.914,16.416,16.416,0,0,1,2.939,5.926,13.958,13.958,0,0,1,.459,2.315c.135,1.613.212,3.233.251,4.851.014.569-.182,1.141-.218,1.716a.7.7,0,0,0,.3.542,3.106,3.106,0,0,1,1.714,2.669,10.5,10.5,0,0,1-.9,5.62,3.061,3.061,0,0,1-1.847,1.746c-1.023.312-1.247,1.041-1.439,1.966a16.566,16.566,0,0,1-2.156,5.815c-.548.839-1.065,1.7-1.654,2.51-.286.393-.178.481.214.518a6.663,6.663,0,0,1,3.01,1.069,2.214,2.214,0,0,1,.963,2.739c-.15.385-.082.478.24.623a12.936,12.936,0,0,1,5.213,4.728,9.617,9.617,0,0,1,1.344,3.515M573.547,739.06a24.852,24.852,0,0,1-3.306-.655c-1.671-.561-3.254-2.01-3.04-3.955.03-.271.143-.71-.379-.65-.46.053-1.067-.321-1.261.557a5.382,5.382,0,0,1-3.655,4.308,5.937,5.937,0,0,1-3.83.193,9.424,9.424,0,0,1-3.979-2.806,2.253,2.253,0,0,0-.321-.255,1.867,1.867,0,0,0-.112.421c-.014.48.035.965-.013,1.441a20.134,20.134,0,0,0-.132,4.863,14.85,14.85,0,0,0,2.009,6.008,11.1,11.1,0,0,0,3.315,3.691,35.289,35.289,0,0,0,4.023,2.243,8.135,8.135,0,0,0,2.875.741,13.923,13.923,0,0,0,3.163-.345,9.781,9.781,0,0,0,5.242-2.615,11.807,11.807,0,0,0,3.272-4.908c.446-1.455.749-2.956,1.078-4.445.2-.907.361-1.826.479-2.747a16.14,16.14,0,0,0,.141-2.321,14.44,14.44,0,0,0-.241-1.9,2.7,2.7,0,0,0-.173-.491,3.427,3.427,0,0,0-.32.35c-.088.126-.133.28-.214.412a4.975,4.975,0,0,1-2.7,2.361c-.593.189-1.2.338-1.923.506m-25.285,25.787c-.03.03-.078.055-.086.09-.392,1.594-.776,3.19-1.17,4.784-.176.71-.182.736.541.7,1.513-.065,3.024-.187,4.538-.239,1.989-.068,3.979-.123,5.969-.126q13.233-.02,26.466-.006a1.733,1.733,0,0,0,.681-.018c.227-.107.532-.335.554-.537a9.992,9.992,0,0,0,.017-1.962,10.684,10.684,0,0,0-1.386-4.563,9.731,9.731,0,0,0-4.847-4.367c-.373-.144-.72-.3-1.121.037a15.712,15.712,0,0,1-6.8,3.11c-.552.124-.784.329-.778.878q.02,1.881,0,3.763a2.723,2.723,0,0,1-.138.82.449.449,0,0,1-.4.077,1.493,1.493,0,0,1-.445-.682c-.1-.622-.1-1.259-.144-1.889-.042-.652-.055-1.307-.144-1.952-.025-.181-.273-.463-.427-.469-.5-.02-1.006.1-1.51.106-1.2.021-2.41.076-3.607-.011-.7-.051-1.212.192-1.212.853,0,1.171.026,2.342-.011,3.512a8.187,8.187,0,0,1-.25,1.65c-.13.536-.39.606-.648.13a4.291,4.291,0,0,1-.453-1.684c-.1-1.3-.129-2.6-.129-3.9,0-.506-.294-.664-.657-.8a4.665,4.665,0,0,0-.573-.131,13.548,13.548,0,0,1-6.072-3.067.732.732,0,0,0-.586-.146,5.675,5.675,0,0,0-2.678,1.685,11.433,11.433,0,0,0-2.5,4.352m8.345-33.065c.209,0,.419-.015.627,0,1.916.163,3.833.325,5.748.5.616.057,1.225.2,1.841.237a12.821,12.821,0,0,0,2.276-.007c1.155-.143,2.288-.5,3.443-.586,1.815-.131,3.642-.11,5.464-.147a12.4,12.4,0,0,1,1.628.013,4.946,4.946,0,0,1,1.167.352c.3.115.5.126.456-.277a13.361,13.361,0,0,0-.164-1.438,12.584,12.584,0,0,0-1.91-4.158c-.634-.984-1.377-1.9-2.071-2.844a.605.605,0,0,0-.889-.189,5.487,5.487,0,0,1-1.308.619,16.38,16.38,0,0,1-6.718.648c-1.158-.2-2.348-.252-3.485-.53a10.246,10.246,0,0,1-4.313-1.692c-.39-.32-.74-.18-1.032.2-.465.6-.945,1.2-1.416,1.8a11.5,11.5,0,0,0-2.663,7.233,2.866,2.866,0,0,0,.117.576,4.731,4.731,0,0,1,.482-.219,1.553,1.553,0,0,1,.464-.088c.71-.009,1.421,0,2.257,0m4.957,25.912c.073-.659.15-1.318.216-1.977a.333.333,0,0,0-.071-.253,4.272,4.272,0,0,0-2.636-1.322,6.393,6.393,0,0,0-4.173,1.7,1,1,0,0,0-.168,1.536,8.5,8.5,0,0,0,3.53,2.507c1.3.447,2.628.819,3.947,1.213a1.74,1.74,0,0,0,.463.01,2.5,2.5,0,0,0-.139-.426,6.2,6.2,0,0,1-.97-2.983m14.556.627c.719-.625,1.671-.941,2.161-1.88s.454-1.236-.591-1.564a19.441,19.441,0,0,0-2.373-.617,3.033,3.033,0,0,0-1.572.015c-.858.346-1.626.91-2.457,1.332-.414.211-.618.423-.448.906a1.932,1.932,0,0,1,.112.816,6.645,6.645,0,0,1-.911,2.692c-.071.12-.031.305-.042.46a1.754,1.754,0,0,0,.463-.023,30.123,30.123,0,0,0,5.658-2.138M556.482,736.3a5.458,5.458,0,0,0,4.4,1.38,3.506,3.506,0,0,0,2.821-2.252,4.343,4.343,0,0,1,.543-1.208c.522-.61-.112-.632-.344-.661-1.341-.167-2.688-.309-4.037-.386-1.5-.086-3.012-.1-4.518-.133-.726-.016-.812.158-.6.9a4.143,4.143,0,0,0,1.743,2.362m13.678.5a6.835,6.835,0,0,0,3.319.763,3.689,3.689,0,0,0,3.647-2.7,3.971,3.971,0,0,1,.411-1.263c.5-.678-.024-.567-.373-.559-1.11.024-2.219.068-3.328.121-1.531.074-3.06.169-4.591.246a.764.764,0,0,0-.752.973,3.519,3.519,0,0,0,1.668,2.418m-1.443,22.273a13.461,13.461,0,0,0,.464-1.991c.02-.214-.435-.692-.634-.672a13.749,13.749,0,0,1-4.553-.157c-.808-.187-1.07.3-.909.9.28,1.047.631,2.077,1,3.1a1.413,1.413,0,0,0,1.654,1.14,8.833,8.833,0,0,0,1.315-.017,1.154,1.154,0,0,0,.766-.4c.337-.582.566-1.225.9-1.907m12.8-25.724c-.372.314-.748.623-1.113.944-.143.125-.372.277-.373.418a3.552,3.552,0,0,0,.148,1.68,3.572,3.572,0,0,1,.333,1.875c.01.481.017.962,0,1.442-.015.339-.108.677-.1,1.014,0,.1.3.3.34.271a3.392,3.392,0,0,0,1.4-1.719,9.547,9.547,0,0,0,.483-4.516c-.16-.919-.3-1.428-1.114-1.41M550.27,734.48a21.209,21.209,0,0,0,.139,2.14,5.2,5.2,0,0,0,1.368,3,3.754,3.754,0,0,0,.353.276,1.975,1.975,0,0,0,.142-.5c.012-1.358.019-2.717,0-4.075a12.751,12.751,0,0,0-.14-1.888.976.976,0,0,0-.485-.619.674.674,0,0,0-.63.2C550.74,733.449,550.554,733.944,550.27,734.48Z" transform="translate(-544.979 -713.182)"/>
      <path id="Path_27749" data-name="Path 27749" d="M672.547,973.789c1.263-.376,2.463-.756,3.666-1.126a1.43,1.43,0,0,1,.633-.112.856.856,0,0,1,.567.34.613.613,0,0,1-.222.558,28.069,28.069,0,0,1-2.7,1.331,8.175,8.175,0,0,1-3.657.379,11.4,11.4,0,0,1-5.2-1.339,4.3,4.3,0,0,1-1-.889.575.575,0,0,1,.03-.565.755.755,0,0,1,.621-.231c.6.212,1.154.538,1.746.77A13.1,13.1,0,0,0,672.547,973.789Z" transform="translate(-649.563 -939.629)"/>
      <path id="Path_27750" data-name="Path 27750" d="M703.626,919.3c-.241-.557-.091-.8.476-.847.484-.042.971-.07,1.453-.13s.684-.284.458-.785c-.175-.386-.3-.8-.449-1.194-.161-.43-.233-.919.236-1.127.41-.181.778.075.936.539a9.409,9.409,0,0,1,.6,1.752c.138,1.088-.072,1.705-1.413,2.023A2.934,2.934,0,0,1,703.626,919.3Z" transform="translate(-683.622 -889.815)"/>
      <path id="Path_27751" data-name="Path 27751" d="M701.063,1006.974c-.669,0-1.276.015-1.881-.008a1.122,1.122,0,0,1-.606-.183.662.662,0,0,1-.249-.5c.016-.143.24-.376.37-.374.869.009,1.739.047,2.6.136.146.015.4.391.361.482C701.57,1006.717,701.314,1006.829,701.063,1006.974Z" transform="translate(-679.083 -969.175)"/>
      <path id="Path_27752" data-name="Path 27752" d="M654.805,884.376a18.858,18.858,0,0,1-2.1.134c-.129,0-.365-.309-.355-.463a.838.838,0,0,1,.334-.624,2.678,2.678,0,0,1,2.116.165C655.177,883.719,655.211,884.072,654.805,884.376Z" transform="translate(-638.879 -861.917)"/>
      <path id="Path_27753" data-name="Path 27753" d="M761.267,883.405c.333.5.245.824-.257.9a7.775,7.775,0,0,1-1.754.109c-.272-.022-.746-.349-.734-.508a.639.639,0,0,1,.744-.6C759.919,883.362,760.578,883.353,761.267,883.405Z" transform="translate(-731.726 -861.95)"/>
    </g>
  </g>
</svg>
