<svg xmlns="http://www.w3.org/2000/svg" width="1342.296" height="520.294" viewBox="0 0 1342.296 520.294">
  <g id="Group_17718" data-name="Group 17718" transform="translate(-268 -439)">
    <g id="Integrator_Icons" data-name="Integrator Icons" transform="translate(268 498.023)">
      <path id="Path_28197" data-name="Path 28197" d="M1991.9,531.56c-13.7.28-27.128.28-40.552.28a31.923,31.923,0,0,1-3.354-.018c-4.307-.457-4.815-1.268-5.092-5.434-.324-4.881,1.3-9.915-1.066-14.642,2.453-6.059.45-12.389,1.131-18.553.461-4.173-.876-8.239-.171-12.525.717-4.357.158-8.923.158-13.4s.017-8.949-.005-13.424c-.018-3.612-2.669-5.571-6.225-4.737a25.791,25.791,0,0,1-5.716,1.017q-67.679.086-135.359.044c-1.119,0-2.242.064-3.355-.012-2.906-.2-3.8,1.233-3.763,3.984.109,7.643.038,15.288.038,22.932,0,3.729.121,7.464-.074,11.183-.058,1.107-1.005,2.167-1.545,3.248a12.319,12.319,0,0,1-2.677-1.49c-8.057-7.606-16.047-15.285-24.087-22.909-6.147-5.828-12.356-11.592-18.5-17.42-1.212-1.149-.772-2.612.861-2.836a28.907,28.907,0,0,1,3.91-.035c11.746,0,23.492.022,35.238-.011,4.5-.013,4.625-.139,4.631-4.721q.036-29.924,0-59.849c-.006-4.738-.064-4.773-5.141-4.775q-52.577-.016-105.155-.026a27.946,27.946,0,0,1-4.829-.5,1.666,1.666,0,0,1-1.11-1.144c-.023-.37.617-1,1.079-1.138a10.851,10.851,0,0,1,3.132-.531q54.535-.038,109.07,0c4.589.005,5.2.74,5.2,5.267.009,20.7.072,41.391-.054,62.086-.025,4.077.181,5.417,5.208,5.406q72.154-.158,144.308-.071c4.877,0,4.9-.052,4.922-5,.025-5.966-.005-11.932.01-17.9.011-4.08.756-4.949,4.864-5.038,5.218-.113,10.442.047,15.661-.04,20.355-.341,40.724-1.36,61.058-.874,12.518.3,25.044.82,37.577.875,2.95.013,5.019.935,5.356,4.237.085.84.718,1.637.748,2.466.419,11.59,1.713,23.246.927,34.758-1.129,16.526-.172,33.041-1.1,49.513-.315,5.616-.829,11.241-.976,16.886-.016.607-.959,1.763-1.26,1.7-2.337-.513-4.469.822-6.966.286a18.377,18.377,0,0,0-8.509.686c-3.647.99-7.766.237-11.682.237-2.424,0-4.853.1-7.27-.03-2.122-.113-4.249.17-6.343.205-10.962.183-21.913.943-33.149,1.782m74.116-65.166c-.457-13.453.968-26.944-1.028-40.378-.4-2.712-1.171-3.785-3.958-3.867-6.562-.192-13.092-.108-19.7-.817a242.2,242.2,0,0,0-35.3-1.133c-6.729.266-13.478.86-20.239.88-8.389.025-16.779.006-25.168.006-3.542,0-7.085.042-10.626-.017-1.8-.03-3.359.261-3.671,2.346-.45,3-.926,6.018-1.1,9.044-.188,3.345-.862,6.992.174,9.99,1.167,3.373-.911,6.079-.355,9.24.605,3.436.137,7.06.137,10.6s-.246,7.107.072,10.62c.3,3.264-.181,6.471-.094,9.707.1,3.54,0,7.084.026,10.626.084,11.041-.537,22.1,1.1,33.1.156,1.048-.288,2.119,1.552,2.2,5.631.235,11.25.959,16.877.987,4.691.024,9.379-.8,14.079-1,4.28-.184,8.574-.039,12.862-.039,4.1,0,8.209.145,12.3-.042,3.833-.176,7.644-.859,11.477-1.034,4.093-.187,8.2-.131,12.3-.016,3.8.106,7.584-.157,11.379-.143,7.3.028,14.6-.734,21.909-.948,2.787-.082,3.85-1.082,3.9-3.88.287-14.575.725-29.147,1.066-43.721.087-3.727.013-7.457.013-12.3m-279.683,16.781c0-9.509.023-19.018-.011-28.527-.015-4.009-.419-4.444-4.327-4.461q-15.1-.065-30.205,0c-1.823.005-3.647.186-5.47.285q1.88,1.582,3.76,3.166c.142.12.263.264.4.394q15.193,14.635,30.385,29.271a36.4,36.4,0,0,0,2.8,2.731,8.568,8.568,0,0,0,2.278.894C1786.065,486.049,1786.2,485.171,1786.329,483.175Z" transform="translate(-735.894 -164.839)" fill="#b1b1b1"/>
      <path id="Path_28198" data-name="Path 28198" d="M411.638,337.892c11.559,0,22.559-.067,33.557.059,2.076.024,4.321-.9,6.348.952.6.549,2.774.245,3.55-.438,1.981-1.743,2.784,1.162,4.3.786.038-.009.408.679.311.911-.173.415-.563,1.012-.9,1.037-1.483.113-2.979.049-4.471.049H132.184c-5.823,0-5.823,0-5.823,5.69,0,12.3.108,24.61-.1,36.911-.038,2.312,1.059,4.437.254,6.955-.7,2.182-1.479,3.152-3.66,3.025-.186-.011-.373,0-.559,0q-27.733.559-55.465,1.114a134.239,134.239,0,0,0-14.854.933c-4.2.549-8.609-.764-12.936-.881-6.707-.182-13.426.095-20.132-.093-5.445-.152-10.882-.659-16.311-1.139-.554-.049-1.231-.915-1.483-1.548A6.369,6.369,0,0,1,1.063,390c0-2.8.033-5.593-.005-8.389C.693,354.734.254,327.857,0,300.978A76.364,76.364,0,0,1,1.228,286.93c.261-1.465,2.338-2.8,3.856-3.766.8-.507,2.18-.089,3.3-.089,3.169,0,6.343.107,9.507-.031,3.062-.133,6.112-.729,9.168-.732,2.974,0,6,.995,8.913.682,21.638-2.324,43.326-.541,64.983-.956,7.479-.143,14.978.635,22.463,1.089a2.318,2.318,0,0,1,1.752,1.263,55.876,55.876,0,0,1,1.141,9.032c.12,12.862.051,25.727.051,38.59,0,5.881,0,5.881,5.633,5.881H411.638m-287.515,3.916c0-3.352.761-6.945-.2-9.994-1.1-3.5.495-6.49.3-9.758-.636-10.632-.866-21.288-1.206-31.937-.118-3.7-1.07-4.678-5.127-4.8-15.487-.474-30.986.747-46.488-.952-6.127-.672-12.461.828-18.705.9-14.525.16-29.053.038-43.579.06-3.764.006-5.268,1.245-5.792,4.756a18.848,18.848,0,0,0-.021,3.348c.635,19.955-1.126,39.935.975,59.893A64.764,64.764,0,0,1,3.532,370.2c-1.009,6.358-.2,13-.258,19.518-.013,1.4.317,1.916,1.83,1.911,9.357-.029,18.712.646,28.036.834,15.652.315,31.325.738,47.044-.626,13.786-1.2,27.754,0,41.618-1.273,2.055-.188,2.378-.714,2.362-2.555-.084-10.243.279-20.5-.2-30.722-.187-3.978,1.456-8.182-.876-12.076C122.844,344.8,123.75,343.7,124.123,341.808Z" transform="translate(0 -124.158)" fill="#b1b1b1"/>
      <path id="Path_28199" data-name="Path 28199" d="M544.272,474.331c-9.506,0-18.455-.142-27.4.045-7.119.149-14.286,1.441-21.332.91-12.343-.93-24.672-1.058-37.012-.912-17.181.2-34.359.721-51.539,1.047-1.665.032-2.672-.054-2.632,2.27.168,9.689.1,19.383.042,29.075-.009,1.535.136,2.511,2.028,2.272a26.982,26.982,0,0,1,3.352-.025q29.635,0,59.27.01c4.539.005,5.57,1.319,5.894,5.831,2.412,33.562.474,67.167,1.028,100.747.053,3.193-1.341,6.51-.827,9.561a13.647,13.647,0,0,1-.187,5.273c-.384,1.949-1.344,2.846-3.3,2.763-.744-.031-1.491-.005-2.236-.005-25.162,0-50.334.4-75.48-.233-8.023-.2-16.089-.7-24.144-.918-4.165-.115-4.991-1.943-4.652-6.132.319-3.945-.394-7.974-.667-11.965-.086-1.261-.3-2.518-.312-3.778-.039-4.473.08-8.949-.033-13.419-.321-12.707.04-25.494-1.3-38.1-1.519-14.238-.384-28.42-.879-42.614-.159-4.553,1.284-5.714,5.759-5.937,4.7-.234,9.379-.871,14.078-1.026a32.235,32.235,0,0,1,7.979.8c3.334.725,7.1-.4,10.641-.985.372-.062.629-1.9.634-2.913.049-8.946.028-17.893.028-26.839,0-.932-.022-1.864,0-2.8.106-3.736.464-4.114,4.006-4.238.745-.026,1.491,0,2.236,0q103.444,0,206.887.017a30.434,30.434,0,0,1,4.857.437c.448.073.8.742,1.194,1.137a4.819,4.819,0,0,1-1.239.627,44.117,44.117,0,0,1-6.994,1.087c-8.945.127-18,.916-26.814-.15-13.488-1.631-26.934-.32-40.939-.917m-163.895,155.5a246.179,246.179,0,0,1,28.246,1.062,75.5,75.5,0,0,0,10.615.024c3.172-.13,6.332-.778,9.5-.77,3.422.009,6.84.689,10.265.746,2.583.043,5.179-.676,7.763-.635,7.541.118,15.078.44,22.617.7,2.291.078,3.3-.986,3.31-3.284.038-9.362.584-18.715.872-28.056.5-16.22.842-32.492-.761-48.74-.746-7.567-.128-15.269-.128-22.909,0-2.982.009-5.963,0-8.945-.025-6.955-2.439-9.387-8.9-7.579a32.818,32.818,0,0,1-9.1.883q-41.371.105-82.742.041c-1.3,0-2.751-.353-3.873.1a5.721,5.721,0,0,0-2.693,2.656c-.441.9-.094,2.192-.09,3.31.078,19.977-.1,39.948,1.02,59.921.867,15.472.845,30.993,1.216,46.493.009.372-.156.882.028,1.095.84.97,1.646,2.42,2.7,2.665A76.565,76.565,0,0,0,380.378,629.835Z" transform="translate(-159.484 -208.016)" fill="#b1b1b1"/>
      <path id="Path_28200" data-name="Path 28200" d="M484.3,51.518c0,27.966.056,55.372-.05,82.778-.02,5.067-.7,10.131-1.061,15.2a19.24,19.24,0,0,0,0,2.237c.187,4.07,1.042,4.943,4.979,4.944,31.135.008,62.27-.034,93.4.1,1.81.008,4.385-1.686,5.654,1.286a38.911,38.911,0,0,1-5.629.815c-28.338.053-56.677.012-85.015.086a16.862,16.862,0,0,0-6.35.8c-2.151.815-5.186-.413-7.731-1.113-.7-.194-1.295-1.657-1.492-2.628a19.917,19.917,0,0,1-.062-3.9V58.159c0-1.305.074-2.615-.017-3.914-.14-1.989-1.48-3.23-3.243-2.636-2.972,1-5.708-.582-8.624-.18s-5.954.089-8.937.089H422.644a31.783,31.783,0,0,0-3.912.026c-3.581.447-4.868,1.963-4.91,5.648-.034,2.983.061,5.968-.019,8.949q-.518,19.345-1.123,38.688c-.142,4.386-2.609,7.039-6.924,7.063-16.965.093-33.955.554-50.885-.228-6.355-.293-12.746-.665-19.126-.8-1.717-.035-3.44.665-5.175.939-.9.142-2.25.5-2.681.056-2.344-2.4-5.116-.27-7.665-.9-2.633-.656-5.557-.146-8.353-.146-2.983,0-6.064-.463-8.919.141-2.445.517-4.61.144-6.94-.076-2.439-.23-2.99-1.446-3.053-3.612-.3-10.474-1.641-21.012-.9-31.4,1.677-23.535.417-47.062.938-70.583.082-3.712.389-4.021,4.146-4.094,20.167-.39,40.333-.871,60.5-1.09,16.591-.18,33.185-.046,49.778-.031,5.254,0,6.378,1.141,6.385,6.429.016,12.491.113,24.984-.055,37.473-.056,4.2.324,5.42,5.236,5.382,19.948-.156,39.9-.069,59.846-.058,1.976,0,4.151-.555,5.458,2.231M407.663,2.294c-21.451.643-42.908-.871-64.382.955-14.49,1.232-29.112.91-43.675,1.282-3.9.1-4.362.487-4.364,4.432q-.031,47.506,0,95.011c0,4.444.158,4.58,4.756,4.59,13.413.028,26.833-.249,40.238.083,13.259.329,26.534-1.144,39.811.828a73.861,73.861,0,0,0,10.218.354c3.419.01,6.78-.8,10.272-.267,2.159.332,4.59-.386,6.746-1.1a3.934,3.934,0,0,0,1.981-2.773,95.232,95.232,0,0,0,1.15-11.822c.206-10.659.23-21.3,1-31.963.772-10.75.17-21.6.17-32.4,0-1.3.366-2.745-.061-3.889-2.282-6.105-1.017-12.417-.8-18.552C410.817,4.335,410.214,3.588,407.663,2.294Z" transform="translate(-128.595 0)" fill="#b1b1b1"/>
      <path id="Path_28201" data-name="Path 28201" d="M1795.574,126.591c-40.06,0-79.56.012-119.06-.033-2.088,0-5.784.944-5.76-1.482.029-2.982,3.734-1.79,5.868-1.793q67.915-.094,135.829-.047a22.168,22.168,0,0,0,3.9-.069,2.266,2.266,0,0,0,1.533-1.473c.474-6.359.582-12.755,1.3-19.082.262-2.294-2.2-3.738-.676-6.613,1.432-2.693,2.632-4.117,5.576-4.1,4.658.033,9.316.009,13.974.009,7.639,0,15.345-.636,22.9.156,10.111,1.061,20.194.829,30.3.975,3.046.044,6.07-.348,9.14-.074,3.143.28,6.329.062,9.5.062,3.354,0,6.751.342,10.052-.076,5.559-.7,7.708,1.408,7.664,8.062-.092,13.974-.212,27.952.049,41.921.132,7.089-1.251,14.269.9,21.278-2.151,7.237-.63,14.639-.913,21.958-.28,7.256-.061,14.531-.061,21.8a23.217,23.217,0,0,0,.033,3.907c.792,4.574-.355,6.208-4.823,6.445-7.484.4-15.043.219-22.438,1.238-14.566,2.009-29.179,1.229-43.7.734q-15.977-.545-31.966-.868a4.287,4.287,0,0,1-4.439-4.379c.1-3.054-1.033-5.931-.275-9.186.646-2.776-.845-5.976-.858-8.99-.093-21.613-.044-43.227-.054-64.84,0-5.419-.027-5.427-5.6-5.437-5.776-.01-11.552,0-17.888,0m129.773-7.272c0-3.542.146-7.091-.04-10.623-.189-3.583-.644-7.158-1.139-10.714-.082-.589-.95-1.513-1.477-1.529-6.383-.188-12.783-.852-19.111-.974-26.273-.507-52.562-.149-78.843-.3-3.093-.018-3.553.983-3.483,3.694.441,16.993.059,33.977.929,50.995,1.026,20.079.219,40.251.255,60.382.01,5.711,1.322,6.954,6.97,6.956,23.114,0,46.228.088,69.341-.049,7.117-.042,14.232-.68,21.345-1.09.668-.038,1.307-.541,1.976-.589,3.014-.217,4.155-1.956,3.194-4.594-.691-1.9-.293-3.428-.056-5.273a66.086,66.086,0,0,0,.089-11.164c-.065-1.536-1.511-3.668-.914-4.455,1.745-2.3.9-4.661.909-6.923C1925.386,162.192,1925.347,141.315,1925.347,119.319Z" transform="translate(-736.189 -40.392)" fill="#b1b1b1"/>
      <path id="Path_28202" data-name="Path 28202" d="M2251.078,570.774c-5.411.146-10.091-.142-14.724-2.159-9.094-3.958-16.3-10.041-18.548-19.684a30.9,30.9,0,0,1,3.156-21.91,8.925,8.925,0,0,1,4.362-3.554c.951-.375,2.613.666,3.8,1.344,3.5,2,7.257,3.566,10.11,6.63,1.712,1.839,2.69,3.2.513,5.49-1.547,1.626-.877,4.4.953,5.865q4.589,3.683,9.257,7.267c2.117,1.635,2.926,1.445,4.264-.89,1.232-2.149,3.119-2.67,4.9-1.075,4.773,4.266,9.507,8.581,14.121,13.017,2.1,2.022,1.791,4.272-.607,5.15-6.778,2.482-13.489,5.391-21.558,4.508m-29.087-34.121a27.928,27.928,0,0,0-1.072,5.126c-.252,10.964,7.346,20.872,18.248,24.587,4.694,1.6,9.406.622,14.085,1.083s8.635-1.454,12.563-3.427c2.688-1.35,2.928-2.967.772-5.076-2.188-2.14-4.765-3.88-6.971-6-1.337-1.286-2.1-1.447-3.573-.094-3.357,3.077-4.133,2.973-7.655.133-.976-.787-1.969-1.553-2.939-2.347a117.643,117.643,0,0,1-9.081-7.625c-1.068-1.071-3.2-2.437-1.343-4.954,2.788-3.779,2.593-3.879-1.442-6.618-1.618-1.1-3.069-2.442-4.7-3.521-2.4-1.588-4.295-1.056-5.276,1.579A38.9,38.9,0,0,0,2221.991,536.653Z" transform="translate(-976.896 -230.623)" fill="#b1b1b1"/>
      <path id="Path_28203" data-name="Path 28203" d="M2277.975,511.341c-2.665.421-4.67-1.834-6.968-.124-.414.308-2.03-1-3.091-1.563.884-.556,1.718-1.484,2.66-1.612,10.01-1.355,21.36,4.049,24.43,15.4.787,2.907.637,6.073.828,9.126a1.387,1.387,0,0,1-.814,1.087,1.567,1.567,0,0,1-1.365-.549c-.5-1.089-1.229-2.35-1.059-3.416.876-5.494-2.017-9.8-5.067-13.465C2285.5,513.785,2281.6,512.913,2277.975,511.341Z" transform="translate(-999.319 -223.77)" fill="#b1b1b1"/>
      <path id="Path_28204" data-name="Path 28204" d="M2281.6,533.458c3.036,2.938,5.931,5.53,5.3,9.937a8.464,8.464,0,0,1-.489,1.472,5.939,5.939,0,0,1-1.167-1.082c-1.1-1.772-2.094-3.61-3.189-5.385-2.781-4.511-6.654-7.093-12.143-6.952-.663.017-1.345-.684-2.018-1.053.7-.75,1.337-2.081,2.1-2.152,3.464-.324,6.485,1.2,9.334,2.984A16.182,16.182,0,0,1,2281.6,533.458Z" transform="translate(-999.311 -232.742)" fill="#b1b1b1"/>
      <path id="Path_28205" data-name="Path 28205" d="M112.547,344.755c1.025,1.833,1.731,3.408,2.524,4.937,3.347,6.455,3.257,13.254,1,19.811-2.554,7.433-8.509,11.455-16.066,12.961a42.116,42.116,0,0,1-10.139,1.057c-4.032-.2-8.008-1.376-12.042-1.806a14.4,14.4,0,0,0-5.631.67c-3.116.968-6.075,2.443-9.192,3.407-1.1.341-2.959.244-3.583-.451-.609-.678-.518-2.62.024-3.578a47.786,47.786,0,0,1,5.094-7.384c2.738-3.224,2.815-3.074-.246-6.3-3.55-3.745-6.371-7.857-7.563-13.074-3.268-14.3.417-21.42,13.407-25.921,8.965-3.106,18.645-2.376,27.694,1.916,6.316,3,10.5,8.05,14.714,13.756m-37.757-8.67c-2.61,2.614-6.284,4.778-7.62,7.931-3.241,7.65-1.151,15.568,2.586,22.387,1.677,3.061,1.395,4.716.07,7.061-.69,1.221-1.638,2.3-2.319,3.52a5.436,5.436,0,0,0-.27,1.89c.636-.076,1.54.092,1.866-.266,2.054-2.259,4.336-2.021,6.9-1.074a25.183,25.183,0,0,0,12.18,1.558,31.13,31.13,0,0,0,9.1-2.278c4.746-2.257,9.431-4.5,11.231-10.509,2.66-8.885.1-16.639-4.8-23.434-6.9-9.574-18.471-9.89-28.919-6.787m-6.153.559c2.425-1.306,4.863-2.589,7.262-3.939a5.115,5.115,0,0,0,1.065-1.158c-.488-.165-1.017-.542-1.455-.456a20.241,20.241,0,0,0-3.984,1.1c-7.99,3.376-13.494,8.16-12.306,17.616.4,3.188,1.8,6.268,2.9,9.341.29.81,1.449,2.109,1.722,2,2-.824-.78-1.233-.323-2.291a4.773,4.773,0,0,0,.034-3.28c-2.748-7.209-.11-13.02,5.085-18.929m43.071,28.528c-.056,3.388-1.9,5.936-3.923,8.412-.5.616-.911,1.308-1.363,1.965a8.857,8.857,0,0,0,2.661-1.105c4.216-3.778,5.537-8.89,5.883-14.23.116-1.8-.829-3.693-1.465-5.481-.164-.462-1-.685-1.522-1.018-.05.5-.322,1.137-.115,1.49C113.674,358.288,112.957,361.444,111.708,365.172Z" transform="translate(-24.503 -144.165)" fill="#b1b1b1"/>
      <path id="Path_28206" data-name="Path 28206" d="M432.022,590.1c4.415.774,5.544,1.8,5.573,4.978.052,5.741.266,11.474-2.132,16.974a11,11,0,0,0-.751,6.27c.258,1.231,2.376,2.995,3.587,2.939,4.5-.207,8.973.878,13.571-.757,2.973-1.057,6.633-.308,9.976-.162,2.425.106,3.043,1.957,2.576,3.9-2.022,8.43-4.02,16.938-9.491,23.955a16.516,16.516,0,0,1-9.2,6.017c-3.3.82-6.177,3.246-9.988.9-1.808-1.114-4.485-1.324-6.709-1.157-5.544.415-9.15-3.188-13.3-5.738a7.134,7.134,0,0,0-2.3-1.155c-5.135-.885-6.7-5.285-8.909-8.994a41.009,41.009,0,0,1-3.761-7.365,24.6,24.6,0,0,1,.019-17.441c4.672-11.647,14.14-18.072,25.574-22.018a35.464,35.464,0,0,1,5.669-1.145m-15.1,8.95c-7.9,3.162-11.07,10.164-13.936,17.339a26.166,26.166,0,0,0-1.136,5.628,4.085,4.085,0,0,0,.375,1.492,7.672,7.672,0,0,0,1.533-1.291c.275-.385.2-1.014.3-1.531,1.236-6.345,3.841-11.937,8.691-16.4,1.724-1.586,3.163-3.484,5.291-5.239l.082-1.037a2.277,2.277,0,0,1-1.2,1.037m-5.034,10.628c-1.492,3.474-3.16,6.885-4.436,10.436-2.31,6.428-2.063,12.634,2.712,18a94.339,94.339,0,0,0,7.423,7.428c5.955,5.346,13.677,6.415,21.015,6.965,7.289.545,15.723-7.265,18.019-14.812,1.259-4.139,2.024-8.463,3.664-12.434.743-1.8.432-1.659-.911-1.589-6.914.361-13.824.884-20.742,1.071-6.286.169-8.909-3.756-7.288-9.961a101.135,101.135,0,0,0,2.835-13.874c.676-5.863.284-6.2-5.131-4.011C422.543,599.525,415.983,602.347,411.884,609.678Z" transform="translate(-175.888 -260.018)" fill="#b1b1b1"/>
      <path id="Path_28207" data-name="Path 28207" d="M498.19,608.868a8.248,8.248,0,0,1,.29,1.955c.8,5.591.811,5.593-4.992,5.6-5.588,0-11.181-.146-16.761.066-2.562.1-3.06-.892-2.9-3.115.387-5.246-.609-10.539,1.062-15.766.927-2.9,2.4-3.8,5.305-3.6,7.659.521,15.484,6.855,17.99,14.867m-21.536.839c.571-2.25,1.319-4.375,3.535-5.6.9-.5,1.747-1.109,2.618-1.668-1.026-.187-2.044-.442-3.078-.546-2.466-.247-3.747.826-3.643,3.4a15.233,15.233,0,0,0,.568,4.419m13.984-1.678c0,.372-.149.964.024,1.081,1.368.926,4.424.133,3.447,3.465a2.7,2.7,0,0,0,1.383.421,1.393,1.393,0,0,0,.691-1.2,11.989,11.989,0,0,0-1.752-4.234c-.461-.549-2.118-.1-3.792.464m0-6.712c-.837-.186-1.921-.791-2.459-.473a17.979,17.979,0,0,0-3.033,2.812,17.708,17.708,0,0,1,3.186-.612,10.442,10.442,0,0,1,2.451.645c.713.174.72.145-.145-2.373m-7.272-1.678a5.74,5.74,0,0,0,1.626-.877c.144-.148-.245-1.242-.511-1.294-1.634-.322-3.086-.038-3.715,1.808a13.4,13.4,0,0,0,2.6.363m1.119,12.306-1.532,1.825c.287.138.767.453.83.385a2.429,2.429,0,0,0,.7-2.209m-7.831,1.119-.448.671C476.542,613.7,476.878,613.66,476.654,613.064Z" transform="translate(-208.774 -261.725)" fill="#b1b1b1"/>
      <path id="Path_28208" data-name="Path 28208" d="M382.309,100.143c-3.947-.255-7.017-.107-9.393,3.093-1.528,2.057-4.234,1.852-6.727.264a3.77,3.77,0,0,1-1.479-5.216c1.838-3.415-1.386-5.008-2.439-7.249-.316-.674-3.173-.559-4.711-.18-4.67,1.151-7.818-.91-7.736-5.188.037-1.947.67-3.119,2.63-3.416.364-.055.885.152,1.094-.033,1.787-1.579,4.454-2.944,5.037-4.913.768-2.594-2.477-3.371-4.307-4.677-1.549-1.1-3.887-2.231-4.185-3.692-.415-2.036.413-4.543,1.327-6.57.894-1.983,3.007-1.476,4.844-1.169,1.247.209,3,.694,3.714.093,1.427-1.2,3.564-2.139,3.344-4.7-.159-1.849-.053-3.722-.026-5.584.049-3.435,2.39-6.584,5.549-6.665,1.332-.034,2.844,1.258,4.01,2.256.889.761,1.221,2.146,2.059,3s.329,2.8,2.794,2.617c2.012-.147,2.4-1.084,2.874-2.386,1.3-3.581,3.823-4.53,7.543-4.651,3.818-.124,4.659,1.9,4.214,5.256a7.942,7.942,0,0,1-1.083,2.333,4.017,4.017,0,0,0,.651,4.953c1.377,1.507,2.5,1.1,4.264.187,4.767-2.459,7-1.709,10.691,2.424,1.783,2,1.857,3.841,0,5.736-1.931,1.974-3.9,3.914-5.854,5.861-1.2,1.188-1.355,1.61.568,2.589,5.689,2.9,6.1,4.078,5.342,10.308q-.492,4.057-4.915,3.13a4.974,4.974,0,0,0-6.263,4.7A26.1,26.1,0,0,0,395.748,96c.237,2.982-.407,5.3-3.645,6.411-4.631,1.584-4.59,1.673-8.144-2.247-.168-.185-.719-.024-1.65-.024m19.018-33a10.583,10.583,0,0,0,1.555-1.6c.62-.971,1.762-2.645,1.479-2.969a7.287,7.287,0,0,0-3.851-2.562c-1.39-.211-2.935.871-4.455,1.169-1.237.243-2.709.594-3.78.161-4.986-2.014-5.276-4.189-3.439-9.92.227-.709,2.13-1.509.535-3.119-1.772-1.789-2.671.042-3.7.483A4.164,4.164,0,0,0,383.52,51.4c-.39,1.944-1.453,2.327-3.142,3.038-2.205.928-3.9-.492-5.86-.338-.677.053-1.611-1.875-2.261-3-2.427-4.183-3.992-4.581-6.062-1.3-.369.585.22,1.751.31,2.654.322,3.256.574,6.533-2.1,9.066-2.214,2.1-3.871,5.689-8.037,2.936-.491-.324-2.632.764-2.98,1.616s.35,2.451,1.085,3.29,2.131,1.072,3.155,1.7c2.145,1.32,5.072,2.7,4.364,5.522-.653,2.6-.886,6.024-4.844,6.946-1.516.353-2.63,2.433-3.927,3.726,1.883-.014,3.766-.02,5.648-.06.134,0,.256-.352.4-.362,2.143-.153,3.776-.343,5.335,2.258,1.914,3.195,3.606,6.077,3.216,9.905-.073.717.358,1.969.849,2.142a3.449,3.449,0,0,0,2.476-.541,12.869,12.869,0,0,0,2.005-1.926c2.787-2.614,10.634-2.714,13.635-.267.643.524,1.859,1.219,2.292.962a9.143,9.143,0,0,0,3.209-2.988c.489-.83.085-2.18.095-3.3a8.449,8.449,0,0,1,7.746-8.611c3.291-.38,4.226-1.279,3.31-4.11-.359-1.11-2.284-1.635-3.293-2.632-1.21-1.2-3.384-3.284-3.082-3.817C398.239,71.845,396.82,68.04,401.327,67.141Z" transform="translate(-154.143 -19.538)" fill="#b1b1b1"/>
      <path id="Path_28209" data-name="Path 28209" d="M2040.109,205.769c1.921,1.882-.167,3.306-.488,3.2-3.483-1.142-6.531,1.839-10.384.442-3.091-1.121-7.1.3-10.709.6a18.364,18.364,0,0,0-3.247.269c-2.7.724-5.084-1.524-8.11-.234-2.365,1.008-5.513.347-8.295.159-2.468-.167-4.963-1.217-7.354-.974-5.871.6-11.691-.62-17.526-.083-1.69.156-2.228-.415-2.17-2.13.125-3.722-.073-7.456.107-11.173.054-1.121.717-2.971,1.451-3.166,2.9-.768,6.02-1.632,8.893-1.242,2.088.284,4.8,1.559,4.218,5.167a46.135,46.135,0,0,0-.059,8.369c.015.63-2.533,1.691.156,1.838,1.088.059,3.254,1.253,3.177-1.542-.031-1.117-.005-2.235-.005-3.353v-28.5c0-.559,0-1.118,0-1.677.044-5.209,1.471-6.877,6.455-7a17.637,17.637,0,0,1,5.963.873,3.673,3.673,0,0,1,2.033,2.7c.155,8.753.634,17.562-.181,26.241-.316,3.364-.481,6.8-.859,10.18-.183,1.644.345,2.185,2.089,2.237,1.987.059,2.5-.5,2.45-2.477-.148-5.4.023-10.806-.081-16.206-.055-2.857,1.169-3.952,3.957-3.794,2.414.137,4.843.065,7.264.018,2.24-.044,3.438.878,3.362,3.231a42.714,42.714,0,0,0,.008,4.47c.326,4.506.694,9.011,1.158,13.5.044.435.869.789,1.332,1.18.283-.385.851-.811.8-1.149-.275-1.909-.914-3.783-1.035-5.694a96.832,96.832,0,0,1,2.3-27.552c.234-1.037,1.711-2.01,2.83-2.591a6.273,6.273,0,0,1,9.386,5.4c.333,7.113.343,14.276,1.293,21.309.406,3.008-.3,5.742-.185,9.159m-38.6-20.137c-.186-1.591-1.058-3.561-.428-4.7,1.757-3.184.608-6.439.971-9.622.291-2.548-.91-3.749-3.508-3.59-1.293.08-2.605-.084-3.887.06a2.025,2.025,0,0,0-1.482.99,15.552,15.552,0,0,0-1.112,5.078c.467,10.226-1.028,20.476.877,30.72.591,3.176,2.161,2.241,3.715,2.277,1.426.033,2.788.707,3.371-2.072,1.027-4.893.708-9.73.97-14.592.073-1.345.7-2.66.514-4.548m26.29,18.459c.146,1.987,1.233,2.888,3.2,2.8,2.192-.1,4.387-.154,6.571-.338.139-.012.3-.973.28-1.486-.353-9.693-.707-19.386-1.148-29.075-.036-.79-.929-1.522-1.034-2.331-.4-3.118-2.676-1.033-3.958-1.3a3.341,3.341,0,0,0-2.684,1.922,132.963,132.963,0,0,0-2.234,16.338c-.21,4.089.631,8.231,1,13.469m-17.341-16.222c.015,3,.113,6,.02,8.993-.091,2.936-.41,5.865-.542,8.8-.018.4.468,1.162.738,1.171a46.081,46.081,0,0,0,8.335-.1c.837-.128,2.241-2.466,1.939-3.175-1.981-4.641-.4-9.432-1.041-14.079-.131-.947-1.04-2.555-1.566-2.545-2.26.042-4.807-1.3-7.883.936m-35.24,11.747a20.652,20.652,0,0,0-1.08,3.446c-.274,2,.313,3.528,2.689,3.842,3.925.519,5.379.037,6.186-2.6a21.711,21.711,0,0,0,1.1-5.662c.1-3.783-.3-4.015-4.673-4.061C1975.39,194.539,1975.39,194.539,1975.222,199.616Z" transform="translate(-868.85 -72.583)" fill="#b1b1b1"/>
      <path id="Path_28210" data-name="Path 28210" d="M394.111,101.3c-3.13.249-6.37.982-8.481-1.348-2.8-3.092-5.294-6.746-5.669-10.96-.516-5.793-.244-11.7,5.187-15.627,7.528-5.446,15.331-2.782,19.036,3.988a16.578,16.578,0,0,1-7.251,23.082c-.753.382-1.691.4-2.822.865m6.433-7.551c.186-.294.357-.6.562-.881,3.63-4.956,2.811-9.9.007-14.866-1.47-2.606-4.4-4.24-6.581-3.725-8.5,2-14.286,9.789-9.793,19.263,1.752,3.695,5.987,5.83,9.036,4.6C396,97.246,397.926,95.611,400.544,93.746Z" transform="translate(-167.344 -31.041)" fill="#b1b1b1"/>
    </g>
    <g id="Group_17672" data-name="Group 17672" transform="translate(1196 -268.899)" opacity="0.264">
      <g id="Group_20" data-name="Group 20" transform="translate(105.721 707.899)">
        <path id="Path_27735" data-name="Path 27735" d="M530.532,8.454c.879-.25,1.73-.472,2.582-.694a1.226,1.226,0,0,1,.255-.053c1.039-.04,2.078-.1,3.117-.1a7.674,7.674,0,0,1,1.461.214c.52.1.68-.021.721-.551a7.777,7.777,0,0,1,1.686-4.18A8.5,8.5,0,0,1,543.283.561a5.629,5.629,0,0,1,4-.353,7.158,7.158,0,0,1,3.31,1.923,10.534,10.534,0,0,1,2.252,2.847,17.187,17.187,0,0,1,1.7,4.734c.16,1.027.458,2.033.646,3.057.122.663.158,1.343.231,2.015q.223,2.072.444,4.144c.006.055,0,.111,0,.166.037,1.52.083,3.039.109,4.559.044,2.537.072,5.074.114,7.611.031,1.834.062,3.669.117,5.5a.985.985,0,0,1-.614,1.014,7.833,7.833,0,0,1-7.117-.007,1.035,1.035,0,0,1-.266-.158c-.631-.605-.845-.507-1.286.265a12.1,12.1,0,0,1-3.116,3.585q-1.2.926-2.4,1.842a2.816,2.816,0,0,1-.45.251c-1.125.561-1.231.754-1.07,2.013.025.192.015.352.361.266a5.164,5.164,0,0,1,1.21.049c1.2.01,2.4.025,3.606,0a7.164,7.164,0,0,1,5.224,1.883,14.81,14.81,0,0,1,3.659,4.758,13.941,13.941,0,0,1,.8,3.216,12.441,12.441,0,0,1,.122,1.949,1.019,1.019,0,0,1-.889,1.177,12.472,12.472,0,0,1-1.9.222c-2.148.06-4.3.079-6.446.121-1.631.031-3.262.072-4.892.11-1.538.036-3.077.107-4.615.1-2.149-.005-4.3-.067-6.446-.1-2.334-.038-4.667-.092-7-.1-1.168-.006-2.336.08-3.505.1-1.1.018-1.572-.555-1.37-1.644.177-.961.32-1.931.563-2.875a12.705,12.705,0,0,1,2.631-5.293,9.609,9.609,0,0,1,4.313-2.975A12.358,12.358,0,0,1,528.358,46c.816-.055,1.634-.078,2.451-.114.111,0,.238.035.33-.007.322-.145.811.461.948-.069.291-1.126.051-1.751-.645-2.088a12.341,12.341,0,0,1-3.862-2.744,11.281,11.281,0,0,1-2.214-3.691c-.414-1.109-.613-2.3-.918-3.45-.027-.1-.151-.268-.207-.259-1,.156-1.341-.634-1.734-1.257a7.547,7.547,0,0,1-1.144-5.008,2.825,2.825,0,0,1,1.519-2.579.607.607,0,0,0,.221-.545,13.8,13.8,0,0,1-.32-5.548,9.662,9.662,0,0,1,1.244-4.145c.581-.994,1.3-1.908,1.977-2.845a9.638,9.638,0,0,1,3.367-2.7c.357-.2.754-.319,1.16-.5m17.455,16.733a3,3,0,0,1-.1-.675,5.477,5.477,0,0,0-.553-2.716,7.63,7.63,0,0,0-2.165-3.084c-1.075-.823-2.176-1.612-3.283-2.389-.214-.151-.439-.135-.68.148a9.652,9.652,0,0,1-3.079,2.661,16.832,16.832,0,0,1-5.892,1.435,12.5,12.5,0,0,0-4.278.8,5.007,5.007,0,0,0-2.243,1.792c-.224.349-.17.531.306.537,1.409.017,2.818.049,4.226.109,1.08.046,2.162.112,3.236.227a1.934,1.934,0,0,1,1.767.943,2.365,2.365,0,0,0,1.443.371.353.353,0,0,0,.191-.229c.036-.559.418-.635.858-.654q1.115-.049,2.229-.11c1.3-.072,2.6-.165,3.9-.215.849-.033,1.7-.006,2.552-.006a1.066,1.066,0,0,1,1.121,1.335,12.338,12.338,0,0,1-.342,1.579A3.977,3.977,0,0,1,545.23,29.8a8.01,8.01,0,0,1-3.508.784A5.252,5.252,0,0,1,537.55,28.6a2.743,2.743,0,0,1-.783-2.062.474.474,0,0,0-.138-.376c-.265-.2-1.16.171-1.3.482a8.887,8.887,0,0,1-.784,1.558,5.26,5.26,0,0,1-4.015,2.374,5.407,5.407,0,0,1-4.744-2.316,1.875,1.875,0,0,0-.288-.235c-.051.127-.151.255-.146.38.063,1.634.107,3.27.223,4.9a11.185,11.185,0,0,0,1.609,5.157,10.467,10.467,0,0,0,2.658,2.987,16.609,16.609,0,0,0,4.235,2.1,3.817,3.817,0,0,0,1.258.417,11.058,11.058,0,0,0,2.357-.317,10.791,10.791,0,0,0,5.549-3.07,21.81,21.81,0,0,0,1.944-2.2,12.93,12.93,0,0,0,1.662-2.911,26.474,26.474,0,0,0,1.012-6.346c.137-1.269.092-2.557.129-3.947m.278,32.8,4.947-.111c.074,0,.182.031.216-.006.124-.135.328-.3.314-.44a18.434,18.434,0,0,0-.327-2.247,10.772,10.772,0,0,0-.741-2.518,13.61,13.61,0,0,0-3.306-4.223,4.338,4.338,0,0,0-2.432-1.211c-1.575-.119-3.155-.169-4.734-.219a.572.572,0,0,0-.414.332c-.121.36-.15.75-.24,1.123a5.71,5.71,0,0,1-3.313,4.357,4.771,4.771,0,0,1-3.14.182,5.46,5.46,0,0,1-3.255-2.383,5.119,5.119,0,0,1-1.083-2.608c-.028-.906-.138-.936-1.069-.9a21.949,21.949,0,0,0-2.569.224A8.2,8.2,0,0,0,522.69,49.5a10.441,10.441,0,0,0-3.022,5.123q-.36,1.438-.644,2.894c-.08.4.147.6.568.585.927-.043,1.856-.112,2.783-.106,3.054.019,6.109.061,9.163.107,1.52.023,3.039.09,4.559.1.816.006,1.633-.088,2.45-.1,3.2-.046,6.4-.078,9.718-.115m-15.429-29.3a4.392,4.392,0,0,0,1.377-2.149c.161-.68-.141-1.348-.705-1.4-1.469-.129-2.94-.231-4.411-.336-.276-.02-.555.007-.832,0-.706-.031-1.412-.1-2.118-.089-.152,0-.448.276-.43.383a5.415,5.415,0,0,0,2.164,3.753,4,4,0,0,0,4.955-.16m5.051-1.942a.591.591,0,0,0,0,.22,4.36,4.36,0,0,0,3.925,2.611,6.47,6.47,0,0,0,3.032-.716,1.545,1.545,0,0,0,.831-.73c.353-.929.592-1.9.852-2.863.014-.053-.177-.233-.271-.231-.891.018-1.782.049-2.672.1-1.674.1-3.347.229-5.021.325-.669.038-.941.475-.68,1.282m.777,21.09a3.989,3.989,0,0,0,.313-1.08,9.988,9.988,0,0,0-.215-1.788c-.028-.151-.238-.4-.342-.384-.409.043-.8.2-1.212.263-1.114.172-2.228.52-3.33-.116-.421-.243-.8.029-.752.532a11.591,11.591,0,0,0,.337,2.074,3.171,3.171,0,0,0,2.764,2.088,2.686,2.686,0,0,0,2.438-1.589m1.5,1.054a6.7,6.7,0,0,0,.266-.941,4.261,4.261,0,0,0-.039-.829,2.716,2.716,0,0,0-.494.661c-1.006,2.943-4.237,3.483-6.409,1.543a3.9,3.9,0,0,1-1.161-1.8c-.049-.159-.232-.276-.353-.413a1.735,1.735,0,0,0-.182.517,3.414,3.414,0,0,0,.656,1.889c.937,1.473,2.033,2.59,4.007,2.5a4.111,4.111,0,0,0,3.708-3.134M524.233,28.961c0-.9.014-1.808-.014-2.712a.648.648,0,0,0-.3-.442c-.591-.34-1.2.2-1.353.827a5.985,5.985,0,0,0-.119,2.466,10.12,10.12,0,0,0,1.6,3.436c.039.066.142.1.215.142a.832.832,0,0,0,.082-.277c-.022-.3-.095-.6-.1-.9-.015-.811-.005-1.623-.005-2.546M550.1,30.4a8.182,8.182,0,0,0,.333-4.033c-.124-.66-.406-.951-.88-.907-.405.037-.661.459-.676,1.058-.028,1.074-.054,2.148-.115,3.22-.041.728-.152,1.451-.208,2.179a1.671,1.671,0,0,0,.122.5,1.878,1.878,0,0,0,.31-.3C549.342,31.574,549.689,31.015,550.1,30.4Z" transform="translate(-517.751 0)"/>
        <path id="Path_27741" data-name="Path 27741" d="M633.9,325.765c-.369-.184-.711-.34-1.052-.5s-.6-.381-.475-.8c.162-.535.591-.362.933-.282a6.374,6.374,0,0,1,1.11.391,8.46,8.46,0,0,0,4.212.641c1.125-.1,2.231-.4,3.35-.586a13.056,13.056,0,0,1,1.649-.156c.145-.005.3.162.444.251-.1.134-.172.345-.3.389a21.577,21.577,0,0,1-3.133.981,16.314,16.314,0,0,1-3.558.223A21.756,21.756,0,0,1,633.9,325.765Z" transform="translate(-619.623 -288.119)"/>
        <path id="Path_27742" data-name="Path 27742" d="M679.848,273.707c.121-.065.175-.154.253-.192.753-.367.985-.395.5-1.567a.97.97,0,0,1,0-.593c.12-.414.4-.472.669-.152a2.644,2.644,0,0,1,.658,2.146c-.045.271-.37.547-.633.719a5.788,5.788,0,0,1-1.29.618c-.145.05-.4-.106-.547-.231-.058-.049.005-.287.064-.416A.947.947,0,0,1,679.848,273.707Z" transform="translate(-661.489 -240.917)"/>
        <path id="Path_27743" data-name="Path 27743" d="M672.811,356.385c.9,0,1.753-.011,2.6.009a1.659,1.659,0,0,1,.506.191c-.123.149-.216.355-.374.437a5.81,5.81,0,0,1-2.949.339c-.154,0-.3-.308-.451-.474A6.934,6.934,0,0,1,672.811,356.385Z" transform="translate(-655.008 -316.824)"/>
        <path id="Path_27744" data-name="Path 27744" d="M622.654,235c.035.354.165.754.023.989-.264.436-.72.462-1.224.275-.407-.151-.413-.427-.374-.732C621.155,234.948,621.958,234.667,622.654,235Z" transform="translate(-609.596 -208.789)"/>
        <path id="Path_27745" data-name="Path 27745" d="M733.158,235.159a.752.752,0,0,1,.541-.949.767.767,0,0,1,1.005.47.611.611,0,0,1-.231.872c-.295.21-.628.356-.938-.013C733.429,235.413,733.3,235.3,733.158,235.159Z" transform="translate(-709.222 -208.169)"/>
      </g>
    </g>
    <g id="Group_17671" data-name="Group 17671" transform="translate(285 -346.642)" opacity="0.264">
      <g id="Group_31" data-name="Group 31" transform="translate(24.942 785.642)">
        <g id="Group_21" data-name="Group 21">
          <path id="Path_27736" data-name="Path 27736" d="M11.375,537.573a13.563,13.563,0,0,0,1.332-.417c.272-.107.6-.235.187-.6-.39-.35-.719-.769-1.121-1.1a9.223,9.223,0,0,1-2.824-3.963,36.045,36.045,0,0,1-1.12-4.118c-.161-.675-.171-1.385-.3-2.069-.031-.162-.258-.339-.435-.413A5.67,5.67,0,0,1,3.3,519.214a7.731,7.731,0,0,1,.793-3.573,2.486,2.486,0,0,1,2.6-1.611c.711.058.8-.151.73-.83a16.7,16.7,0,0,1-.122-3.086,19.528,19.528,0,0,1,.664-3.205,11.636,11.636,0,0,1,2.294-4.376,11.574,11.574,0,0,1,2.415-2.39,10.42,10.42,0,0,1,5.661-1.849,38.83,38.83,0,0,1,5.522.537,10.554,10.554,0,0,0,2.254-.143c2.588-.243,5.1-.316,7.28,1.552a11.388,11.388,0,0,1,3.2,4.355,5.488,5.488,0,0,1,.359,1.762c.124,2.149.206,4.3.278,6.452.015.458-.119.92-.115,1.379,0,.309.117.632.567.436a2.612,2.612,0,0,1,3.523,1.929,7.708,7.708,0,0,1-.48,4.748c-.348.767-.649,1.555-.972,2.333a5.84,5.84,0,0,1-2.591,3.013,1.418,1.418,0,0,0-.6,1.248,22.5,22.5,0,0,1-1.526,6c-.107.289-.437.5-.672.735-.413.42-.841.825-1.245,1.253-.3.322-.57.681-.877,1-.335.35-.3.565.182.685a6.32,6.32,0,0,1,3.475,2.011,1.453,1.453,0,0,1,.433,1.593c-.047.115.108.391.244.49,1.135.826,2.344,1.559,3.422,2.45a12.13,12.13,0,0,1,3.932,6.5c.363,1.391.569,2.823.834,4.239.108.575.158,1.161.285,1.731.089.4-.481.951-.984.956-1.755.015-3.511.023-5.266,0-1.327-.017-2.653-.078-3.979-.134-.643-.027-1.285-.133-1.927-.125-1.9.022-3.793.078-5.689.13-1.418.038-2.835.1-4.252.133-2.17.053-4.34.132-6.509.129-2.649,0-5.3-.128-7.946-.111-1.923.012-3.846.175-5.769.254-.691.028-1.384-.01-2.075.009-.491.014-.584-.327-.615-.676a7.694,7.694,0,0,1,0-1.3c.072-.9.177-1.794.268-2.691a14.8,14.8,0,0,1,1.986-6.155,15,15,0,0,1,5.544-5.331.872.872,0,0,0,.548-.9c-.191-1.754,1.279-2.662,2.649-3.066.1-.029.191-.089.354-.135m1.437,18.47c.711.046,1.422.136,2.132.128,2.124-.022,4.248-.076,6.372-.131,1.121-.029,2.242-.093,3.363-.133,1.394-.05,2.789-.132,4.183-.128,1.828.005,3.655.091,5.483.125q4.28.08,8.56.137c.316,0,.517.032.382-.477-.313-1.182-.505-2.4-.714-3.605a11.5,11.5,0,0,0-3.2-6.388,24.726,24.726,0,0,0-3.426-2.609,1.161,1.161,0,0,0-1.038.054c-1.034.671-1.96,1.521-3.025,2.129-1.2.687-2.528,1.159-3.77,1.782-.342.172-.794.529-.826.84-.135,1.294-.119,2.6-.182,3.906a4.369,4.369,0,0,1-.192.807c-.223-.219-.455-.43-.663-.662a.543.543,0,0,1-.092-.3c-.1-1.079-.228-2.157-.259-3.238-.016-.548-.131-.73-.717-.746a8.657,8.657,0,0,1-1.745-.385,2.391,2.391,0,0,0-.423-.13c-1.326-.055-2.652-.088-3.978-.148-.411-.019-.573.127-.547.54.058.938.073,1.879.15,2.815.038.468.217.925.255,1.393.077.936.109,1.876.135,2.815,0,.124-.137.252-.21.378-.109-.068-.255-.112-.319-.209a4.024,4.024,0,0,1-.672-1.153A21.332,21.332,0,0,1,17,547.435a.919.919,0,0,0-.9-1.108,1.792,1.792,0,0,1-.371-.094c-1.174-.467-2.369-.89-3.512-1.424a15.2,15.2,0,0,1-2.7-1.55c-.548-.411-.986-.495-1.463-.091-.937.794-1.88,1.591-2.736,2.469a11.005,11.005,0,0,0-2.561,4.2,34.834,34.834,0,0,0-1.27,5.707c-.127.8.123.814.7.776,1.512-.1,3.024-.23,4.537-.265,1.982-.046,3.966-.011,6.086-.011M33.129,508.91A5.031,5.031,0,0,0,30.4,506.8a1.446,1.446,0,0,0-.72-.045c-1.383.227-2.755.568-4.146.7-1.613.148-3.242.152-4.863.151a36.163,36.163,0,0,1-5.268-.179,2.559,2.559,0,0,0-2.7,1.211,21.01,21.01,0,0,0-2.642,4.451c-.351.777-.294.911.529.961.211.013.417.115.628.127,1.762.1,3.525.176,5.287.282,1.194.072,2.392.134,3.576.292a1.491,1.491,0,0,1,1.285.7,1.051,1.051,0,0,0,1.7-.026,1.522,1.522,0,0,1,1.42-.708,4.992,4.992,0,0,0,.9-.12q2.991-.215,5.983-.411c.915-.059,1.832-.077,2.746-.145.7-.052.913-.346.786-1.047a9.714,9.714,0,0,0-1.776-4.078m2.052,15.049a20.064,20.064,0,0,0,.814-4.994,1.97,1.97,0,0,0-.1-.547,3.579,3.579,0,0,0-.435.448,5.778,5.778,0,0,1-3.431,2.528,13.6,13.6,0,0,1-3.5.275,6.663,6.663,0,0,1-2.478-.587,5,5,0,0,1-3.1-3.577c-.039-.186-.5-.478-.582-.427-.527.326-1.411-.3-1.681.564a6.59,6.59,0,0,1-2.073,3.175,5.554,5.554,0,0,1-4.581,1.254,6.219,6.219,0,0,1-3.917-2.091c-.074-.088-.246-.094-.372-.139a1.355,1.355,0,0,0-.008.426,11.894,11.894,0,0,0,2.672,4.832c.287.3.912.647,1.168.525a3.005,3.005,0,0,1,2.828.316,12.167,12.167,0,0,0,6.418,1.505c.325-.028.645-.1.969-.133a13.169,13.169,0,0,0,5.06-1.656,4.27,4.27,0,0,1,1.987-.755,10.731,10.731,0,0,1,3.059.66.711.711,0,0,0,.993-.425,4.3,4.3,0,0,0,.289-1.178m-20.454,7.32a1.264,1.264,0,0,0,.45,1.394,8.841,8.841,0,0,0,3.344,1.987c.935.34,1.138.239,1.612-.688a1.339,1.339,0,0,1,1.292-.779,15.165,15.165,0,0,0,1.913-.014,1.531,1.531,0,0,1,1.586.856,1.6,1.6,0,0,0,1.632.661,5.582,5.582,0,0,0,3.311-2.821c.237-.475.554-.925.248-1.491A2.863,2.863,0,0,0,27.437,529c-1.3-.017-2.6.321-3.9.435a10.014,10.014,0,0,1-2.552,0c-1.057-.183-2.065-.633-3.117-.867a2.25,2.25,0,0,0-1.873.123.835.835,0,0,0-.233.359c-.016.037.063.156.121.177.536.192,1.068.408,1.619.545a24.4,24.4,0,0,0,3.627.794,21.277,21.277,0,0,0,4.083-.083c1.008-.1,1.984-.487,2.986-.683.23-.045.51.168.767.263a3.048,3.048,0,0,1-.326.565,1.11,1.11,0,0,1-.523.371c-1.619.339-3.231.748-4.869.944a12.038,12.038,0,0,1-5.879-.964c-.652-.259-1.6-.286-1.769-1.285-.132.039-.352.046-.38.123-.166.457-.288.93-.493,1.466m3.762,14.16c-.225-.316-.444-.638-.677-.948a4.355,4.355,0,0,1-.3-4.759c.257-.357.142-.566-.122-.707a14.167,14.167,0,0,0-2.17-1.016,2.509,2.509,0,0,0-1.441,0c-1,.31-1.972.728-2.942,1.135a1.712,1.712,0,0,0-1.231,1.437,1.9,1.9,0,0,0,.977,1.917,34.8,34.8,0,0,0,3.924,2.062,20.461,20.461,0,0,0,3.977.883m16.418-4.515c.258-.655-.3-.948-.668-1.136a29.392,29.392,0,0,0-2.962-1.246.915.915,0,0,0-.687.017c-1.037.583-2.037,1.231-3.078,1.805a.646.646,0,0,0-.407.719,4.128,4.128,0,0,1-.923,2.961q-.57.748-1.107,1.521a4.5,4.5,0,0,0-.289.56,2.631,2.631,0,0,0,.518.06c.3-.023.6-.123.9-.124a7.4,7.4,0,0,0,3.462-1.033,13.743,13.743,0,0,0,5.242-4.1M34.7,515.546a3.79,3.79,0,0,0-1.115-.256c-1.749.143-3.492.358-5.239.526q-1.75.168-3.506.271c-.579.034-.7.4-.594.826a3.633,3.633,0,0,0,1.95,2.582,6.933,6.933,0,0,0,5.585.218,3.944,3.944,0,0,0,2.918-4.166m-24.695-.205c-.091.145-.289.321-.257.429a6.8,6.8,0,0,0,1.351,2.993,5.15,5.15,0,0,0,4.98,1.588,3.323,3.323,0,0,0,2.835-2.359,10.237,10.237,0,0,1,.821-1.572c.076-.142.149-.284.224-.427a1.9,1.9,0,0,0-.476-.166q-2.232-.153-4.466-.279c-1.648-.1-3.3-.183-5.013-.206m15.734,26.542c0-1.051-.065-1.131-1.1-.877a1.729,1.729,0,0,1-1.765-.282.779.779,0,0,0-.35-.139c-1.022-.232-2.052-.433-3.065-.7-.417-.109-.63-.059-.849.342a3.192,3.192,0,0,0,.038,3.277,8.693,8.693,0,0,0,1.793,2.179c.329.286,1.006.18,1.528.23a3.03,3.03,0,0,0,.818-.006,1.225,1.225,0,0,0,.692-.286,10.7,10.7,0,0,0,2.258-3.739m11.492-22.027a5.556,5.556,0,0,0-.133.626c-.061.615-.116,1.232-.151,1.849q-.078,1.373-.116,2.748a.456.456,0,0,0,.212.3c.041.028.2-.065.266-.141a5.9,5.9,0,0,0,.733-.993,29.416,29.416,0,0,0,1.423-3.1,7.431,7.431,0,0,0,.5-4.389,1.222,1.222,0,0,0-1.127-1.041,2.262,2.262,0,0,0-1.347.636c-.463.444-.07,1.251.553,1.391a1.115,1.115,0,0,1,.677.469,3.02,3.02,0,0,1,.149,2.844c-.047.1-.217.231-.294.211A.567.567,0,0,1,38.2,521c-.128-.382-.185-.788-.292-1.178a2.552,2.552,0,0,0-.218-.445,1.552,1.552,0,0,0-.461.479M7.2,516.777a.7.7,0,0,0,.29-.93,1.1,1.1,0,0,0-1.731-.346,2.338,2.338,0,0,0-.664.88,6.1,6.1,0,0,0-.409,3.946,4.857,4.857,0,0,0,2.057,3.1c.177.1.454.23.585.159s.2-.372.206-.573q.025-2.154,0-4.308a1.667,1.667,0,0,0-.236-.557c-.191.149-.489.262-.553.454a12.415,12.415,0,0,0-.3,1.452c-.047.228-.122.45-.184.675a2.624,2.624,0,0,1-.622-.517,2.229,2.229,0,0,1,0-2.224C5.917,517.379,6.2,516.72,7.2,516.777Z" transform="translate(0 -498.291)"/>
          <path id="Path_27746" data-name="Path 27746" d="M167.691,670.7a14.606,14.606,0,0,1-1.678.833c-.2.073-.485-.1-.732-.165a2.579,2.579,0,0,1,.313-.734,1.439,1.439,0,0,1,.7-.43c.426-.109.4-.387.3-.661-.137-.373-.4-.706-.5-1.084a.948.948,0,0,1,.143-.765c.1-.117.523-.1.7.019A3.739,3.739,0,0,1,167.691,670.7Z" transform="translate(-142.669 -644.449)"/>
          <path id="Path_27747" data-name="Path 27747" d="M213.8,631.1c.077.356.245.739.126.981a.971.971,0,0,1-.807.389,1.9,1.9,0,0,1-.972-.5c-.082-.073.039-.564.2-.677a2.889,2.889,0,0,1,1.007-.357C213.477,630.907,213.63,631.018,213.8,631.1Z" transform="translate(-183.102 -612.784)"/>
          <path id="Path_27748" data-name="Path 27748" d="M102.326,633.362c.78-.686,1.375-.648,1.819-.169.357.384.328.819-.093,1a2.507,2.507,0,0,1-1.448.152A.58.58,0,0,1,102.326,633.362Z" transform="translate(-88.18 -614.431)"/>
        </g>
      </g>
    </g>
    <g id="Group_17673" data-name="Group 17673" transform="translate(1458 -221.696)" opacity="0.264">
      <g id="Group_22" data-name="Group 22" transform="translate(109.969 819.169)">
        <path id="Path_27737" data-name="Path 27737" d="M586.911,765.411a9.025,9.025,0,0,1,.27,4.065c-.037.2.019.421-.025.619a1.621,1.621,0,0,1-1.654,1.336c-1.237.056-2.474.122-3.712.123q-13.174.016-26.347.011c-1.467,0-2.935.062-4.4.124-1.534.064-3.072.113-4.6.263-1.183.116-1.575-.95-1.437-1.8.186-1.151.408-2.3.623-3.442a14.7,14.7,0,0,1,2.632-6.123,8.865,8.865,0,0,1,3.911-3.1c.255-.1.588-.47.579-.7a2.929,2.929,0,0,1,1.807-2.772,22.132,22.132,0,0,1,2.521-1.025c.307-.123.446-.224.12-.557a22.718,22.718,0,0,1-2.762-3.051,10.812,10.812,0,0,1-1.91-4.721,9,9,0,0,1-.223-1.776,1.952,1.952,0,0,0-.954-2.053,5.1,5.1,0,0,1-2.072-3.4,8.653,8.653,0,0,1-.136-3.731,2.531,2.531,0,0,1,2.249-2.04c.452-.035.406-.3.361-.6a20.6,20.6,0,0,1-.335-2.427,19.293,19.293,0,0,1,.874-5.214,12.23,12.23,0,0,1,4.18-6.166,14.537,14.537,0,0,1,6.339-3.155c1.554-.368,3.14-.611,4.715-.886.529-.093,1.005-.037,1.172.638a.638.638,0,0,0,.51.341,17.28,17.28,0,0,0,2.257-.3,1.262,1.262,0,0,1,1.369.354,1.037,1.037,0,0,0,1.078.377,4.82,4.82,0,0,1,4.569,1.914,16.416,16.416,0,0,1,2.939,5.926,13.958,13.958,0,0,1,.459,2.315c.135,1.613.212,3.233.251,4.851.014.569-.182,1.141-.218,1.716a.7.7,0,0,0,.3.542,3.106,3.106,0,0,1,1.714,2.669,10.5,10.5,0,0,1-.9,5.62,3.061,3.061,0,0,1-1.847,1.746c-1.023.312-1.247,1.041-1.439,1.966a16.566,16.566,0,0,1-2.156,5.815c-.548.839-1.065,1.7-1.654,2.51-.286.393-.178.481.214.518a6.663,6.663,0,0,1,3.01,1.069,2.214,2.214,0,0,1,.963,2.739c-.15.385-.082.478.24.623a12.936,12.936,0,0,1,5.213,4.728,9.617,9.617,0,0,1,1.344,3.515M573.547,739.06a24.852,24.852,0,0,1-3.306-.655c-1.671-.561-3.254-2.01-3.04-3.955.03-.271.143-.71-.379-.65-.46.053-1.067-.321-1.261.557a5.382,5.382,0,0,1-3.655,4.308,5.937,5.937,0,0,1-3.83.193,9.424,9.424,0,0,1-3.979-2.806,2.253,2.253,0,0,0-.321-.255,1.867,1.867,0,0,0-.112.421c-.014.48.035.965-.013,1.441a20.134,20.134,0,0,0-.132,4.863,14.85,14.85,0,0,0,2.009,6.008,11.1,11.1,0,0,0,3.315,3.691,35.289,35.289,0,0,0,4.023,2.243,8.135,8.135,0,0,0,2.875.741,13.923,13.923,0,0,0,3.163-.345,9.781,9.781,0,0,0,5.242-2.615,11.807,11.807,0,0,0,3.272-4.908c.446-1.455.749-2.956,1.078-4.445.2-.907.361-1.826.479-2.747a16.14,16.14,0,0,0,.141-2.321,14.44,14.44,0,0,0-.241-1.9,2.7,2.7,0,0,0-.173-.491,3.427,3.427,0,0,0-.32.35c-.088.126-.133.28-.214.412a4.975,4.975,0,0,1-2.7,2.361c-.593.189-1.2.338-1.923.506m-25.285,25.787c-.03.03-.078.055-.086.09-.392,1.594-.776,3.19-1.17,4.784-.176.71-.182.736.541.7,1.513-.065,3.024-.187,4.538-.239,1.989-.068,3.979-.123,5.969-.126q13.233-.02,26.466-.006a1.733,1.733,0,0,0,.681-.018c.227-.107.532-.335.554-.537a9.992,9.992,0,0,0,.017-1.962,10.684,10.684,0,0,0-1.386-4.563,9.731,9.731,0,0,0-4.847-4.367c-.373-.144-.72-.3-1.121.037a15.712,15.712,0,0,1-6.8,3.11c-.552.124-.784.329-.778.878q.02,1.881,0,3.763a2.723,2.723,0,0,1-.138.82.449.449,0,0,1-.4.077,1.493,1.493,0,0,1-.445-.682c-.1-.622-.1-1.259-.144-1.889-.042-.652-.055-1.307-.144-1.952-.025-.181-.273-.463-.427-.469-.5-.02-1.006.1-1.51.106-1.2.021-2.41.076-3.607-.011-.7-.051-1.212.192-1.212.853,0,1.171.026,2.342-.011,3.512a8.187,8.187,0,0,1-.25,1.65c-.13.536-.39.606-.648.13a4.291,4.291,0,0,1-.453-1.684c-.1-1.3-.129-2.6-.129-3.9,0-.506-.294-.664-.657-.8a4.665,4.665,0,0,0-.573-.131,13.548,13.548,0,0,1-6.072-3.067.732.732,0,0,0-.586-.146,5.675,5.675,0,0,0-2.678,1.685,11.433,11.433,0,0,0-2.5,4.352m8.345-33.065c.209,0,.419-.015.627,0,1.916.163,3.833.325,5.748.5.616.057,1.225.2,1.841.237a12.821,12.821,0,0,0,2.276-.007c1.155-.143,2.288-.5,3.443-.586,1.815-.131,3.642-.11,5.464-.147a12.4,12.4,0,0,1,1.628.013,4.946,4.946,0,0,1,1.167.352c.3.115.5.126.456-.277a13.361,13.361,0,0,0-.164-1.438,12.584,12.584,0,0,0-1.91-4.158c-.634-.984-1.377-1.9-2.071-2.844a.605.605,0,0,0-.889-.189,5.487,5.487,0,0,1-1.308.619,16.38,16.38,0,0,1-6.718.648c-1.158-.2-2.348-.252-3.485-.53a10.246,10.246,0,0,1-4.313-1.692c-.39-.32-.74-.18-1.032.2-.465.6-.945,1.2-1.416,1.8a11.5,11.5,0,0,0-2.663,7.233,2.866,2.866,0,0,0,.117.576,4.731,4.731,0,0,1,.482-.219,1.553,1.553,0,0,1,.464-.088c.71-.009,1.421,0,2.257,0m4.957,25.912c.073-.659.15-1.318.216-1.977a.333.333,0,0,0-.071-.253,4.272,4.272,0,0,0-2.636-1.322,6.393,6.393,0,0,0-4.173,1.7,1,1,0,0,0-.168,1.536,8.5,8.5,0,0,0,3.53,2.507c1.3.447,2.628.819,3.947,1.213a1.74,1.74,0,0,0,.463.01,2.5,2.5,0,0,0-.139-.426,6.2,6.2,0,0,1-.97-2.983m14.556.627c.719-.625,1.671-.941,2.161-1.88s.454-1.236-.591-1.564a19.441,19.441,0,0,0-2.373-.617,3.033,3.033,0,0,0-1.572.015c-.858.346-1.626.91-2.457,1.332-.414.211-.618.423-.448.906a1.932,1.932,0,0,1,.112.816,6.645,6.645,0,0,1-.911,2.692c-.071.12-.031.305-.042.46a1.754,1.754,0,0,0,.463-.023,30.123,30.123,0,0,0,5.658-2.138M556.482,736.3a5.458,5.458,0,0,0,4.4,1.38,3.506,3.506,0,0,0,2.821-2.252,4.343,4.343,0,0,1,.543-1.208c.522-.61-.112-.632-.344-.661-1.341-.167-2.688-.309-4.037-.386-1.5-.086-3.012-.1-4.518-.133-.726-.016-.812.158-.6.9a4.143,4.143,0,0,0,1.743,2.362m13.678.5a6.835,6.835,0,0,0,3.319.763,3.689,3.689,0,0,0,3.647-2.7,3.971,3.971,0,0,1,.411-1.263c.5-.678-.024-.567-.373-.559-1.11.024-2.219.068-3.328.121-1.531.074-3.06.169-4.591.246a.764.764,0,0,0-.752.973,3.519,3.519,0,0,0,1.668,2.418m-1.443,22.273a13.461,13.461,0,0,0,.464-1.991c.02-.214-.435-.692-.634-.672a13.749,13.749,0,0,1-4.553-.157c-.808-.187-1.07.3-.909.9.28,1.047.631,2.077,1,3.1a1.413,1.413,0,0,0,1.654,1.14,8.833,8.833,0,0,0,1.315-.017,1.154,1.154,0,0,0,.766-.4c.337-.582.566-1.225.9-1.907m12.8-25.724c-.372.314-.748.623-1.113.944-.143.125-.372.277-.373.418a3.552,3.552,0,0,0,.148,1.68,3.572,3.572,0,0,1,.333,1.875c.01.481.017.962,0,1.442-.015.339-.108.677-.1,1.014,0,.1.3.3.34.271a3.392,3.392,0,0,0,1.4-1.719,9.547,9.547,0,0,0,.483-4.516c-.16-.919-.3-1.428-1.114-1.41M550.27,734.48a21.209,21.209,0,0,0,.139,2.14,5.2,5.2,0,0,0,1.368,3,3.754,3.754,0,0,0,.353.276,1.975,1.975,0,0,0,.142-.5c.012-1.358.019-2.717,0-4.075a12.751,12.751,0,0,0-.14-1.888.976.976,0,0,0-.485-.619.674.674,0,0,0-.63.2C550.74,733.449,550.554,733.944,550.27,734.48Z" transform="translate(-544.979 -713.182)"/>
        <path id="Path_27749" data-name="Path 27749" d="M672.547,973.789c1.263-.376,2.463-.756,3.666-1.126a1.43,1.43,0,0,1,.633-.112.856.856,0,0,1,.567.34.613.613,0,0,1-.222.558,28.069,28.069,0,0,1-2.7,1.331,8.175,8.175,0,0,1-3.657.379,11.4,11.4,0,0,1-5.2-1.339,4.3,4.3,0,0,1-1-.889.575.575,0,0,1,.03-.565.755.755,0,0,1,.621-.231c.6.212,1.154.538,1.746.77A13.1,13.1,0,0,0,672.547,973.789Z" transform="translate(-649.563 -939.629)"/>
        <path id="Path_27750" data-name="Path 27750" d="M703.626,919.3c-.241-.557-.091-.8.476-.847.484-.042.971-.07,1.453-.13s.684-.284.458-.785c-.175-.386-.3-.8-.449-1.194-.161-.43-.233-.919.236-1.127.41-.181.778.075.936.539a9.409,9.409,0,0,1,.6,1.752c.138,1.088-.072,1.705-1.413,2.023A2.934,2.934,0,0,1,703.626,919.3Z" transform="translate(-683.622 -889.815)"/>
        <path id="Path_27751" data-name="Path 27751" d="M701.063,1006.974c-.669,0-1.276.015-1.881-.008a1.122,1.122,0,0,1-.606-.183.662.662,0,0,1-.249-.5c.016-.143.24-.376.37-.374.869.009,1.739.047,2.6.136.146.015.4.391.361.482C701.57,1006.717,701.314,1006.829,701.063,1006.974Z" transform="translate(-679.083 -969.175)"/>
        <path id="Path_27752" data-name="Path 27752" d="M654.805,884.376a18.858,18.858,0,0,1-2.1.134c-.129,0-.365-.309-.355-.463a.838.838,0,0,1,.334-.624,2.678,2.678,0,0,1,2.116.165C655.177,883.719,655.211,884.072,654.805,884.376Z" transform="translate(-638.879 -861.917)"/>
        <path id="Path_27753" data-name="Path 27753" d="M761.267,883.405c.333.5.245.824-.257.9a7.775,7.775,0,0,1-1.754.109c-.272-.022-.746-.349-.734-.508a.639.639,0,0,1,.744-.6C759.919,883.362,760.578,883.353,761.267,883.405Z" transform="translate(-731.726 -861.95)"/>
      </g>
    </g>
    <g id="Group_17675" data-name="Group 17675" transform="translate(1267 8.995)" opacity="0.264">
      <path id="Path_27777" data-name="Path 27777" d="M-4372.385,4436.4l-.231-4.072.611-2.433,1.03-2.193,1.091-1.167v-1.581s2.921.125,3.485-.524,1.885-5.4,1.885-5.4,3.12,2.458,3.757,2.5,8.8,2.292,8.8,2.292l5.167,4.334,1.685,4.171.469,5.275-1.011,1.916-1.143-3.857-1.075-1.133-2.208-.719-4.684-4.2-1.589.865-3.656,1.857-4.974-.637-3.431-1.505-1.475,1.855-1.529,4.695Z" transform="translate(4417.968 -3533.228)" stroke="#707070" stroke-width="0.5"/>
      <g id="Group_24" data-name="Group 24" transform="translate(38.238 885.005)">
        <path id="Path_27739" data-name="Path 27739" d="M125.984,1192.461a7.2,7.2,0,0,1-.267,1.468c-.1.248-.438.4-.671.594-.012.01-.039,0-.06,0-7.082.04-14.164.1-21.246.113-3.826.006-7.652-.092-11.478-.1-1.925-.006-3.849.078-5.774.111a1.111,1.111,0,0,1-1.264-1.292c.1-1.172.348-2.331.46-3.5a9.694,9.694,0,0,1,1.338-3.879,11.459,11.459,0,0,1,3.844-3.957,15.935,15.935,0,0,1,5.555-2.247,10.851,10.851,0,0,1,4.449-.178c.128.027.4-.067.409-.124a2.32,2.32,0,0,0-.033-.968,1.108,1.108,0,0,0-.572-.474,13.185,13.185,0,0,1-6.488-6.75,17.031,17.031,0,0,1-1.6-5.17.85.85,0,0,0-.561-.56,2.748,2.748,0,0,1-2.315-2.1,22.927,22.927,0,0,1-.471-3.5,4.154,4.154,0,0,1,.82-2.8,2.215,2.215,0,0,1,1.631-.959.9.9,0,0,0,.826-1.36,8.314,8.314,0,0,1-.729-4.539,17.285,17.285,0,0,1,.74-3.935,10.894,10.894,0,0,1,1.531-2.694,2.343,2.343,0,0,0,.5-1.5c-.029-.709.191-.918.915-.9.469.013.939.125,1.406.106a2.01,2.01,0,0,0,2.034-1.66c.276-1.145.475-2.309.748-3.455a2.36,2.36,0,0,1,.447-.841c.272-.356.582-.316.91-.014a12.24,12.24,0,0,0,2.148,1.853,9.641,9.641,0,0,0,2.873.948,19.373,19.373,0,0,1,3.97.974c1.224.511,2.486.938,3.691,1.489a13.077,13.077,0,0,1,4.692,3.875,8.14,8.14,0,0,1,1.222,1.738,8.981,8.981,0,0,1,.758,2.649c.177,1.818.195,3.651.265,5.479a2.519,2.519,0,0,1-.108.62.665.665,0,0,0,.477.788c1.331.552,1.628,1.7,1.691,2.945a16.549,16.549,0,0,1-.588,4.847,3.472,3.472,0,0,1-2.881,2.665.638.638,0,0,0-.392.365c-.346,1.093-.595,2.22-1,3.289a11.967,11.967,0,0,1-1.97,3.495,21.1,21.1,0,0,1-4.4,3.883,13.728,13.728,0,0,1-1.289.693,1.483,1.483,0,0,0-.408,1.6.322.322,0,0,0,.242.131,21.484,21.484,0,0,1,6.061.359,14.655,14.655,0,0,1,4.592,1.368,9.652,9.652,0,0,1,4.1,3.92,10.378,10.378,0,0,1,1.329,6.062c-.022.328-.078.653-.119,1.04m-7.767-32.219c-.04-.934-.072-1.868-.123-2.8-.073-1.321-.133-2.644-.249-3.962a1.985,1.985,0,0,0-1.588-1.937,7.227,7.227,0,0,1-2.36-1.009,43.712,43.712,0,0,1-3.457-2.94.664.664,0,0,0-1.061-.014,15.84,15.84,0,0,1-1.759,1.309,6.8,6.8,0,0,1-3.1.9,9.142,9.142,0,0,1-4.442-.651c-.922-.36-1.817-.787-2.742-1.138-.408-.155-.889-.419-1.237.142a5,5,0,0,0-.451.783,22.689,22.689,0,0,0-1.7,6.147c-.167,1.813-.348,3.625-.473,5.44a14.259,14.259,0,0,0,.108,1.829c.043.711.067,1.423.128,2.133a6.22,6.22,0,0,0,.2,1.189c.36,1.244.774,2.472,1.122,3.719a12.272,12.272,0,0,0,2.875,4.988,11.393,11.393,0,0,0,4.107,2.651,7.915,7.915,0,0,0,3.576.875,7.12,7.12,0,0,0,1.654-.25,20.7,20.7,0,0,0,3.205-1.183,18.666,18.666,0,0,0,2.338-1.685,11.616,11.616,0,0,0,3.512-4.1,15.723,15.723,0,0,0,1.182-3.756,23.659,23.659,0,0,0,.593-2.964c.125-1.187.1-2.39.141-3.708m-24.756-8.859c.526-1.178,1.008-2.377,1.589-3.527.723-1.434,1.041-1.524,2.355-1.113,1.225.383,2.372,1.005,3.575,1.469a7.914,7.914,0,0,0,4.814.2,7.408,7.408,0,0,0,3-1.826,1.652,1.652,0,0,1,2.331,0c.819.795,1.61,1.625,2.49,2.347a6.3,6.3,0,0,0,3.129,1.67,2.409,2.409,0,0,1,2.2,2.242c.078.555.139,1.113.231,1.665a1.7,1.7,0,0,0,.207.432,1.5,1.5,0,0,0,.161-.476,21.587,21.587,0,0,0-.225-4.512c-.394-1.681-.509-3.454-1.909-4.734-.944-.862-1.83-1.789-2.783-2.641a10.883,10.883,0,0,0-3.241-1.686,24.427,24.427,0,0,0-6.026-1.7,6.981,6.981,0,0,1-4.306-2.066,1.753,1.753,0,0,0-.3-.208c-.085.126-.218.243-.248.381-.14.654-.218,1.321-.379,1.969-.3,1.221-.695,2.441-2.059,2.855a8.026,8.026,0,0,1-2.04.2c-.471.016-.61.181-.445.617.152.4.129.873-.232,1.048a3.625,3.625,0,0,0-1.492,1.87,9.951,9.951,0,0,0-.887,4.24c-.025.631-.093,1.26-.106,1.891,0,.124.163.25.251.376.074-.084.182-.158.214-.256a3.971,3.971,0,0,0,.129-.736m25.666,30.642a.372.372,0,0,1-.121,0,26.466,26.466,0,0,0-8.6-1.217c-.521-.013-.708.2-.7.707.022.9.006,1.793.006,2.689,0,2.062-.011,4.124.006,6.186.007.812.049,1.627.136,2.434a.7.7,0,0,0,.463.468,12.851,12.851,0,0,0,1.887.137q5.822.016,11.644,0a.707.707,0,0,0,.786-.731c.052-.98.1-1.961.121-2.942a6.994,6.994,0,0,0-.791-3.128,9.747,9.747,0,0,0-4.848-4.6m-17.778-.91c-.221-.1-.445-.3-.662-.288a38.284,38.284,0,0,0-4.08.251,11.781,11.781,0,0,0-4.629,1.685,10.56,10.56,0,0,0-5.077,6.38,21.422,21.422,0,0,0-.579,3.089c-.1,1.082-.156,1.224,1.136,1.207,4.166-.056,8.333-.087,12.5-.127a9.054,9.054,0,0,1,1.03.007c.476.05.635-.118.612-.6-.1-2.067-.2-4.135-.243-6.2-.039-1.757-.008-3.516-.008-5.4m3.944,3.7a3.558,3.558,0,0,0,.779-.309,14.024,14.024,0,0,1,1.675-1.241,1.261,1.261,0,0,0,.773-1.331c0-.853.056-1.707.117-2.558.032-.444-.061-.7-.577-.633-.486.061-.976.1-1.466.122-.343.018-.751-.116-1.019.026a3.426,3.426,0,0,1-2.286.09c-.583-.09-.705-.017-.728.566-.026.651-.139,1.3-.1,1.951a1.989,1.989,0,0,0,.595,1.69c.713.532,1.412,1.084,2.239,1.627m14.138-23.724c-.121,1.224-.256,2.446-.346,3.672-.01.142.312.445.334.432a3.448,3.448,0,0,0,1.2-.849,6.178,6.178,0,0,0,.737-1.929c.141-.627.05-1.3.165-1.941a5.568,5.568,0,0,0-.167-2.941,1.166,1.166,0,0,0-.715-.6c-.16-.045-.459.241-.626.437s-.2.5-.363.69c-.34.386-.174.562.19.777.233.137.523.355.578.587.2.855.337,1.729.458,2.6.019.138-.156.3-.242.455-.171-.115-.442-.2-.494-.352-.127-.376-.131-.793-.229-1.182a3.461,3.461,0,0,0-.305-.64c-.057.219-.114.438-.172.778m-28.579-1.4a1.5,1.5,0,0,1,1.158-1.344c.427-.111.422-.52.333-.833a.609.609,0,0,0-.552-.227,2.115,2.115,0,0,0-.969.727,4.384,4.384,0,0,0-.488,1.782,13.529,13.529,0,0,0,.232,2.68,2.532,2.532,0,0,0,1.128,1.938c.161.092.332.166.5.248a1.734,1.734,0,0,0,.168-.531c-.017-.69-.088-1.378-.107-2.068-.02-.726,0-1.452-.008-2.179a1.332,1.332,0,0,0-.081-.314c-.093.084-.242.152-.269.254-.105.383-.152.783-.262,1.165-.044.151-.2.269-.3.4-.138-.119-.368-.219-.4-.361a5.325,5.325,0,0,1-.078-1.338m13.288,29.913a11.157,11.157,0,0,0,.464-1.374.778.778,0,0,0-.274-.588.557.557,0,0,0-.53-.027,2.008,2.008,0,0,0-1.12,1.779c.054,1.171.079,2.343.133,3.513a1.183,1.183,0,0,0,.181.391c.1-.12.25-.226.288-.363.3-1.067.575-2.139.858-3.331m4.369.485a11.087,11.087,0,0,0-.028-1.748,1.246,1.246,0,0,0-.608-.687c-.492-.289-.763.228-1.1.438-.107.068-.142.408-.075.568.5,1.2,1.037,2.39,1.569,3.58.036.08.124.137.188.2.057-.117.167-.236.163-.351-.022-.628-.072-1.256-.113-2.005m-1.578-4.854c-.519.523-.508.543.2.794a6.355,6.355,0,0,1,.7.35c.644.323.675.3.676-.4q0-.725,0-1.45,0-.191,0-.383c-.152.031-.34.016-.449.1-.371.291-.714.618-1.128.992m-3.337.91c.6-.6.593-.592-.128-1.1-.13-.092-.219-.243-.349-.334-.1-.072-.265-.156-.359-.122a.419.419,0,0,0-.187.325c-.019.586-.027,1.174,0,1.758.008.147.177.286.271.429.071-.1.14-.2.215-.3C103.217,1186.605,103.376,1186.409,103.594,1186.15Z" transform="translate(-85.218 -1135.151)"/>
        <path id="Path_27761" data-name="Path 27761" d="M212.76,1415.361c1.229-.4,2.395-.8,3.567-1.192a1.138,1.138,0,0,1,.536-.016c.347.062.431.356.191.614a5.624,5.624,0,0,1-3.054,1.544,13.514,13.514,0,0,1-8.475-.974,1.7,1.7,0,0,1-.7-.479.854.854,0,0,1-.089-.715c.051-.122.45-.216.626-.147.817.318,1.593.743,2.416,1.043a9.292,9.292,0,0,0,4.677.323A2.436,2.436,0,0,1,212.76,1415.361Z" transform="translate(-190.197 -1380.137)"/>
        <path id="Path_27762" data-name="Path 27762" d="M287.752,1289.378a4.771,4.771,0,0,0-3.679.2,1.581,1.581,0,0,1-.885-.062c-.066-.018-.122-.4-.045-.535a1.577,1.577,0,0,1,.553-.535,5.044,5.044,0,0,1,6.05.735c.264.246.445.563.2.805-.147.145-.574.1-.835.016A10.258,10.258,0,0,1,287.752,1289.378Z" transform="translate(-259.091 -1269.232)"/>
        <path id="Path_27763" data-name="Path 27763" d="M172.669,1291.937a5.234,5.234,0,0,0-4.313.272c-.435.2-.991.532-1.257-.065-.242-.543.376-.8.761-1.018a6.661,6.661,0,0,1,5.343-.351,1.446,1.446,0,0,1,.25.126c.556.283.99.953.742,1.087a2.647,2.647,0,0,1-1.168.06A1.007,1.007,0,0,1,172.669,1291.937Z" transform="translate(-157.114 -1271.549)"/>
        <path id="Path_27764" data-name="Path 27764" d="M253.844,1363.467a6.079,6.079,0,0,1-.992.486.556.556,0,0,1-.507-.143.571.571,0,0,1,.11-.511,4.254,4.254,0,0,1,.831-.764.707.707,0,0,0,.254-1.01c-.108-.238-.221-.475-.343-.707a.5.5,0,0,1,.295-.728c.163-.08.568-.013.63.108a6.6,6.6,0,0,1,.7,1.764C254.943,1362.655,254.274,1362.994,253.844,1363.467Z" transform="translate(-232.04 -1332.764)"/>
        <path id="Path_27765" data-name="Path 27765" d="M240.805,1443.362c-1.074.081-2.087.178-3.1.222-.133.006-.341-.242-.394-.411-.032-.1.144-.3.268-.411a.721.721,0,0,1,.412-.158c.92-.041,1.842-.092,2.762-.075a2.294,2.294,0,0,1,.782.344A7.6,7.6,0,0,1,240.805,1443.362Z" transform="translate(-218.849 -1405.226)"/>
        <path id="Path_27766" data-name="Path 27766" d="M193.357,1319.758a1.016,1.016,0,0,1,.316-1.335,1.205,1.205,0,0,1,1.432.238.858.858,0,0,1-.086,1.2,1.05,1.05,0,0,1-1.4.215A.934.934,0,0,1,193.357,1319.758Z" transform="translate(-180.138 -1296.063)"/>
        <path id="Path_27767" data-name="Path 27767" d="M302.577,1319.8c.212-.568.671-.573,1.088-.5a.734.734,0,0,1,.588.807c.01.446-.073.856-.541.965a.9.9,0,0,1-1.094-.4A.786.786,0,0,1,302.577,1319.8Z" transform="translate(-276.1 -1296.924)"/>
        <path id="Path_27768" data-name="Path 27768" d="M325.916,1544.627a4.09,4.09,0,0,1,.654.924,1.889,1.889,0,0,1,.145,1.209c-.473,1.119-1.065,2.188-1.622,3.271a1.251,1.251,0,0,1-.326.408c-.285.222-.526.112-.5-.225a4.82,4.82,0,0,1,.273-1.338,20.5,20.5,0,0,1,.935-2.16c.3-.594-.139-.923-.377-1.329a7.175,7.175,0,0,1-.618-1.018.5.5,0,0,1,.838-.555A4.5,4.5,0,0,1,325.916,1544.627Z" transform="translate(-295.253 -1494.082)"/>
        <path id="Path_27769" data-name="Path 27769" d="M169.231,1550.369a6.951,6.951,0,0,1-1.092-3.246,2.876,2.876,0,0,1,1.2-2.075.7.7,0,0,1,.689.045c.126.135.087.479.032.71-.036.152-.226.268-.348.4-.716.766-.371,1.554-.06,2.351.272.7.54,1.4.758,2.109.057.187-.079.433-.126.652a2.12,2.12,0,0,1-.535-.257A3.107,3.107,0,0,1,169.231,1550.369Z" transform="translate(-158.076 -1495.243)"/>
      </g>
    </g>
    <g id="Group_17674" data-name="Group 17674" transform="translate(148 127.613)" opacity="0.264">
      <g id="Group_23" data-name="Group 23" transform="translate(197.534 772.86)">
        <path id="Path_27740" data-name="Path 27740" d="M1116.837,460.967c1.354,0,2.651,0,3.947,0,.308,0,.722.095.451-.48a.579.579,0,0,1,0-.453c.3-.571-.086-.612-.481-.82a11.817,11.817,0,0,1-2.365-1.525c-1.024-.911-1.928-1.959-2.876-2.955a8.322,8.322,0,0,1-1.782-3.649,10.062,10.062,0,0,1-.34-2.221.9.9,0,0,0-.523-.824,10.742,10.742,0,0,1-2.132-1.371,2.684,2.684,0,0,1-.775-2.612c.052-.225-.286-.632-.542-.823a6.3,6.3,0,0,1-2.522-5.02,11.307,11.307,0,0,1,.642-4.413.675.675,0,0,0-.069-.5,4.83,4.83,0,0,1-.146-4.212,17.183,17.183,0,0,1,1.332-3.14,6.94,6.94,0,0,1,3.744-3.1c.435-.16.881-.29,1.306-.472a.966.966,0,0,0,.463-.389,7.367,7.367,0,0,1,3.036-2.93,32.33,32.33,0,0,1,4.134-2,9.1,9.1,0,0,1,2.6-.542,30.138,30.138,0,0,1,3.935-.118,9.809,9.809,0,0,1,6.412,2.484c.556.509,1.006,1.133,1.564,1.639a1.712,1.712,0,0,0,1.007.456,3.859,3.859,0,0,1,2.029.838,8.231,8.231,0,0,1,3.142,3.37,9.663,9.663,0,0,1,1.038,4.6c-.027.692-.024,1.387.007,2.079a.88.88,0,0,0,.244.633,3.574,3.574,0,0,1,1.27,1.961,8.431,8.431,0,0,1,.8,3.661,5.422,5.422,0,0,1-1.464,3.439,9.055,9.055,0,0,1-2.641,2.112.743.743,0,0,0-.28.66,2.667,2.667,0,0,1-.786,2.648,5.629,5.629,0,0,1-1.563,1.222,1.666,1.666,0,0,0-.792,1.295,8.841,8.841,0,0,1-1.194,3.028c-.709,1.076-1.4,2.168-2.171,3.2a15.216,15.216,0,0,1-3.895,3.525,3.029,3.029,0,0,0-.717.475,1.391,1.391,0,0,0-.306.813c0,.109.385.254.614.325,1.751.543,3.561.245,5.341.368a10.185,10.185,0,0,1,5.842,2.359,12.7,12.7,0,0,1,3.181,4.522,9.056,9.056,0,0,1,.7,5.563,1.169,1.169,0,0,1-1.218.825c-1.524.045-3.048.1-4.573.114q-7.543.073-15.085.113c-1.274.006-2.548-.105-3.822-.1-1.909.007-3.819.053-5.728.112-1.8.056-3.6.137-5.391.232-.817.043-1.632.138-2.446.229-.458.052-.773-.234-.775-.843a9.1,9.1,0,0,1,.122-1.913,26.858,26.858,0,0,1,1.056-4.123,11.568,11.568,0,0,1,3.131-4.875,8.377,8.377,0,0,1,3.182-1.649c1.02-.283,2.047-.542,3.129-.811m8.723-1.733a11.792,11.792,0,0,0,2.234-.191,18.252,18.252,0,0,0,2.455-1.033c1.343-.591,2.2-1.78,3.251-2.717a11.112,11.112,0,0,0,1.37-1.9,13.022,13.022,0,0,0,2.412-7.37c.032-.948.005-1.9.005-2.848,0-2.117-.01-4.234.007-6.35a1.1,1.1,0,0,0-.6-1.02,22.828,22.828,0,0,1-2.945-2.06,19.258,19.258,0,0,1-1.784-2.3,1.269,1.269,0,0,0-.754-.476c-.29-.025-.594.213-.9.292a17.243,17.243,0,0,1-6.669.852,13.289,13.289,0,0,1-3.234-.855c-.452-.183-.617-.049-.819.321a19.96,19.96,0,0,1-1.372,2.315,7.223,7.223,0,0,1-3.322,2.568.744.744,0,0,0-.6.806q.074,3.093.118,6.187c.013.872-.04,1.748.012,2.617.078,1.321.189,2.641.347,3.955a7.59,7.59,0,0,0,1.164,3.266,15.906,15.906,0,0,0,3.3,3.525,7.462,7.462,0,0,0,1.679,1.095,17.848,17.848,0,0,0,4.648,1.321m4.217-41.3c-.865-.1-1.728-.223-2.6-.279a11.273,11.273,0,0,0-2.154.008,19.445,19.445,0,0,0-3.318.629,16.237,16.237,0,0,0-4.674,2.367c-.731.529-1.562.986-1.833,1.978a1.358,1.358,0,0,1-.546.655,2.423,2.423,0,0,1-.761.244,6.9,6.9,0,0,0-4.153,2.886,11.619,11.619,0,0,0-1.367,3.188,3.837,3.837,0,0,0,.233,3.453.9.9,0,0,1,.093.726,9.33,9.33,0,0,0-.643,5.182,4.718,4.718,0,0,0,1.5,3.05,14.633,14.633,0,0,0,2.916,1.574c.467.223.789-.052.773-.6-.019-.639-.11-1.278-.1-1.916.016-1.544.089-3.087.1-4.63,0-.54.29-.693.732-.79a3.13,3.13,0,0,0,1.173-.358,8.257,8.257,0,0,0,3.431-4.266c.36-1.237.9-1.367,2.1-.839a11.222,11.222,0,0,0,4.461,1.067,7.711,7.711,0,0,0,1.807-.229c1.272-.307,2.552-.609,3.786-1.037,1.179-.409,1.475-.215,2.147.754.4.581.74,1.216,1.2,1.752a9.794,9.794,0,0,0,3.45,2.53,1.243,1.243,0,0,1,.795,1.278c-.008,2.233,0,4.466,0,6.7,0,.522.162.644.6.548a7.354,7.354,0,0,0,4.629-3.39,3.454,3.454,0,0,0,.654-3.033c-.257-.8-.569-1.575-.832-2.369a2.037,2.037,0,0,0-.829-1.262,1.007,1.007,0,0,1-.535-1,21.4,21.4,0,0,0-.223-4.7,7.039,7.039,0,0,0-3.1-4.757c-.521-.3-1.112-.783-1.632-.737a2.761,2.761,0,0,1-2.513-1.363,8.842,8.842,0,0,0-4.778-3.021m-2.311,50.025a6.272,6.272,0,0,1-1.22.391,5.476,5.476,0,0,1-4.2-1.137,5.76,5.76,0,0,1-2.429-4.325c-.044-.933-.43-1.226-1.362-.965-.086.024-.167.067-.253.085-1.293.272-2.613.455-3.872.836a7.011,7.011,0,0,0-3.416,2.034,12.916,12.916,0,0,0-2.615,5.027c-.295,1.1-.421,2.255-.615,3.385-.07.407.125.528.521.509,1.234-.057,2.47-.085,3.706-.122,1.312-.04,2.624-.1,3.937-.112q9.765-.072,19.529-.117c2.753-.013,5.505-.006,8.258,0,.311,0,.635-.035.656-.371a10.491,10.491,0,0,0,0-2.268,10.344,10.344,0,0,0-3.673-6.32,8.687,8.687,0,0,0-4.6-2,36.277,36.277,0,0,0-3.644-.143c-.447-.017-.655.18-.792.613a11.2,11.2,0,0,1-.806,1.973,6.13,6.13,0,0,1-3.107,3.02m.982-7.336c-.2-.109-.4-.314-.6-.308a11.6,11.6,0,0,1-1.525.172c-1.231-.137-2.458-.343-3.671-.6-.374-.079-.374.04-.389.3a4.041,4.041,0,0,0,1.955,4.074,2.428,2.428,0,0,0,3.293-.534,3.759,3.759,0,0,0,.934-3.1m.52,2.6a3.072,3.072,0,0,1-1.191,1.634,3.548,3.548,0,0,1-2.986.827,4.1,4.1,0,0,1-3.231-3.044c-.053-.2-.318-.5-.447-.486-.375.051-.408.413-.342.718a5.9,5.9,0,0,0,2.259,3.563,3.94,3.94,0,0,0,5.719-.881,10.439,10.439,0,0,0,1.488-3.08,4.543,4.543,0,0,0,.1-.541,5.109,5.109,0,0,0-.817.178c-.1.038-.146.235-.2.365-.1.227-.194.458-.348.745m-17.792-17.792c.269.788.988,1.092,1.614,1.5a2.83,2.83,0,0,0,.318.155,1.2,1.2,0,0,0,.139-.4,10.471,10.471,0,0,1-.095-1.107.837.837,0,0,0-.714-.963c-.274-.078-.534-.206-.811-.269-.167-.038-.44-.063-.51.027a1.105,1.105,0,0,0-.152.611c0,.129.1.263.21.452m28.767.116c.217-.577.13-1-.227-1.1-.457-.131-1.334.21-1.38.579-.076.61-.1,1.228-.118,1.844,0,.11.1.224.151.335a1.225,1.225,0,0,0,.314-.177A14.707,14.707,0,0,0,1139.944,445.543Z" transform="translate(-1106.217 -416.366)"/>
        <path id="Path_27770" data-name="Path 27770" d="M1231.59,715.567a10.647,10.647,0,0,0,6.435-.709,1.012,1.012,0,0,1,.588-.083.8.8,0,0,1,.462.375c.039.078-.145.331-.283.422a9.232,9.232,0,0,1-6.047,1.253,13.147,13.147,0,0,1-4.356-1.03c-.179-.079-.411-.16-.493-.309a1.033,1.033,0,0,1-.142-.729c.09-.258.343-.253.654-.144C1229.435,714.973,1230.489,715.255,1231.59,715.567Z" transform="translate(-1213.691 -680.093)"/>
        <path id="Path_27771" data-name="Path 27771" d="M1190.619,592.681a5,5,0,0,0-3.833.083,9.061,9.061,0,0,1-1.03.426.964.964,0,0,1-.729-.124c-.308-.245.024-.432.188-.575a5.9,5.9,0,0,1,6.012-.582c.287.154.687.339.479.731-.07.133-.54.054-.828.07A.758.758,0,0,1,1190.619,592.681Z" transform="translate(-1175.811 -571.101)"/>
        <path id="Path_27772" data-name="Path 27772" d="M1307.651,592.614a4.787,4.787,0,0,0-2.515-.125,7.21,7.21,0,0,1-1.4.226,1.668,1.668,0,0,1-.587-.192c.106-.239.148-.59.331-.694a3.6,3.6,0,0,1,1.172-.363,6.523,6.523,0,0,1,3.5.231,4.244,4.244,0,0,1,1.031.564c.149.113.18.384.264.583a2.049,2.049,0,0,1-.744.158A7.667,7.667,0,0,1,1307.651,592.614Z" transform="translate(-1280.393 -571.12)"/>
        <path id="Path_27773" data-name="Path 27773" d="M1273.607,662.6c-.539.3-.459-.077-.456-.338a.243.243,0,0,1,.112-.178c1.264-.645.553-1.609.41-2.483a1.6,1.6,0,0,1-.047-.658.654.654,0,0,1,.407-.365c.095-.027.333.145.37.269.183.617.324,1.247.474,1.874a5.038,5.038,0,0,1,.115.584C1275.071,661.985,1274.49,662.548,1273.607,662.6Z" transform="translate(-1253.859 -630.594)"/>
        <path id="Path_27774" data-name="Path 27774" d="M1262.611,743.824c-.13.193-.254.438-.389.444-.831.036-1.665.043-2.495,0-.2-.01-.388-.245-.582-.377.129-.177.222-.417.4-.518A3.917,3.917,0,0,1,1262.611,743.824Z" transform="translate(-1241.477 -705.463)"/>
        <path id="Path_27775" data-name="Path 27775" d="M1324.145,623.818c.492-.878.989-.963,1.5-.264a.888.888,0,0,1,.095.763.942.942,0,0,1-.659.407C1324.549,624.788,1324.181,624.412,1324.145,623.818Z" transform="translate(-1298.967 -599.204)"/>
        <path id="Path_27776" data-name="Path 27776" d="M1212.638,623.618c-.4-.184-.687-.458-.557-.856a1.081,1.081,0,0,1,.57-.62.673.673,0,0,1,.895.261c.1.2.2.582.111.666A3.908,3.908,0,0,1,1212.638,623.618Z" transform="translate(-1199.822 -598.311)"/>
      </g>
      <path id="Path_27778" data-name="Path 27778" d="M-4214.405,4333.576v-7.567s4.093-2.042,4.89-5.265c1.723-1.49,4.022.423,4.022.423s4.211.4,5.023,0,3.516-1.252,3.516-1.252l2.12,2.341,3.252,2.569.792,1.183.269,7.567,1.964-.172,3.859-2.378,1.563-3.311-1.562-4.963-1.338-.991.205-4.452-1.958-4.129-3-1.715-1.12-.229s-3.62-6.553-12.99-4.524-8.985,5.837-8.985,5.837l-3.987,1.442-2.745,5.227s-.545,2.367.282,3.719c-.291,1.693-.862,5.552-.862,5.552l1.367,3,2.2,1.333,1.725.757Z" transform="translate(4419.671 -3533.12)"/>
    </g>
    <g id="Group_17676" data-name="Group 17676" transform="translate(351 -257.542)" opacity="0.264">
      <path id="Path_27780" data-name="Path 27780" d="M-4223.605,4454.063v10.81l-1.363,9.216,2.081-1.247,3.573-2.529,1.1-1.253.5-1.588,2.514-.433s1.286-.333,1.515-.377.435-.689.435-.689-3.31-2.484-4.2-4.492-2.84-6.286-2.84-6.286l-2.988-2.252Z" transform="translate(4419.142 -3539.908)" stroke="#707070" stroke-width="0.5"/>
      <g id="Group_25" data-name="Group 25" transform="translate(190.943 887.015)">
        <path id="Path_27738" data-name="Path 27738" d="M1068.063,1172.121c0-2.444-.035-4.828.009-7.21a17.94,17.94,0,0,1,2.034-8.09,19.839,19.839,0,0,1,4.148-5.364,4.2,4.2,0,0,1,1.064-.7c1.34-.631,2.677-1.272,4.049-1.828a17.025,17.025,0,0,1,7.594-.818,21.558,21.558,0,0,1,4.749.864,11.546,11.546,0,0,1,4.459,2.474,19.626,19.626,0,0,1,4.429,6.367,17.844,17.844,0,0,1,1.394,4.728,41.346,41.346,0,0,1,.3,8.661,44.606,44.606,0,0,1-.914,5.395c-.207,1.259-.393,2.524-.508,3.793-.165,1.814-.353,3.635-.353,5.454s.209,3.637.349,5.454a7.734,7.734,0,0,0,.257,1.557,1.661,1.661,0,0,0,.539.814,8.511,8.511,0,0,1,3.186,4.345,19.63,19.63,0,0,1,.674,3.537,24.02,24.02,0,0,1,.016,3.161,1.335,1.335,0,0,1-1.437,1.3c-3.287,0-6.573-.014-9.86.005-4.3.025-8.593.094-12.89.112-1.626.007-3.252-.106-4.879-.107-1.585,0-3.17.073-4.755.114-1.544.041-3.089.131-4.632.1a11.426,11.426,0,0,1-2.55-.384,1.055,1.055,0,0,1-.515-.8,13,13,0,0,1,.727-5.6c.255-.673.682-1.283.914-1.962a41.06,41.06,0,0,0,1.273-4.214c.346-1.539.523-3.117.758-4.681.071-.472.091-.951.127-1.427.373-4.994.218-10,.247-15.057m20.9-11.589a13.671,13.671,0,0,1-5.458,1.093c-1.688.081-3.386-.047-5.073.034a4.97,4.97,0,0,0-4.185,2.745c-.468.81-.846,1.679-1.38,2.441a1.565,1.565,0,0,0-.231,1.018c0,.209.115.419.108.627-.023.744-.1,1.486-.11,2.23-.017,1.746-.03,3.493.009,5.238a4.506,4.506,0,0,0,.316,1.589c.565,1.368,1.181,2.717,1.82,4.053a13.523,13.523,0,0,0,3.865,4.738,11.488,11.488,0,0,0,6.885,2.4,8,8,0,0,0,2.308-.357,11.231,11.231,0,0,0,5.829-3.745,33.286,33.286,0,0,0,2.705-3.928,5.446,5.446,0,0,0,.993-2.342c.156-2.894.143-5.8.161-8.7.007-1.133-.116-2.267-.1-3.4a5.053,5.053,0,0,0-.577-2.294,17.715,17.715,0,0,0-4.87-5.724c-.308-.26-.623-.3-.8.191a3.76,3.76,0,0,1-2.207,2.089m-23.733,43.089c-.076,1.149-.054,1.184,1.188,1.169,2.613-.032,5.226-.129,7.839-.107,2.863.024,5.726.162,8.589.23q3.641.086,7.284.119c.907.007,1.815-.1,2.723-.111,3.455-.051,6.91-.086,10.365-.127a1.751,1.751,0,0,0,.61-.016.853.853,0,0,0,.466-.433,2.692,2.692,0,0,0,.13-1.052c-.136-1.352-.234-2.717-.5-4.045a7.462,7.462,0,0,0-2.222-3.87,10.281,10.281,0,0,0-4.417-2.558,1.08,1.08,0,0,0-1.088.132,15.942,15.942,0,0,1-5.888,2.747.7.7,0,0,0-.551.8c.11,1.32.172,2.643.257,3.965.027.429-.08.888-.5.942-.164.021-.41-.568-.61-.885-.028-.044,0-.121,0-.182-.081-1.014-.154-2.029-.251-3.041-.033-.342-.022-.841-.225-.974-.258-.17-.714-.061-1.082-.033a2.1,2.1,0,0,0-.539.179,4.141,4.141,0,0,1-1.98.435,16.426,16.426,0,0,0-1.8-.124c-1.512-.017-1.483-.007-1.407,1.5.078,1.542.109,3.088.113,4.633,0,.255-.249.51-.382.766-.2-.238-.511-.454-.561-.72a15.835,15.835,0,0,1-.147-1.917c-.083-1.343-.15-2.686-.265-4.026a.728.728,0,0,0-.421-.474c-.748-.28-1.525-.482-2.275-.759a9.873,9.873,0,0,1-4.165-2.743c-.628-.724-.89-.727-1.694-.216a15.589,15.589,0,0,0-4.114,3.865,12.978,12.978,0,0,0-2.477,6.927m31.5-42.349a8.337,8.337,0,0,1,1.913,5.556c-.038.436.186.627.618.61a1.845,1.845,0,0,1,1.713.486c.045.054.189.058.275.036.049-.013.1-.128.1-.194-.075-1.076-.137-2.153-.248-3.225a20.458,20.458,0,0,0-.4-2.854,17.411,17.411,0,0,0-2.275-5.653,15.465,15.465,0,0,0-2.84-3.678,12.645,12.645,0,0,0-5.173-2.528,23.355,23.355,0,0,0-3.8-.5,19.144,19.144,0,0,0-4.081.021,15.571,15.571,0,0,0-5.853,2.06,14.527,14.527,0,0,0-1.967,1.333,10.306,10.306,0,0,0-1.488,1.717,23.5,23.5,0,0,0-2.17,3.229,13.426,13.426,0,0,0-1.51,5.164c-.084,1.4-.175,2.807-.228,4.212,0,.117.361.368.384.349.5-.414.985-.156,1.489-.022a.5.5,0,0,0,.435-.225c.2-.577.294-1.193.519-1.758a8.793,8.793,0,0,1,3.025-4.039,7.166,7.166,0,0,1,4.121-1.2c1.029-.029,2.06.083,3.091.107a16.378,16.378,0,0,0,5.418-.756,3.214,3.214,0,0,0,2.394-2.169c.285-.992.947-1.158,1.8-.572a13.875,13.875,0,0,1,1.871,1.417c.979.959,1.876,2,2.87,3.069m-26.014,30.7a4.739,4.739,0,0,1,.808-.426c.785-.24,1.373-.619,1.354-1.551a.6.6,0,0,1,.088-.27c.856-1.607,2.42-2.048,4.016-2.44a3.982,3.982,0,0,0,.427-.156c-.084-.1-.164-.208-.253-.3a28.143,28.143,0,0,1-2.65-2.9,17.016,17.016,0,0,1-2.273-4.963c-.158-.54-.565-1.013-.686-1.556a1.266,1.266,0,0,0-.588-.871,16.166,16.166,0,0,1-1.305-1.149,1.566,1.566,0,0,0-.356-.178,1.065,1.065,0,0,0-.117.344c.031,1.051.115,2.1.109,3.151-.01,1.789-.042,3.58-.124,5.367s-.218,3.553-.369,5.327c-.073.856-.238,1.7-.361,2.557-.082.561-.175,1.121-.238,1.684-.013.119.078.251.121.376a2.445,2.445,0,0,0,.3-.2c.68-.592,1.356-1.188,2.095-1.845m23.794-4.562a13.718,13.718,0,0,1,2.138,1.066,2.421,2.421,0,0,1,.892,2.846c-.075.255-.024.477.367.545a11.841,11.841,0,0,1,1.463.47c.127.04.339.088.389.028a.606.606,0,0,0,.106-.438c-.106-.691-.3-1.373-.348-2.066-.088-1.335-.1-2.675-.134-4.013a23.662,23.662,0,0,1,.009-2.462c.121-1.455.3-2.9.487-4.353.111-.869.283-1.729.421-2.595a2.208,2.208,0,0,0,0-.371,1.545,1.545,0,0,0-.372.14,7.256,7.256,0,0,0-1.02.793,1.192,1.192,0,0,0-.205.662c-.04.342.079.742-.058,1.027a33.368,33.368,0,0,1-2.145,4.093c-.878,1.314-2,2.461-3.013,3.688a2.842,2.842,0,0,0-.269.5c.158.063.314.13.473.189a6.183,6.183,0,0,0,.821.247m-7.089,7.212a4.357,4.357,0,0,0,1.442-2.352,5.854,5.854,0,0,0,0-2.218c-.044-.325-.282-.67-.872-.475a6.248,6.248,0,0,1-2.156.276c-1.081-.039-2.155-.231-3.234-.344-.3-.032-.637-.066-.6.428a16.614,16.614,0,0,0,.151,2.3,8.376,8.376,0,0,0,.872,2.46,1.743,1.743,0,0,0,1.926,1,7.189,7.189,0,0,0,2.479-1.08m-10.171-.308a10.846,10.846,0,0,0,3.714.986c.22.023.441.042.662.062-.1-.225-.188-.457-.306-.673a6.234,6.234,0,0,1-.808-4.551c.269-1.138.225-1.3-.72-1.511a5.843,5.843,0,0,0-1.754.021,6.172,6.172,0,0,0-3.074,1.042,1.551,1.551,0,0,0-.439,2.272,7.543,7.543,0,0,0,2.724,2.351m16.644-5.794c-.667-.174-1.332-.353-2-.515a.636.636,0,0,0-.4.029,10.731,10.731,0,0,0-1.206.652c-.251.165-.479.365-.293.767a3.743,3.743,0,0,1,.255,1.062,5.436,5.436,0,0,1-.959,3.725.987.987,0,0,0-.068.338,1.122,1.122,0,0,0,.339-.006,17.161,17.161,0,0,0,6.12-3.046c.832-.737.836-1.353-.013-2.053a11.66,11.66,0,0,0-1.777-.951m-23.979-15.1c.318.565.626,1.136.962,1.689.078.128.253.2.383.294a1.86,1.86,0,0,0,.127-.5c-.027-.967-.106-1.932-.107-2.9,0-.9.1-1.809.1-2.714a.859.859,0,0,0-.351-.606c-.543-.359-1.114-.069-1.36.613a6.349,6.349,0,0,0-.1,2.612,11.958,11.958,0,0,0,.353,1.507m29.712,1.11a6.753,6.753,0,0,0,.643-2.446,5.239,5.239,0,0,0-.143-2.949c-.238-.563-.684-.728-1.079-.288a1.485,1.485,0,0,0-.389.871c-.035,1.824-.022,3.648-.011,5.473a1.741,1.741,0,0,0,.153.487c.111-.122.229-.239.331-.368A3.853,3.853,0,0,0,1099.625,1174.526Z" transform="translate(-1063.974 -1148.035)"/>
        <path id="Path_27754" data-name="Path 27754" d="M1184.969,1413.057a16.752,16.752,0,0,1-1.506-.969c-.119-.088-.243-.386-.2-.438.131-.148.377-.333.529-.3a6.834,6.834,0,0,1,1.278.475,10.767,10.767,0,0,0,5.82.763,27.84,27.84,0,0,0,4.315-1.207c.036-.01.068-.051.1-.05.355.007.814-.124.948.3.043.137-.335.5-.586.622a14.377,14.377,0,0,1-7.988,1.511A18.393,18.393,0,0,1,1184.969,1413.057Z" transform="translate(-1168.551 -1378.861)"/>
        <path id="Path_27755" data-name="Path 27755" d="M1154.223,1285.336c.247.611.085.895-.524.817a17.024,17.024,0,0,1-2.316-.486,3.516,3.516,0,0,0-3.177.841c-.369.28-.7.448-1.051.123-.406-.376-.1-.716.183-1a4.184,4.184,0,0,1,4.139-1.187c.8.189,1.594.4,2.386.623C1153.985,1285.1,1154.083,1285.223,1154.223,1285.336Z" transform="translate(-1136.726 -1267.506)"/>
        <path id="Path_27756" data-name="Path 27756" d="M1267.122,1287.049c.233.372.726.677.391,1.121s-.755.169-1.163-.03a5.1,5.1,0,0,0-3.01-.734,9.768,9.768,0,0,0-1.9.6c-.346.131-.7.184-.86-.144a.917.917,0,0,1,.185-.772,2.723,2.723,0,0,1,2.007-.93A6.83,6.83,0,0,1,1267.122,1287.049Z" transform="translate(-1236.31 -1269.095)"/>
        <path id="Path_27757" data-name="Path 27757" d="M1231.475,1349.259c.584-.5.881-.455,1.137.224a17.323,17.323,0,0,1,.668,2.117,1.023,1.023,0,0,1-.651,1.3,14.186,14.186,0,0,1-1.816.5c-.137.03-.454-.147-.452-.223a.77.77,0,0,1,.239-.556,7.086,7.086,0,0,1,1.055-.559c.318-.153.474-.28.306-.716A11.8,11.8,0,0,1,1231.475,1349.259Z" transform="translate(-1209.848 -1324.155)"/>
        <path id="Path_27758" data-name="Path 27758" d="M1219.638,1440.29a4.285,4.285,0,0,1-.493-.61c.2-.125.4-.348.6-.36a21.889,21.889,0,0,1,2.354,0c.211.011.412.225.617.346-.2.167-.394.452-.616.479C1221.309,1440.24,1220.5,1440.249,1219.638,1440.29Z" transform="translate(-1200.015 -1403.381)"/>
        <path id="Path_27759" data-name="Path 27759" d="M1282.715,1315.4c-.876.421-1.659-.033-1.475-.873a1.311,1.311,0,0,1,.842-.835.881.881,0,0,1,1.049.6C1283.227,1314.7,1283.3,1315.16,1282.715,1315.4Z" transform="translate(-1254.43 -1293.253)"/>
        <path id="Path_27760" data-name="Path 27760" d="M1176.456,1315.55a.749.749,0,0,1-.5-1.039,1.155,1.155,0,0,1,.65-.725,1.092,1.092,0,0,1,.89.39,1.24,1.24,0,0,1,.128.96c-.052.192-.408.327-.651.434A1.023,1.023,0,0,1,1176.456,1315.55Z" transform="translate(-1162.103 -1293.343)"/>
      </g>
      <path id="Path_27779" data-name="Path 27779" d="M-4222.955,4440.1h2.67s2.895-6.094,4.528-6.332,10.406-.887,10.938-1.1,4.529-2.872,4.244-3.244,3,1.8,3,1.8l2.357,3.453,1.522,2.452v3.6s1.43-1.161,2.1-.634a11.762,11.762,0,0,1,1.711,2.366l-.271-7.785-2.378-6.362-2.681-3.912-3.861-2.133-5.272-1.263h-6.43l-4.06,1.786-3.143,2.268-2.893,3.62-2.077,5.083Z" transform="translate(4418.72 -3533.208)"/>
      <path id="Path_27781" data-name="Path 27781" d="M-4193.473,4465.77s3.749-3.107,5.024-5.781a8.36,8.36,0,0,0,1.083-4.168l2.47-1.554.445.682a34.252,34.252,0,0,0-1.224,7.03c-.067,3,.779,10.477.779,10.477l-4-1.321s1.546-2.522-.327-3.137-4.252-1.655-4.252-1.655Z" transform="translate(4412.534 -3540.186)"/>
    </g>
  </g>
</svg>
