<svg xmlns="http://www.w3.org/2000/svg" width="871" height="410.463" viewBox="0 0 871 410.463">
  <g id="Group_17717" data-name="Group 17717" transform="translate(-527 -526.537)">
    <g id="Group_17714" data-name="Group 17714">
      <g id="Group_17713" data-name="Group 17713">
        <text id="Range_of_highly_demanded_products_" data-name="Range of highly 
demanded products
" transform="translate(750 873)" fill="#232e3a" font-size="24" font-family="Helvetica"><tspan x="-86.725" y="0">Range of highly </tspan><tspan x="-106.072" y="29">demanded products</tspan><tspan font-family="ProximaNova-Regular, Proxima Nova"><tspan x="0" y="58"></tspan></tspan></text>
        <g id="Group_17708" data-name="Group 17708" transform="translate(-1)">
          <path id="Path_28226" data-name="Path 28226" d="M-3843.91,6774.453c.836,0,36.1-1.464,36.1-1.464l38.889,1.464,1.6,4.583V6845.7l-2.486,4.507h-74.1l-1.742-1.967Z" transform="translate(4557 -6025)" fill="#a5bdac" stroke="#707070" stroke-width="1"/>
          <g id="Group_17683" data-name="Group 17683" transform="translate(235.632 325)">
            <g id="Group_17677" data-name="Group 17677">
              <path id="Path_28211" data-name="Path 28211" d="M1137.021,57.515c0,3.751.027,7.38-.011,11.008-.019,1.883-.077,3.773-.265,5.644a4.86,4.86,0,0,1-.927,2.789,3.377,3.377,0,0,1-2.622,1.6,60.8,60.8,0,0,1-6.111-.045c-3.153-.343-6.3-.082-9.443-.212-.58-.024-1.162-.255-1.733-.221-9.015.533-18.036.137-27.054.213s-18.021.01-27.032.027a5.213,5.213,0,0,1-2.468-.538,3.019,3.019,0,0,1-1.342-2.833c-.048-4.607-.181-9.222.046-13.818.118-2.376-.079-4.767.218-7.114.328-2.584-.045-5.172.238-7.728.39-3.518-.016-7.039.233-10.542.487-6.856.149-13.715.172-20.572.006-1.87-.313-3.774-.154-5.644.161-1.886.168-3.766.216-5.651a12.308,12.308,0,0,1,.249-1.976.956.956,0,0,1,.4-.643,3.709,3.709,0,0,1,1.234-.26c1.718-.1,3.463-.02,5.152-.291,2.136-.342,4.263-.07,6.387-.212,4.937-.329,9.882-.152,14.82-.292a24.426,24.426,0,0,1,3.931-.153c2.214.3,4.445-.036,6.625.252,2.343.309,4.681-.024,7,.231,1.806.2,3.626.024,5.4.269,1.245.173,2.468.122,3.7.182,2.085.1,4.188.044,6.253.3,1.2.147,2.406.018,3.568.231,1.319.241,2.652.029,3.934.251,1.322.228,2.678-.047,3.928.262s2.512-.076,3.734.411c1.325.528,1.483.613,1.483,1.967,0,8.929-.184,17.863.053,26.786.232,8.735.1,17.466.192,26.32m-8.563-.367c.082.089.235.179.234.266a23.725,23.725,0,0,0,.482,3.959c.239,1.552.4,3.121.495,4.689.132,2.083.2,4.172.25,6.259.036,1.385.021,2.773,0,4.159-.007.434.04.659.573.623.812-.055,1.63-.011,2.446-.015a2.128,2.128,0,0,0,2.117-1.821,55.292,55.292,0,0,0,.474-5.913c-.092-12.158.305-24.319-.206-36.476-.1-2.32-.06-4.649,0-6.972.12-5.022-.258-10.047.205-15.07a57.413,57.413,0,0,0,.016-5.991c0-.285-.115-.733-.307-.821a4.136,4.136,0,0,0-1.714-.607,40.2,40.2,0,0,1-6.144-.183c-1.444-.245-2.943.031-4.425-.247-1.16-.218-2.37-.1-3.568-.229-2.15-.235-4.332.047-6.5-.266-1.577-.228-3.184.016-4.795-.226-1.812-.272-3.672-.026-5.524-.247-2.35-.281-4.753.192-7.111-.288-6.082.152-12.164-.2-18.251.2-3.663.241-7.355-.034-11.029.278-1.593.135-3.194.171-4.791.254a.907.907,0,0,0-.929.887c-.112,1.268-.238,2.541-.244,3.812-.026,5.709.045,11.418-.027,17.126s.269,11.434-.209,17.149c-.228,2.728.107,5.473-.225,8.22-.294,2.43.042,4.9-.24,7.361-.307,2.675-.008,5.386-.23,8.094-.253,3.078-.085,6.194-.036,9.292a5.947,5.947,0,0,0,.482,1.872,1.234,1.234,0,0,0,1.459.536c.172-.091.22-.519.231-.8.139-3.471-.261-6.955.25-10.419a35.035,35.035,0,0,1,.518-3.7A42.524,42.524,0,0,1,1064.4,54.5c.833-1.785,1.557-3.69,3.057-5.1a.706.706,0,0,0,.161-1.024,6.23,6.23,0,0,1-.786-2.11A8.041,8.041,0,0,1,1068,40.895a7.655,7.655,0,0,1,2.913-2.781,4.542,4.542,0,0,1,3.788-.432,16.045,16.045,0,0,1,1.813.349,9.173,9.173,0,0,1,3,1.945,6.923,6.923,0,0,1,1.565,6.326,14.205,14.205,0,0,1-1.341,3.482c-.194.424-.263.639.029,1.039a6.217,6.217,0,0,1,.725,1.528c.353.956.656,1.93.992,2.893a1.257,1.257,0,0,0,.244.313c.08-.107.234-.219.228-.321a8.653,8.653,0,0,1,.772-3.357,14.238,14.238,0,0,1,6.376-8.175c.5-.265.335-.473.193-.692a8.417,8.417,0,0,1-1.422-4.05,13.807,13.807,0,0,1,.9-6.34,9.433,9.433,0,0,1,3.159-4.31A8.524,8.524,0,0,1,1094.811,27c.794-.2,1.812-.359,2.356.743.113.228.574.31.891.4.224.066.494-.016.71.061a11.525,11.525,0,0,1,5.334,3.636,7.79,7.79,0,0,1,1.362,2.979,9.191,9.191,0,0,1,.028,3.964,12.152,12.152,0,0,1-1.773,4.407c-.232.365-.23.511.054.783a16.165,16.165,0,0,1,2.061,2.085,17.343,17.343,0,0,1,3.3,8.783,1.623,1.623,0,0,0,.206.471,2.537,2.537,0,0,0,.272-.409,14.166,14.166,0,0,1,3.786-5.378c.443-.38.451-.5.2-.877a8.429,8.429,0,0,1-1.553-4.991,8.6,8.6,0,0,1,3.178-6.5,3.9,3.9,0,0,1,3.029-.923c.459.055.909.206,1.368.228a3.269,3.269,0,0,1,1.464.32,7.918,7.918,0,0,0,2.193.886,4.781,4.781,0,0,1,2.838,1.728,6.362,6.362,0,0,1,1.332,2.989,8.17,8.17,0,0,1,.093,3.229,10.359,10.359,0,0,1-1.161,3.569c-.2.333-.12.537.074.847a14.99,14.99,0,0,1,2,7.12m-21.042.245a9.087,9.087,0,0,1-.227-1.731,14.573,14.573,0,0,0-1.009-4.969,13.845,13.845,0,0,0-3.088-5.193c-.548-.621-.844-.609-1.5-.139-.316.225-.626.458-.936.691a6.67,6.67,0,0,1-4.131.969,8.355,8.355,0,0,1-4.549-1.428c-1.377-.829-1.408-.9-2.628.03-.225.171-.379.442-.613.594-2.447,1.585-3.664,4.067-4.51,6.666a47.684,47.684,0,0,0-1.579,7.065c-.317,1.938-.492,3.889-.616,5.82-.21,3.286-.063,6.6-.055,9.9,0,.855.09.914.985.938,5.1.135,10.2-.193,15.3.2,2.794.218,5.619.045,8.43.031.378,0,.879.208,1.089-.267.095-.215-.076-.544-.115-.824a3.077,3.077,0,0,1,0-.366c-.1-5.914.238-11.834-.245-17.987m13.09-4.526c-.552-.144-1.1-.307-1.655-.427a10.492,10.492,0,0,1-3.35-1.648c-.743-.472-.742-.5-1.354.12-2.173,2.2-3.283,5.052-4.739,7.691a1.408,1.408,0,0,0-.031.717c.073.985.234,1.97.225,2.954-.016,1.922-.012,3.84-.175,5.769-.218,2.589-.058,5.209-.052,7.816,0,.891.083.977.937.984,5.629.043,11.26-.131,16.885.236,1.119.073,1.121.008,1.017-1.164-.014-.162.006-.326,0-.489-.085-1.473.03-2.94-.193-4.428-.246-1.647,0-3.349-.272-5.027-.2-1.21-.084-2.473-.306-3.676-.131-.708-.124-1.408-.221-2.1-.2-1.413-.476-2.813-.719-4.22a14.826,14.826,0,0,0-.965-4.245c-.321-.647-.391-.75-.868-.322a6.507,6.507,0,0,1-4.162,1.463M1072.55,76.6q3.482,0,6.965,0c1.115,0,1.11,0,.99-1.082a6.7,6.7,0,0,1,0-.733c0-2-.031-3.992.008-5.988.048-2.452.154-4.9.239-7.353a3.626,3.626,0,0,1,.073-.457c.138-.839.284-1.677.409-2.518a1.022,1.022,0,0,0-.345-.963,2.618,2.618,0,0,1-.618-.957c-.438-1.164-.836-2.343-1.233-3.522-.535-1.59-.6-1.618-2.073-.9a5.8,5.8,0,0,1-6.546-.423c-.468-.358-.913-.747-1.37-1.121-.269-.22-.548-.311-.775.036-.419.639-.855,1.27-1.219,1.939a28.733,28.733,0,0,0-2.187,5.323c-.425,1.382-.641,2.827-1.012,4.228-.259.981-.34,1.987-.529,2.968a25.061,25.061,0,0,0-.4,3.353c-.135,2.437-.046,4.886-.04,7.33,0,1.069.012,1.1,1.088,1.072,1.719-.051,3.435-.173,5.154-.23,1.058-.035,2.118-.007,3.422-.007m24.956-31.318c.719-.229,1.446-.437,2.155-.693a6.928,6.928,0,0,0,3.537-3.624,7.448,7.448,0,0,0,.781-6.051,7.946,7.946,0,0,0-4.965-4.842c-1.437-.577-2.953-.7-4.4-1.162a1.3,1.3,0,0,0-.863.231,8.378,8.378,0,0,0-4.181,6.813,28.031,28.031,0,0,0-.018,2.806,5.157,5.157,0,0,0,.862,2.812c1.579,2.468,3.967,3.574,7.092,3.709m16.515.367a7.652,7.652,0,0,0,5.449,4.911,7.1,7.1,0,0,0,2.691-.1c1.36-.208,2.015-1.287,2.638-2.37a7.493,7.493,0,0,0,.927-5.5,3.886,3.886,0,0,0-1.779-2.88,16.843,16.843,0,0,0-2.481-.789c-.934-.295-2.016-.19-2.753-1.037a.61.61,0,0,0-.522-.169,11.172,11.172,0,0,0-1.877.77,5.5,5.5,0,0,0-2.3,3.292,4.624,4.624,0,0,0,.011,3.875M1073.04,38.92a4.948,4.948,0,0,0-.992.254,6.285,6.285,0,0,0-3.53,4.6,3.843,3.843,0,0,0-.215,1.6,10.619,10.619,0,0,0,1.542,3.391,4.914,4.914,0,0,0,5.857,2.128,3.739,3.739,0,0,0,1.751-1.02A8.137,8.137,0,0,0,1079.2,46.7a6.18,6.18,0,0,0,.2-3.6,5.04,5.04,0,0,0-3.609-3.453C1074.948,39.422,1074.118,39.165,1073.04,38.92Z" transform="translate(-582.562 423)" stroke="#000" stroke-width="1"/>
              <path id="Path_28216" data-name="Path 28216" d="M1185.035,91.609c-.494.82-.857,1.631-1.379,2.322a1.078,1.078,0,0,1-1.74.07c-.5-.446-1.031-1.211-1.538-1.2s-1,.8-1.47,1.271c-2.744,2.734-5.493,5.463-8.214,8.22-1.272,1.289-2.5,2.625-3.721,3.962-1.118,1.222-2.009.955-2.877.031-.916-.975-1.876-1.91-2.835-2.844-2.815-2.745-5.621-5.5-8.469-8.21-1.207-1.15-2.518-2.19-3.762-3.3a.825.825,0,0,0-1.169-.084c-1.77,1.346-3.516,2.723-5.3,4.057-1.737,1.3-3.509,2.557-5.255,3.847-1.688,1.247-3.361,2.516-5.045,3.769-1.713,1.275-3.443,2.527-5.144,3.818-1.371,1.041-2.709,2.126-4.064,3.187-.306.239-.714.4-.916.706-.385.577-.694-.065-1.028.016.005-.331-.127-.783.039-.973a20.894,20.894,0,0,1,2.324-2.342c1.348-1.121,2.766-2.158,4.169-3.212q2.514-1.89,5.053-3.748c1.373-1.009,2.763-2,4.137-3,1.628-1.195,3.232-2.421,4.872-3.6,1.534-1.1,3.1-2.159,4.655-3.23a5.2,5.2,0,0,1,.5-.263c.567-.3,1.2-.94,1.684-.841a5.149,5.149,0,0,1,2.024,1.265c3.149,2.653,6.084,5.536,8.983,8.459,1.3,1.315,2.7,2.532,4.035,3.821a17.087,17.087,0,0,1,1.133,1.361c.473.565.756.6,1.262.081q2.483-2.57,4.933-5.172c1.161-1.227,2.274-2.5,3.47-3.694,1.428-1.422,2.905-2.8,4.4-4.15.471-.428.309-.782,0-1.11a7.759,7.759,0,0,0-1.011-.789c-.778-.6-.7-1.175.162-1.693a29.393,29.393,0,0,1,4.978-1.865,23.246,23.246,0,0,1,2.428-.637c.458-.12,1.046-.349,1.285.14a1.681,1.681,0,0,1,.312,1.49,23.432,23.432,0,0,1-1.759,3.677C1185.131,91.313,1185.125,91.437,1185.035,91.609Z" transform="translate(-637.977 347.74)" stroke="#000" stroke-width="1"/>
            </g>
          </g>
        </g>
      </g>
      <g id="Group_17712" data-name="Group 17712">
        <text id="Own_branding_white_label_website_" data-name="Own branding 
(white label website)" transform="translate(1169 873)" fill="#232e3a" font-size="24" font-family="Helvetica"><tspan x="-78.047" y="0">Own branding </tspan><tspan x="-108.715" y="29">(white label website)</tspan></text>
        <g id="Group_17707" data-name="Group 17707" transform="translate(-1)">
          <path id="Path_28228" data-name="Path 28228" d="M-3843.91,6774.453c.836,0,36.1-1.464,36.1-1.464l38.889,1.464,1.6,4.583V6845.7l-2.486,4.507h-74.1l-1.742-1.967Z" transform="translate(4976 -6025)" fill="#e3c8ca" stroke="#707070" stroke-width="1"/>
          <g id="Group_17685" data-name="Group 17685" transform="translate(654.585 119)">
            <g id="Group_17679" data-name="Group 17679">
              <path id="Path_28212" data-name="Path 28212" d="M1089.645,1762.352c-6.075,0-12.03-.11-17.978.05-2.656.071-5.314.2-7.972.182-1.108-.006-2.217-.133-3.323-.239a2.6,2.6,0,0,1-1.79-1.674,15.562,15.562,0,0,1-.244-2.343c-.026-3.261-.043-6.523,0-9.784.043-3.514-.011-7.041.292-10.535.214-2.464-.054-4.926.218-7.361.407-3.638-.016-7.283.238-10.908.48-6.856.086-13.715.207-20.571.024-1.35-.224-2.705-.213-4.057.02-2.291.133-4.581.235-6.87a16.187,16.187,0,0,1,.247-2.1.941.941,0,0,1,.954-.869,44.414,44.414,0,0,0,4.543-.265c2.455-.363,4.93.032,7.358-.263,2.789-.339,5.564-.112,8.343-.191,4.164-.118,8.334-.3,12.495-.2,2.369.055,4.762,0,7.11.252,1.937.211,3.867-.026,5.772.218,1.765.226,3.549,0,5.277.264,1.816.274,3.61.088,5.41.193a39.319,39.319,0,0,1,4.417.287c1.079.187,2.163.031,3.2.231a39.445,39.445,0,0,0,5.041.225c1.892.123,3.779.324,5.669.478a1.882,1.882,0,0,1,1.96,2.111c0,9.54-.193,19.085.07,28.618.168,6.086.089,12.165.16,18.247s.032,12.149,0,18.224c-.007,1.6-.118,3.2-.243,4.79a4.806,4.806,0,0,1-2.53,4.056,2.424,2.424,0,0,1-1.1.281,42.755,42.755,0,0,1-5.376-.032c-1.646-.183-3.306.011-4.911-.244a37.085,37.085,0,0,0-5.777-.186c-9.214-.033-18.427-.015-27.764-.015m46.243-23.366c-.14-7.019.006-14.038-.167-21.062-.19-7.7-.364-15.427.15-23.138.116-1.745.024-3.505.012-5.258,0-.433.092-1.072-.141-1.255a3.912,3.912,0,0,0-1.595-.532,8.122,8.122,0,0,0-1.1-.017,31.424,31.424,0,0,1-3.7-.192,39.778,39.778,0,0,0-4.782-.3c-1.434-.084-2.861-.016-4.309-.186-2.429-.286-4.9-.222-7.353-.3a6.309,6.309,0,0,1-1.7-.031c-1.312-.435-2.635-.092-3.944-.217a.6.6,0,0,0-.73.585c-.084.618-.159,1.238-.246,1.855a31.555,31.555,0,0,1-.933,4.26,28.613,28.613,0,0,1-2.483,6.191c-.462.824-.367,1.016.306,1.744q2.654,2.867,5.277,5.764c.506.557,1.012,1.119,1.467,1.717.915,1.2,1.792,2.437,2.688,3.655a8.51,8.51,0,0,1,1.979,4.555c.1,1.962.211,3.938.211,5.891,0,6.2.172,12.406-.136,18.616-.267,5.369-.043,10.761-.067,16.143,0,.986-.142,1.972-.239,2.956-.039.4.138.447.485.457,1.6.049,3.189.008,4.8.187,2.555.284,5.143-.056,7.727.248a54.047,54.047,0,0,0,5.866.051,2.181,2.181,0,0,0,1.374-.536c.9-.676.9-1.729,1-2.638a54.032,54.032,0,0,0,.273-5.643c.035-4.444.011-8.888.011-13.577m-75.359-34.743c-.151,7.059.281,14.124-.231,21.181-.2,2.813.132,5.636-.221,8.464-.293,2.348.033,4.732-.234,7.115-.313,2.8,0,5.63-.236,8.459-.25,3.037-.083,6.111-.035,9.168a7.405,7.405,0,0,0,.47,1.877c.042.143.189.349.306.362a25.218,25.218,0,0,0,2.954.242c1.353-.011,2.7-.2,4.057-.216,2.772-.037,5.544-.008,8.317-.013.8,0,.99-.142.727-.893a9.313,9.313,0,0,1-.213-2.6c-.121-1.758.061-3.511-.192-5.288a46.344,46.344,0,0,1-.252-5.64c-.11-6-.137-12,.2-18,.065-1.15.087-2.3.178-3.451.157-1.972.256-3.946.545-5.909a23.233,23.233,0,0,1,.292-2.7,3.945,3.945,0,0,1,.7-1.915c.944-1.01,1.795-2.106,2.7-3.156,1.551-1.806,3.09-3.623,4.674-5.4q2.6-2.917,5.277-5.763c1.2-1.275,2.463-2.5,3.715-3.722a2.1,2.1,0,0,1,2.729-.4,14.931,14.931,0,0,1,3.938,2.6c.584.542.8.508,1.185-.262.455-.91.916-1.823,1.28-2.771a21.175,21.175,0,0,0,1.428-4.793,28.486,28.486,0,0,1,.583-3.06c.281-1.143.17-1.373-.961-1.5-.242-.026-.489.008-.733-.006-1.922-.1-3.839.036-5.776-.187-2.305-.266-4.656-.006-6.99-.265a25.622,25.622,0,0,0-3.442.2c-4.368.12-8.736-.092-13.11.211-3.989.276-8,.2-12,.286a2.363,2.363,0,0,0-.244,0,1.542,1.542,0,0,0-1.127,1.205c-.088,1.678-.22,3.356-.236,5.035-.036,3.75-.011,7.5-.011,11.5m32.786-1.223a2.424,2.424,0,0,1,2.635-.892c.527.171,1.155.043,1.7.328,1.094.57,1.386.5,2.024-.422a6.316,6.316,0,0,1,.53-.755.56.56,0,0,0-.019-.927c-.807-.7-1.6-1.432-2.439-2.092-.506-.4-1.115-.661-1.647-1.029a.9.9,0,0,0-1.345.188c-.689.776-1.4,1.537-2.072,2.324-1.393,1.621-2.764,3.26-4.159,4.879-.345.4-.768.734-1.116,1.132-1.594,1.823-3.153,3.677-4.768,5.481-1.262,1.411-2.594,2.759-3.878,4.15a1.513,1.513,0,0,0-.361.7,10.514,10.514,0,0,0-.245,1.854c-.022,1.783-.28,3.538-.476,5.3-.167,1.5-.129,3.03-.219,4.547-.257,4.32.144,8.657-.262,12.987a26.022,26.022,0,0,0,.167,4.915c.276,2.844-.155,5.722.268,8.582.229,1.545-.18,3.123.018,4.687a1.715,1.715,0,0,1-.024.6c-.233.975.024,1.31,1.051,1.324,11.1.149,22.2-.308,33.291.252.917.046,1.2-.061,1.176-1.138q-.094-3.743-.2-7.484c-.119-4.038.084-8.086.2-12.129.076-2.657-.1-5.309.186-7.977s-.075-5.394.262-8.093a18.066,18.066,0,0,0-.206-2.953,35.8,35.8,0,0,0-.228-5.53,2.026,2.026,0,0,0-.464-1.042c-1.324-1.519-2.613-3.069-3.9-4.617q-2.345-2.816-4.67-5.649c-.272-.331-.491-.71-.787-1.015-.533-.551-1.105-1.063-1.661-1.591q-.715.757-1.431,1.514a1.7,1.7,0,0,1-.261.257c-.4.271-.238.505-.081.885a5.134,5.134,0,0,1-1.755,6.538,2.533,2.533,0,0,1-1.7.605,4.465,4.465,0,0,1-4.346-4.262,7.2,7.2,0,0,1,1.22-4.437m5.627,5.138a3.75,3.75,0,0,0-.016-2.714c-.1-.237-.4-.568-.591-.56a4.422,4.422,0,0,1-3.406-.947c-.174-.158-.42-.084-.686.282a4.453,4.453,0,0,0-.63,3.617c.342,1.714,2.76,3.375,4.289,1.664C1098.241,1709.121,1098.516,1708.687,1098.943,1708.157Z" transform="translate(-582.897 -1055.271)" stroke="#000" stroke-width="1"/>
              <path id="Path_28217" data-name="Path 28217" d="M1270.795,1986.907a11.316,11.316,0,0,0,.785,1.631,2.631,2.631,0,0,1-.061,3.156,5.2,5.2,0,0,1-1.038,1.013c-.261.2-.8.239-.866.459a2.462,2.462,0,0,0,.059,1.291c.492,1.865-.173,2.641-1.9,3.192a8.745,8.745,0,0,1-2.216.259c-.958.046-1.044.09-1.368,1.079a17.7,17.7,0,0,1-.748,2.135,1.733,1.733,0,0,1-2.089.909c-.728-.312-1.409-.734-2.108-1.111a2.712,2.712,0,0,1-.586-.351c-.466-.437-.79-.216-1.07.2-.254.38-.5.77-.719,1.17a1.324,1.324,0,0,1-2.256.45,16.956,16.956,0,0,1-1.81-1.819,1.243,1.243,0,0,0-1.287-.439c-.555.107-1.083.353-1.637.466-1.386.284-2.329-.594-2.554-2.245a15.692,15.692,0,0,1-.016-2.077c0-1.19-.076-1.247-1.243-1.305a7.079,7.079,0,0,1-1.244-.237c-1.317-.309-2.018-1.047-1.264-2.716a10.487,10.487,0,0,1,1.412-2.578c.54-.625.279-.979-.073-1.379a6.06,6.06,0,0,1-1.132-1.861,1.621,1.621,0,0,1,.347-1.825c.545-.583,1.175-1.087,1.764-1.629.321-.3.635-.739.42-1.086-.366-.591-.17-1.176-.195-1.754a1.387,1.387,0,0,1,1.368-1.324,17.254,17.254,0,0,0,2.218-.265.987.987,0,0,0,.542-.62c.285-.905.517-1.828.747-2.75a1.46,1.46,0,0,1,2.331-1.012c.6.31,1.22.6,1.843.866a1.215,1.215,0,0,0,1.58-.379c.415-.558.827-1.12,1.207-1.7.229-.351.3-.775.9-.76a1.544,1.544,0,0,1,1.373.556c.4.536,1.044.97,1.244,1.563.288.85.882.616,1.359.563a6.1,6.1,0,0,0,1.352-.551,11.58,11.58,0,0,1,1.817-.625c1.053-.211,1.626.318,1.632,1.4,0,.285-.019.572,0,.856.044.54.165.962.891.933a4.258,4.258,0,0,1,1.467.274,1.854,1.854,0,0,1,1.069,2.755c-.078.172-.168.338-.251.508-.389.8-.316,1.1.393,1.575.057.038.176-.014.232.025,1.337.932,1.5,1.775.6,3.176-.4.614-.813,1.213-1.221,1.941m-18.84-11.622a8.641,8.641,0,0,1-.843,3.563,1.57,1.57,0,0,1-1.55.964c-.448-.007-.9-.012-1.344,0-1.042.029-1.15.139-1.156,1.134,0,.57.039,1.144-.017,1.709a1.42,1.42,0,0,1-.366.812c-.474.472-1.037.854-1.52,1.318a1.091,1.091,0,0,0-.069,1.485c.321.445.683.86,1.032,1.285a1.824,1.824,0,0,1,.129,2.248c-.508.8-1.016,1.611-1.462,2.449-.4.751-.165,1.165.665,1.251.443.046.9-.014,1.343.012a1.864,1.864,0,0,1,1.978,2.085c0,.774-.014,1.548.005,2.322.012.488.5,1.044.846.964.478-.111.935-.312,1.415-.412a2.431,2.431,0,0,1,1.941.187,14.344,14.344,0,0,1,1.734,1.417c.963.914.947.933,1.719-.16.065-.092.109-.2.171-.3a1.734,1.734,0,0,1,2.481-.727c.713.346,1.411.722,2.129,1.055s.98.2,1.267-.549a13.76,13.76,0,0,1,1-2.266,1.519,1.519,0,0,1,1.123-.65,13.133,13.133,0,0,0,3.094-.548.9.9,0,0,0,.615-.535,4.332,4.332,0,0,0-.029-1.563c-.248-1.125-.115-1.458.877-2.051a5.747,5.747,0,0,0,1.279-1.02,1.2,1.2,0,0,0,.319-.937,7.038,7.038,0,0,0-.875-1.948,1.763,1.763,0,0,1-.323-.975,3.654,3.654,0,0,1,1.152-2.689c.48-.519.273-.743-.112-1.043-.178-.139-.4-.222-.585-.352a2.09,2.09,0,0,1-.928-2.4,7.218,7.218,0,0,1,.478-1.023c.313-.68.137-.975-.636-1.062-.161-.018-.33.022-.488-.007-1.3-.236-2.3-.648-2.061-2.131a1.808,1.808,0,0,0-.006-.729c-.08-.306-.1-.607-.659-.349-.849.394-1.829.5-2.7.861a1.616,1.616,0,0,1-1.912-.379,14.884,14.884,0,0,1-1.388-1.62c-.584-.756-.64-.75-1.171-.027a21.52,21.52,0,0,1-1.58,1.909,1.221,1.221,0,0,1-1.238.484,8.783,8.783,0,0,1-1.989-.789A2.257,2.257,0,0,0,1251.955,1975.285Z" transform="translate(-745.207 -1307.719)" stroke="#000" stroke-width="1"/>
              <path id="Path_28221" data-name="Path 28221" d="M1310.272,2047.851c-1.386,1.386-2.749,2.677-4.024,4.05a1.9,1.9,0,0,1-3.04.026c-.9-1.02-1.833-2.017-2.765-3.011a.822.822,0,0,1-.014-1.258c.862-1,1.446-1.113,2.68-.487q.253.128.5.259a1.553,1.553,0,0,0,2.032-.3c1.377-1.324,2.813-2.59,4.284-3.81,1.99-1.651,4.025-3.248,6.06-4.843.737-.578,1.347-.629,1.665-.249s.153,1.018-.406,1.669q-2.286,2.661-4.583,5.313c-.761.874-1.553,1.721-2.392,2.642m1.285-4.465c-1.717,1.554-3.421,3.122-5.155,4.656a2.615,2.615,0,0,1-3.321.338,5.108,5.108,0,0,0-1.079-.337c-.1-.024-.216.054-.325.085a.873.873,0,0,0,.117.171,33.313,33.313,0,0,1,2.466,2.265c.564.626.968.305,1.365-.041,1.056-.921,2.107-1.853,3.093-2.848,1.411-1.424,2.756-2.912,4.14-4.362.618-.647,1.27-1.262,1.888-1.91.076-.079.035-.27.049-.409-.139.02-.322-.01-.41.068A32.244,32.244,0,0,1,1311.557,2043.385Z" transform="translate(-795.144 -1365.665)" stroke="#000" stroke-width="1"/>
            </g>
          </g>
        </g>
      </g>
    </g>
    <g id="Group_17715" data-name="Group 17715" transform="translate(9)">
      <g id="Group_17710" data-name="Group 17710" transform="translate(-24)">
        <text id="More_Products_to_sell" data-name="More Products to sell" transform="translate(873 652)" fill="#232e3a" font-size="24" font-family="Helvetica"><tspan x="0" y="0">More Products to sell</tspan></text>
        <g id="Group_17705" data-name="Group 17705">
          <path id="Path_28225" data-name="Path 28225" d="M-3843.91,6774.453c.836,0,36.1-1.464,36.1-1.464l38.889,1.464,1.6,4.583V6845.7l-2.486,4.507h-74.1l-1.742-1.967Z" transform="translate(4790 -6245)" fill="#f5f8ee" stroke="#707070" stroke-width="1"/>
          <g id="Group_17686" data-name="Group 17686" transform="translate(598.055 -76)">
            <g id="Group_17680" data-name="Group 17680">
              <path id="Path_28213" data-name="Path 28213" d="M1.033,1502.454c0-5.382.019-10.642-.011-15.9-.01-1.679-.218-3.358-.216-5.036,0-1.842.132-3.685.234-5.525.035-.621.205-1.236.227-1.857.04-1.173.093-1.282,1.235-1.652a1.8,1.8,0,0,1,.439-.118c1.638-.089,3.275-.194,4.914-.244,3.309-.1,6.636.007,9.925-.3,3.523-.327,7.032-.112,10.546-.182,3.546-.07,7.1-.174,10.638.045,2.092.13,4.2-.047,6.257.23,1.691.227,3.385-.018,5.037.235,1.891.29,3.791-.015,5.647.25,1.771.253,3.544,0,5.281.247,1.159.164,2.33.013,3.445.238,1.282.259,2.574.01,3.814.241,1.564.291,3.127.064,4.673.233a38.4,38.4,0,0,0,4.448.487,1.409,1.409,0,0,1,1.271,1.288,2.184,2.184,0,0,1,0,.244,22.882,22.882,0,0,0,.2,3.087,17.425,17.425,0,0,1-.185,2.826c-.02,6.932-.225,13.872.05,20.793.265,6.659.094,13.309.167,19.962s.049,13.293-.006,19.938a37.058,37.058,0,0,1-.5,5.175,3.111,3.111,0,0,1-1.224,1.931,3.709,3.709,0,0,1-2.595.859c-2.279-.105-4.57.061-6.848-.049-10.688-.514-21.381-.139-32.071-.212-10.723-.074-21.447-.011-32.171-.025a3.32,3.32,0,0,1-2.778-.982,3.573,3.573,0,0,1-.8-2.356c-.054-4.525-.166-9.058.037-13.575.092-2.047-.05-4.114.217-6.135.357-2.7-.04-5.416.243-8.1.371-3.518-.034-7.042.264-10.54.154-1.81.113-3.606.192-5.53m58.354,45.754,11.887.244a1.079,1.079,0,0,1,.365.006c1.124.472,2.3.187,3.449.224a2.314,2.314,0,0,0,2.029-1.795,53.09,53.09,0,0,0,.474-5.668c-.08-12.648.281-25.3-.205-37.945-.1-2.728-.065-5.465,0-8.2.094-4.207-.22-8.415.2-12.625a56.568,56.568,0,0,0,.022-6.235c0-.286-.107-.725-.3-.825a4.436,4.436,0,0,0-1.713-.563c-2.329-.119-4.664.093-7-.245-1.538-.223-3.1.05-4.675-.22-1.44-.248-2.94-.052-4.421-.26-1.7-.239-3.427.005-5.161-.225-2.058-.273-4.165,0-6.257-.265-1.985-.254-4,0-6.017-.225a62.652,62.652,0,0,0-7.844-.275c-4.452.058-8.907-.253-13.358.2-2.317.237-4.654,0-7,.213-3.25.3-6.533.22-9.8.3a1.431,1.431,0,0,0-1.553,1.515c-.094,2.372-.205,4.744-.232,7.116-.013,1.148.235,2.3.214,3.446-.123,6.653.257,13.309-.2,19.964-.268,3.87.147,7.76-.24,11.644-.284,2.844.148,5.719-.242,8.586-.264,1.94-.089,3.922-.219,5.892-.228,3.461-.029,6.944-.274,10.417a30.342,30.342,0,0,0,.222,4.422c.092,1.2.325,1.4,1.541,1.375q5.394-.1,10.787-.172c7.507-.092,15.017-.149,22.532.116C43.965,1548.417,51.557,1548.208,59.387,1548.208Z" transform="translate(345.945 -868.53)" stroke="#000" stroke-width="1"/>
              <path id="Path_28218" data-name="Path 28218" d="M55.663,1563.355c-.036-.65-.474-.914-.8-.7a2.436,2.436,0,0,1-1.511.2c-2.487.026-4.974.012-7.461.012a2.337,2.337,0,0,1-.728-.017c-.195-.067-.469-.277-.475-.433a.866.866,0,0,1,.3-.7,3.055,3.055,0,0,1,1.211-.309c2.167-.105,4.339-.123,6.5-.278,1.036-.074,2.19.487,3.114-.455.037-.038.327.07.39.176a7.9,7.9,0,0,1,.907,1.7c.325,1.1.511,2.237.757,3.359.128.582.562,1,1.072.853,1.589-.468,3.217,0,4.793-.249,2.7-.421,5.41,0,8.1-.245,5.266-.47,10.541.007,15.8-.264,2.089-.108,4.173-.185,6.261-.2.27,0,.432-.008.446-.375.051-1.354.177-2.7.223-4.058.029-.853-.1-.969-.964-.946-2.291.061-4.581.153-6.871.245a2.685,2.685,0,0,0-.536.175,1.044,1.044,0,0,1-1.4-.944c-.025-.815-.036-1.632,0-2.446.042-.887.621-1.3,1.495-1.462,1.765-.334,3.579-.225,5.334-.686.744-.2,1.567.051,2.346-.252.39-.152.645-.3.6-.724-.1-.984,0-1.96-.177-2.968a20.813,20.813,0,0,1-.049-4.392c.042-1.044,1.034-1.088,1.706-1.194a12.728,12.728,0,0,1,3.049-.007,1.227,1.227,0,0,1,.827.7,6.909,6.909,0,0,1,.271,1.723c.1,1.106.225,2.215.232,3.323.006.9-.152,1.807-.222,2.712a1.8,1.8,0,0,0,.052.711.519.519,0,0,0,.414.222c2.672-.034,5.343-.094,8.015-.125a1.415,1.415,0,0,1,1.3,1.272c.068.7.155,1.4.243,2.1a.951.951,0,0,1-.691,1,3.956,3.956,0,0,1-1.357.258c-2.167.1-4.335.177-6.5.251-.9.031-.98.081-.989.937q-.019,1.774,0,3.547c.009.787.368,1.157,1.008.866a4.128,4.128,0,0,1,1.627-.206c1.6-.094,3.195-.154,4.791-.257.5-.032.992-.215,1.49-.225,1.241-.026,1.875.72,1.315,1.758-.531.985-.708,2.1-1.251,3.03-.973,1.673-1.733,3.447-2.6,5.169-1.57,3.134-2.982,6.347-4.472,9.521-.881,1.878-1.768,3.754-2.688,5.614a5.355,5.355,0,0,0-.716,2.158c-.009.216-.3.614-.417.6-.837-.1-1.645.675-2.507.051-.187-.135-.556-.02-.842-.02-6.768,0-13.54-.13-20.3.06-2.943.083-5.887.1-8.829.194a5.049,5.049,0,0,0-.878.232c-.394.088-.794.153-1.191.229.082.374.15.751.247,1.121a11.3,11.3,0,0,1,.505,2.978c0,.3.147.736.632.329.048-.04.159,0,.24-.005,4.981-.081,9.965-.278,14.942-.177a40.649,40.649,0,0,0,4.788.129c2.012-.2,4.027-.024,6.014-.245,1.156-.128,2.3-.129,3.45-.21a4.156,4.156,0,0,0,1.2-.333,1.9,1.9,0,0,1,2.159.4,16.619,16.619,0,0,1,1.719,1.738,2.962,2.962,0,0,1,.4,2.881,2.509,2.509,0,0,1-2.46,1.9,5.549,5.549,0,0,1-3.138-.387,2.645,2.645,0,0,1-1.291-1.795,7.121,7.121,0,0,1,.136-2.483c.045-.315.065-.471-.277-.441-1.432.122-2.887-.259-4.307.226a3.166,3.166,0,0,1-.974.015H68.893a7.809,7.809,0,0,1-.856-.006c-.491-.054-.44.3-.37.544a3.721,3.721,0,0,0,.48,1.021c.954,1.422.516,2.756-.323,3.99a4.014,4.014,0,0,1-4.118,1.057,3.8,3.8,0,0,1-2.187-3.183,4.246,4.246,0,0,1,.753-2.875,3.31,3.31,0,0,1,.673-.783c.832-.6.8-.577.6-1.565-.3-1.475-.509-2.968-.791-4.447-.113-.594-.345-1.165-.475-1.757-.264-1.2-.471-2.411-.745-3.608-.527-2.3-1.055-4.6-1.654-6.89-.79-3.015-1.676-6-2.439-9.021-.477-1.885-.849-3.81-1.285-5.713-.162-.707-.326-1.413-.489-2.242m43.307-15.292c0-.122,0-.245,0-.367-.037-.9-.092-.992-.947-.966-.62.019-1.236.161-1.856.23-.814.091-.892.13-.856.941.039.865.16,1.726.233,2.59.091,1.066-.194,2.155.232,3.207a1.215,1.215,0,0,1,0,.843c-.276.654-.164,1.616-1.219,1.718-.9.088-1.807.172-2.712.242-.324.025-.657-.034-.977.011-1.036.145-2.062.4-3.1.465-1.794.119-1.921.233-1.772,2.017.043.521.278.736.756.684.419-.046.829-.222,1.245-.226,2.16-.024,4.321-.019,6.482-.006.652,0,1.105.386,1.053.994-.087,1,.212,1.967.046,2.983-.245,1.495.233,3.043-.236,4.553-.049.157.4.666.629.676a10.725,10.725,0,0,0,2.239-.173,2.488,2.488,0,0,0,1.347-.519c.234-.248.158-.83.145-1.261-.066-2.168-.168-4.335-.231-6.5-.023-.806.285-1.136,1.067-1.238.24-.031.489,0,.733-.006,2.086-.079,4.173-.15,6.258-.252a4.56,4.56,0,0,0,1.355-.267c.182-.068.534-.264.3-.658a1.729,1.729,0,0,1-.176-.658,1.113,1.113,0,0,0-1.1-1.094c-.282-.03-.571.006-.855-.007-2.33-.106-4.672.227-6.994-.231-.783-.155-1.083-.4-1.085-1.237-.007-2.079,0-4.158,0-6.482m-6.728,18.962c-.509.012-1.081-.133-1.109.7-.052,1.516-.153,3.031-.238,4.546a3.988,3.988,0,0,1-.083.822c-.311,1.14-.233,1.306.919,1.259,2.249-.092,4.491.118,6.754-.182a44.17,44.17,0,0,1,5.863-.049,1.715,1.715,0,0,1,.455.081c.964.274.986.287,1.422-.615,1.182-2.444,2.322-4.909,3.531-7.34.239-.48.134-.5-.283-.448-.619.08-1.235.2-1.856.238-1.514.1-3.029.189-4.545.242a4.8,4.8,0,0,0-1.773.453.831.831,0,0,0-.624.849,1.84,1.84,0,0,1-1.927,1.894,11.942,11.942,0,0,0-2.819.288,1.257,1.257,0,0,1-1.37-.145c-.57-.434-.5-.974-.471-1.526a6.4,6.4,0,0,1,.2-.984c-.4-.029-.791-.062-1.187-.084-.2-.011-.408,0-.856,0M64.349,1575.1c3.269-.082,6.537-.174,9.806-.232.465-.008.613-.1.605-.593-.032-1.957-.005-3.914-.017-5.871,0-.8-.094-.89-.912-.879a3.37,3.37,0,0,0-1.748.208c-.281.156-.719.02-1.086.028-3.88.08-7.76.183-11.641.224-.66.007-.856.2-.759.8.019.119-.023.251.007.365.484,1.837,1,3.666,1.441,5.514.088.371.174.444.513.439,1.182-.017,2.365-.007,3.792-.007m17.861-.489c2.038,0,4.076-.005,6.114,0,.5,0,.858-.087.872-.7.007-.294.2-.581.223-.878.1-1.555.173-3.111.253-4.667.008-.162-.065-.392.017-.476.658-.678.1-.618-.36-.617-4.207.013-8.415-.075-12.617.234-.576.042-.752.3-.746.829.016,1.467-.018,2.935.017,4.4a12.96,12.96,0,0,0,.245,1.854.4.4,0,0,0,.286.254c1.858-.025,3.717-.07,5.7-.233m-21.409,3.3q.612,2.188,1.222,4.376a3.14,3.14,0,0,0,.265.983c.334.46.685-.079,1.04-.1.041,0,.081,0,.122,0a60.592,60.592,0,0,0,6.269-.462c1.584-.155,3.19.024,4.783-.243.462-.077.5-.207.5-.582-.016-1.546,0-3.092-.01-4.638-.007-.857-.078-.913-1-.923-.814-.008-1.628-.017-2.441,0q-5.076.113-10.152.244c-.821.021-.916.209-.6,1.344m24.589,13.335c.611,0,1.221-.008,1.832,0,.486.008.721-.185.745-.7.056-1.189.164-2.375.232-3.563.028-.487-.16-1.065.043-1.444.3-.56.109-1.1.209-1.628.093-.5-.185-.551-.557-.493a9.66,9.66,0,0,1-1.365.232c-3.143.032-6.288-.065-9.426.236-.506.049-.681.145-.654.666q.156,3,.246,6c.019.631.388.693.877.691,2.524-.006,5.048,0,7.816,0m15.414-15.659c-1.221,0-2.443-.029-3.663.006-2,.058-4,.167-6,.23-.431.014-.7.169-.724.592-.1,1.756-.153,3.515-.261,5.271-.029.472.154.55.553.511.942-.093,1.885-.225,2.829-.237,2.523-.033,5.048-.053,7.57.012a1.415,1.415,0,0,0,1.565-1.031c.779-1.756,1.719-3.44,2.569-5.166.024-.049-.23-.342-.35-.339-1.28.029-2.559.1-4.083.151M69.977,1584.4q-3,.122-6,.243a3.723,3.723,0,0,0-.968.026c-.2.067-.5.4-.468.554.367,1.752.784,3.493,1.2,5.234.248,1.037.258,1.056,1.25,1.034,3.14-.071,6.279-.169,9.418-.232.615-.012.873-.249.832-.859-.124-1.835.209-3.682-.227-5.517-.218-.918-.376-1.235-1.2-.937a9.35,9.35,0,0,1-2.23.214c-.457.057-.909.159-1.608.24m25.69,6.851c.528,0,1.06.035,1.584-.015a.97.97,0,0,0,.693-.336c.462-.9.846-1.843,1.272-2.764q1.042-2.252,2.109-4.492c.066-.138.22-.233.333-.348a2.266,2.266,0,0,0-.56-.113c-2.241.12-4.489-.216-6.734.207a16.727,16.727,0,0,1-3.043.031c-1.333,0-1.333,0-1.4,1.372a2.549,2.549,0,0,1,0,.365,39.606,39.606,0,0,0-.488,5.286c-.042.641.278.823.874.815,1.707-.024,3.415-.008,5.367-.008m-19.451-11.133c.473.385.2.91.233,1.367.062.852.119.976.981.949,1.8-.056,3.6-.185,5.4-.228,1.671-.04,3.343-.023,5.014,0,.612.008.839-.232.858-.843.048-1.516.151-3.031.234-4.547.053-.97.053-1.005-.847-.969-.946.038-1.889.2-2.835.224-1.671.039-3.343.011-5.015.011-.9,0-1.794-.018-2.691,0-1.019.025-1.33.351-1.335,1.341,0,.815,0,1.631,0,2.691m-13.09,22.877a2.076,2.076,0,0,0,3.248.417,1.769,1.769,0,0,0,.554-2.262c-.231-.47-.307-1.017-.543-1.483a1.691,1.691,0,0,0-2.4-.209,2.869,2.869,0,0,0-.861,3.538m33.031-4.649a1.952,1.952,0,0,0-.654.182c-.879.648-.738,1.62-.675,2.513.066.935.95,1.206,1.617,1.432a2.044,2.044,0,0,0,2.768-2.2c-.1-.972-.892-1.463-1.5-2.055C97.3,1597.809,96.843,1598.3,96.156,1598.343Z" transform="translate(306.729 -933.591)" stroke="#000" stroke-width="1"/>
            </g>
          </g>
        </g>
      </g>
      <g id="Group_17711" data-name="Group 17711" transform="translate(-12)">
        <text id="Cross_selling" data-name="Cross selling" transform="translate(1263 652)" fill="#232e3a" font-size="24" font-family="Helvetica"><tspan x="0" y="0">Cross selling</tspan></text>
        <g id="Group_17706" data-name="Group 17706">
          <path id="Path_28227" data-name="Path 28227" d="M-3843.91,6774.453c.836,0,36.1-1.464,36.1-1.464l38.889,1.464,1.6,4.583V6845.7l-2.486,4.507h-74.1l-1.742-1.967Z" transform="translate(5136 -6244)" fill="#d16c55" stroke="#707070" stroke-width="1" opacity="0.367"/>
          <g id="Group_17684" data-name="Group 17684" transform="translate(814.653 3)">
            <g id="Group_17678" data-name="Group 17678">
              <path id="Path_28215" data-name="Path 28215" d="M1058.576,872c0-.856-.027-1.591,0-2.324.521-12.48.1-24.965.26-37.447a34.4,34.4,0,0,1,.479-4.2c.085-.62.662-.746,1.137-.789,1.43-.128,2.877-.1,4.3-.279,2.94-.374,5.9.008,8.825-.269,3.927-.373,7.847-.052,11.766-.208,1.231-.049,2.461-.238,3.69-.224,3.106.034,6.228-.02,9.311.284,2.3.227,4.6-.037,6.871.225,1.685.195,3.384.013,5.032.261a37.507,37.507,0,0,0,3.943.188c2.167.1,4.349.051,6.5.3,1.156.132,2.327.015,3.443.236,1.2.238,2.41.021,3.569.24a40.762,40.762,0,0,0,4.429.225c1.121.091,2.236.284,3.343.486a1.268,1.268,0,0,1,1.138,1.177,53.921,53.921,0,0,1,.215,6.866,147.217,147.217,0,0,0-.129,15.922c.135,4.373-.074,8.751.232,13.106a39.437,39.437,0,0,1,.133,6.258,97.355,97.355,0,0,0-.128,11.765c.087,2.82.172,5.641.165,8.462a62.34,62.34,0,0,1-.279,6.865c-.143,1.262-.055,2.616-.86,3.793a3.618,3.618,0,0,1-3.134,1.871c-1.753-.008-3.507.03-5.259-.011a39.7,39.7,0,0,1-5.4-.283,29.4,29.4,0,0,0-4.676-.184q-13.943-.04-27.886,0a3.476,3.476,0,0,0-1.878.192c-.282.157-.807-.192-1.222-.194-4.933-.016-9.875-.193-14.8.057-3.031.154-6.052.081-9.075.161a18.128,18.128,0,0,1-2.832-.238c-.8-.106-1.613-1.276-1.73-2.237a42.59,42.59,0,0,1-.185-8.579c.3-3.684-.076-7.371.247-11.028.211-2.383-.006-4.758.23-7.116.107-1.071.189-2.133.205-3.327m76.827-12.845c-.082-1.352-.256-2.707-.228-4.057.107-5.144-.215-10.287.187-15.436.228-2.918,0-5.869.073-8.8.014-.606-.31-.758-.658-.926a2.867,2.867,0,0,0-1.114-.252,49.575,49.575,0,0,1-5.162-.221c-1.7-.243-3.432.074-5.16-.242-1.28-.234-2.612-.023-3.935-.241-1.447-.238-2.938-.074-4.423-.237-2.352-.258-4.739.076-7.114-.266-1.658-.238-3.346,0-5.038-.221a45.547,45.547,0,0,0-6.619-.277c-7.182.105-14.37-.316-21.548.219-2.366.176-4.739-.134-7.12.212a53.472,53.472,0,0,1-5.886.281c-1.006.034-1.327.308-1.367,1.317-.089,2.29-.219,4.58-.23,6.87-.008,1.678.24,3.359.209,5.035-.087,4.818.133,9.632-.18,14.457-.341,5.252.2,10.533-.272,15.8-.218,2.442.1,4.9-.225,7.363-.275,2.1-.093,4.247-.223,6.38-.226,3.705-.019,7.432-.276,11.149a40.483,40.483,0,0,0,.209,4.178c.047,1.332.515,1.843,1.851,1.833,2.577-.019,5.152-.1,7.728-.19,5.009-.175,10.028-.105,15.042-.036,4.981.069,9.958-.026,14.945.169,9.294.363,18.606-.229,27.906.289,1.992.111,3.995.019,5.992.015a1.857,1.857,0,0,0,2.128-1.561,12.486,12.486,0,0,0,.485-2.973C1135.413,885.655,1135.4,872.528,1135.4,859.155Z" transform="translate(-582.411 -302.18)" stroke="#000" stroke-width="1"/>
              <path id="Path_28220" data-name="Path 28220" d="M1218.262,914.724c.724-.428,1.407-.766,2.042-1.176a.624.624,0,0,0,.254-.879c-.375-.948-.536-1.977-.834-2.958-.327-1.074-.047-1.547,1.021-1.526a6.046,6.046,0,0,1,3.047,1.2c1.4.874,2.763,1.8,4.136,2.715a2.471,2.471,0,0,1,1.146,3.311c-.048.141-.168.256-.227.395-.733,1.735-1.437,3.482-2.2,5.2a.926.926,0,0,1-1.647.31c-.577-.629-1.038-1.362-1.573-2.031a1.181,1.181,0,0,0-1.737-.4,51.648,51.648,0,0,0-7.168,3.962,53.938,53.938,0,0,0-8.994,7.8,16.036,16.036,0,0,0-1.453,1.726.848.848,0,0,0,.012.8,37.593,37.593,0,0,1,3.991,6.055c.839,1.416,1.358,2.949,2.045,4.417.032.069.108.123.123.193.081.376.03.96.248,1.086a3.085,3.085,0,0,0,1.379.189c.733.024,1.468,0,2.2.011.451.009.778-.093.836-.616.011-.1.214-.172.224-.268.177-1.769,1.507-2.215,2.921-2.54a16.213,16.213,0,0,1,3.975-.738c.2,0,.443-.052.591.041a3.3,3.3,0,0,1,.576.59,2.965,2.965,0,0,1-.593.339,33.957,33.957,0,0,1-5.378,1.511c-.317.041-.62.5-.853.819a10.092,10.092,0,0,0-1.218,3.4c-.7,2.49-1.307,5-1.975,7.5-.382,1.428-.865,2.831-1.2,4.269-.254,1.093-.338,2.226-.511,3.339a22.94,22.94,0,0,1-.59,3.307,1.275,1.275,0,0,0,.1,1.058,2.577,2.577,0,0,1,.238.512,1.9,1.9,0,0,1-.857,2.188c-1.257.687-2.175.664-2.995-.072-1-.9-1.067-1.407-.374-2.68.253-.464-.1-.4-.389-.44-2.609-.333-5.243-.072-7.845-.286-2.3-.189-4.583-.128-6.873-.21-.563-.02-.845.069-.733.708a4.5,4.5,0,0,1,.007.977c-.026.552-.678,1.469-1.193,1.489-1.174.043-2.346.209-3.312-.885a2.424,2.424,0,0,1,.184-3.445,1.454,1.454,0,0,1,.731-.287,62.411,62.411,0,0,1,7.354-.2c2.624.2,5.252-.04,7.848.237,1.73.184,3.444.106,5.162.2.418.024.828.171,1.245.231.336.048.542.044.607-.463.152-1.174.475-2.326.7-3.492.159-.826.048-.886-.844-.94-7.668-.459-15.343-.154-23.014-.228a1.214,1.214,0,0,1-1.355-.859c-.51-1.376-1.149-2.7-1.689-4.07-.678-1.717-1.286-3.462-1.972-5.176-.49-1.223-1.051-2.419-1.6-3.618-.237-.52-.092-.841.445-.962a7.317,7.317,0,0,1,1.487-.24c2.079-.026,4.159-.051,6.237.011a1.1,1.1,0,0,0,1.224-.843,41.1,41.1,0,0,1,2.73-6.208,39.593,39.593,0,0,1,3.861-5.978c.332-.424.421-.684.024-1.113-1.577-1.7-3.071-3.481-4.693-5.137a31.752,31.752,0,0,0-4.922-4.022,17.6,17.6,0,0,0-3.971-2.246,1.065,1.065,0,0,0-1.355.241c-.494.542-1.027,1.048-1.552,1.561-.805.788-1.275.721-1.817-.308-.528-1-.994-2.035-1.515-3.04a19.9,19.9,0,0,1-1.264-2.415,1.6,1.6,0,0,1,.32-1.683,7.718,7.718,0,0,1,2.454-1.735c1.034-.647,2.078-1.278,3.126-1.9a9.264,9.264,0,0,1,.919-.436c.928-.421,1.471-.12,1.579.888.093.862.213,1.725.234,2.589a2.244,2.244,0,0,0,1.2,1.9c1.705,1.086,3.461,2.093,5.15,3.2a20.854,20.854,0,0,1,2.776,2.147q3.418,3.187,6.728,6.488c.485.482.7.375,1.135-.031a70.485,70.485,0,0,1,8.862-7.215,41.682,41.682,0,0,1,6.09-3.619,31.034,31.034,0,0,0,2.757-1.516m-33.336,40.432a14.8,14.8,0,0,1,1.058,2.611c.147.7.423.815,1.025.823,6.245.077,12.495-.222,18.736.227.933.067,1.876-.016,2.812.02a8.665,8.665,0,0,1,1.366.236c.606.124.844-.019,1.057-.749q1.115-3.821,2.2-7.65c.322-1.133.622-2.272.917-3.412.071-.276.293-.643-.289-.673-1.353-.071-2.7-.227-4.058-.23q-11.742-.034-23.485,0c-1.434,0-2.868.158-4.3.229-.338.017-.439.137-.274.438a9.493,9.493,0,0,1,.656,1.2c.836,2.264,1.641,4.54,2.579,6.934m32.786-38.658a1.565,1.565,0,0,1-.268.241c-1.425.787-2.884,1.519-4.274,2.364-1.571.955-3.132,1.943-4.606,3.039a63.79,63.79,0,0,0-5.587,4.494,48.108,48.108,0,0,0-6.012,6.41,41.169,41.169,0,0,0-3.58,5.494c-.951,1.839-1.757,3.752-2.616,5.638-.4.869-.351.931.623.944.9.012,1.794-.019,2.689.009.7.023,1-.254,1.273-.945a32.514,32.514,0,0,1,3.753-7.367c.73-1.007,1.536-1.961,2.235-2.989a34.179,34.179,0,0,1,4.684-5.631c1.68-1.6,3.352-3.219,5.17-4.648a40.681,40.681,0,0,1,5.737-3.832,34.153,34.153,0,0,1,5.194-2.514,1.422,1.422,0,0,1,1.756.335c.42.554.79,1.146,1.224,1.688a2.718,2.718,0,0,0,.662.451c.046-.222.078-.449.142-.666s.157-.423.241-.633c.449-1.118.919-2.228,1.342-3.356.293-.783.2-.978-.516-1.5-.13-.095-.217-.25-.35-.339-1.4-.94-2.8-1.889-4.223-2.795a7.02,7.02,0,0,0-1.257-.5c.118.441.233.883.357,1.323.041.145.12.279.152.425a4.045,4.045,0,0,1,.284,1.559,2.574,2.574,0,0,1-1.482,1.84c-.892.407-1.752.888-2.748,1.459m-41.227-1.59c-.048.115-.169.267-.133.34.734,1.49,1.472,2.977,2.242,4.449.272.521.516.458.786-.076a12.326,12.326,0,0,1,1.023-1.532,1.312,1.312,0,0,1,1.719-.363c.607.308,1.2.649,1.8.975a41.248,41.248,0,0,1,7.657,5.695,53.956,53.956,0,0,1,5.224,5.769c.118.141.466.3.5.263a6.221,6.221,0,0,0,1.159-1.422c.114-.231-.156-.734-.37-1.027a15.5,15.5,0,0,0-1.46-1.718,65.656,65.656,0,0,0-5.55-5.472,66.394,66.394,0,0,0-6.644-4.276,3.651,3.651,0,0,1-2.085-3.4c.018-.407.018-.815,0-1.222a2.533,2.533,0,0,0-.145-.531,2.037,2.037,0,0,0-.647.2c-1.588,1.206-3.343,2.132-5.074,3.346m32.174,28.26a12.879,12.879,0,0,0-.7-1.664q-2.037-3.442-4.152-6.838a1.325,1.325,0,0,0-.745-.53c-.445-.108-.569.277-.692.628-.049.139-.228.227-.334.351a1.219,1.219,0,0,0-.1,1.587,22.426,22.426,0,0,1,1.444,2.823c.641,1.652,1.175,3.346,1.722,5.033a.681.681,0,0,0,.756.573c.855-.021,1.712,0,2.568-.007.9,0,.9-.006.6-.958a5.825,5.825,0,0,0-.368-1m-6.362,1.713a7.8,7.8,0,0,0,1.118.234c.563.038.608-.1.478-.727a35.2,35.2,0,0,0-1.97-5.4,14.03,14.03,0,0,0-.789-1.622c-.156-.289-.384-.355-.6-.023-.1.161-.2.324-.32.476a30.156,30.156,0,0,0-3.493,6.474c-.247.571-.167.592.333.59,1.665-.007,3.331,0,5.241,0m-12.356,22.143c-.4-.718-1.2-.629-1.829-.83-.433-.138-.737.388-.574.874a1.713,1.713,0,0,0,1.753.864c.41-.073.776-.1.65-.907m18.473.367c-.667.89-.631,1.146.2,1.425a.855.855,0,0,0,1.144-.81C1209.749,967.166,1209.642,967.1,1208.414,967.39Z" transform="translate(-685.15 -374.081)" stroke="#000" stroke-width="1"/>
            </g>
          </g>
        </g>
      </g>
      <g id="Group_17709" data-name="Group 17709" transform="translate(-5)">
        <text id="Expertise_training" data-name="Expertise training" transform="translate(523 652)" fill="#232e3a" font-size="24" font-family="Helvetica"><tspan x="0" y="0">Expertise training</tspan></text>
        <g id="Group_17704" data-name="Group 17704" transform="translate(0)">
          <path id="Path_28224" data-name="Path 28224" d="M-3843.91,6774.453c.836,0,36.1-1.464,36.1-1.464l38.889,1.464,1.6,4.583V6845.7l-2.486,4.507h-74.1l-1.742-1.967Z" transform="translate(4420 -6245)" fill="#edbc9c" stroke="#707070" stroke-width="1"/>
          <g id="Group_17703" data-name="Group 17703">
            <path id="Path_28214" data-name="Path 28214" d="M.361,700.928c0-4-.03-7.868.01-11.741.03-2.82-.016-5.658.283-8.455C.94,678.065.6,675.4.882,672.761c.37-3.516-.057-7.044.257-10.538.338-3.765.12-7.519.187-11.277.067-3.79.031-7.582,0-11.374-.007-.986-.231-1.972-.217-2.956.029-2.128.1-4.257.251-6.379a14.17,14.17,0,0,0,.265-2.637c-.026-.24.431-.7.735-.775a18.85,18.85,0,0,1,2.337-.278c3.017-.326,6.062-.044,9.066-.307,2.179-.191,4.345-.019,6.508-.19,5.588-.442,11.186-.247,16.776-.185a57.551,57.551,0,0,1,6.374.248c1.978.244,3.935.086,5.9.187a55.162,55.162,0,0,1,5.639.3c1.41.219,2.805.024,4.184.214,1.841.253,3.7.075,5.522.275,1.156.127,2.329.009,3.443.233a29.589,29.589,0,0,0,3.819.213c1.932.14,3.861.317,5.79.485a1.445,1.445,0,0,1,1.422,1.4,32.864,32.864,0,0,1,.225,4.422c-.5,7.466-.331,14.944-.14,22.4.171,6.7.078,13.388.15,20.08.073,6.726.047,13.453-.006,20.179a30.486,30.486,0,0,1-.5,4.928,3.271,3.271,0,0,1-1.361,1.993,2.679,2.679,0,0,1-1.916.72c-.645-.062-1.317.214-1.975.2a62.281,62.281,0,0,1-6.741-.285,32.626,32.626,0,0,0-4.186-.178q-29.535-.026-59.071.008c-1.754,0-2.936-.811-3.02-2.568,0-.092-.153-.178-.235-.388m77.561-70.343c-.008-.394.117-.89-.352-1.063a6.956,6.956,0,0,0-1.985-.507c-2.776-.146-5.564.181-8.339-.248-1.134-.175-2.286.006-3.452-.215a32.6,32.6,0,0,0-4.415-.289,64.318,64.318,0,0,1-6.509-.207c-1.65-.25-3.347-.013-5.035-.245-1.9-.261-3.836-.061-5.769-.224-2.884-.243-5.8-.075-8.7-.264a45.694,45.694,0,0,0-5.77.149c-4.6.285-9.23-.188-13.838.292-.645.067-1.3-.007-1.956.012-2.494.074-4.987.164-7.481.24a1.414,1.414,0,0,0-1.5,1.437c-.044,2.007-.007,4.009-.222,6.017a28.616,28.616,0,0,0,.163,4.3c.151,3.377.1,6.766.034,10.148-.067,3.35.039,6.695-.165,10.054-.271,4.477,0,8.982-.3,13.471-.154,2.245.072,4.492-.2,6.753-.292,2.386-.2,4.819-.3,7.231-.107,2.575.1,5.145-.181,7.732a38.916,38.916,0,0,0,.194,6.129c.042.795.413,1.08,1.2,1.113a10.641,10.641,0,0,1,2.6.2c.512.147,1.142-.183,1.721-.193q4.72-.083,9.439-.2c5.057-.114,10.121-.048,15.187.126,7,.241,14.022.055,21.033.071.5,0,1.069.352,1.474.2a8.631,8.631,0,0,1,3.338-.184c4.369.027,8.743.044,13.1.276,1.474.078,2.95.16,4.427.181a2.3,2.3,0,0,0,2.062-1.764c.2-1.844.46-3.695.478-5.544.06-6.033.079-12.067.006-18.1-.073-6,0-12-.148-18-.186-7.785-.36-15.588.147-23.379C78.019,634.342,77.922,632.583,77.922,630.585Z" transform="translate(573.649 -98.215)" stroke="#000" stroke-width="1"/>
            <path id="Path_28219" data-name="Path 28219" d="M50.44,705.525a2.253,2.253,0,0,1,2.378-2.21c1.109-.044,2.215-.168,3.324-.231a.6.6,0,0,0,.664-.662,31.924,31.924,0,0,1,1.97-8.6,19.579,19.579,0,0,1,2.695-4.885,28.529,28.529,0,0,1,3.936-4.346,22.542,22.542,0,0,1,7.924-4.773,16.819,16.819,0,0,1,5.961-.962c.478.009,1.1.122.519-.692-.077-.108-.011-.319-.011-.482,0-1.345.013-2.691-.007-4.036-.007-.493.071-.843.647-.945.77-.136,1.463-.671,2.324-.315A2.285,2.285,0,0,1,84.2,674.2c.017.244-.01.49,0,.734.077,1.271.181,2.541.23,3.813.015.391.221.338.466.354a21.886,21.886,0,0,1,5,.907c1.129.347,2.322.487,3.456.821a21.513,21.513,0,0,1,2.513,1.014,25.819,25.819,0,0,1,8.854,6.937,23.148,23.148,0,0,1,3.162,4.433,26.063,26.063,0,0,1,2.235,5.916c.312,1.268.45,2.58.762,3.848.275,1.117.623,1.32,1.736,1.322.612,0,1.225-.029,1.834.007a24.234,24.234,0,0,1,2.708.264c.3.052.748.4.762.638a8.944,8.944,0,0,1-.181,2.111c-.125.69-.611.923-1.309.906-1.508-.036-3.017,0-4.525-.017-.555-.007-.763.2-.808.77a26.555,26.555,0,0,1-1.5,6.716,26.209,26.209,0,0,1-3.645,7.412,19.215,19.215,0,0,1-3.56,3.794,38.609,38.609,0,0,1-4.821,3.14c-.888.485-1.661,1.235-2.569,1.777a16.286,16.286,0,0,1-5.887,2.339c-.755.116-1.5.322-2.245.479a7.832,7.832,0,0,0-1.525,1.179c-.064.791-.1,1.585-.182,2.375-.035.338-.18.663-.231,1-.078.522-.417.6-.857.59-.57-.015-1.142.007-1.712-.006a1.539,1.539,0,0,1-1.367-1.222,10.769,10.769,0,0,1-.221-3.206c-.007-.434,0-.638-.589-.745a28.215,28.215,0,0,1-4.659-1.131,33.109,33.109,0,0,1-7.283-3.672,48.516,48.516,0,0,1-4.091-3.112,18.424,18.424,0,0,1-3.682-4.706,18.125,18.125,0,0,1-2.291-5.164c-.328-1.378-.612-2.766-.9-4.154a21.435,21.435,0,0,1-.5-5.057c.008-.247-.813-.581-1.159-.56-1.319.08-2.641.191-3.96.166-.763-.014-1.19-.674-1.237-1.689m61.78,1.468c1.346,0,2.692.007,4.038-.009.164,0,.428-.081.472-.192a.861.861,0,0,0-.882-1.264c-1.019-.014-2.047.079-3.055-.026-1.09-.113-2.32-.113-2.788-1.463a10.242,10.242,0,0,1-.349-1.2c-.258-1.2-.447-2.418-.753-3.6a23.035,23.035,0,0,0-.974-2.9,14.722,14.722,0,0,0-2.5-4.717,28.767,28.767,0,0,1-2.416-2.913,16.715,16.715,0,0,0-5.831-4.8,23.942,23.942,0,0,0-6.977-2.67,32.87,32.87,0,0,0-5.48-.914.978.978,0,0,1-1.086-.891,12.18,12.18,0,0,1-.425-2.269,28.94,28.94,0,0,0-.255-3.076.99.99,0,0,0-.569-.591,1.355,1.355,0,0,0-.843-.008c-.425.125-.84.273-.782.907.067.728-.048,1.473.033,2.2a7.23,7.23,0,0,0,.513,2.348c.305.626.145.784-.383.889-.907.181-1.815.382-2.733.482-1.225.133-2.459.173-3.689.261a1.684,1.684,0,0,0-.321.107,19.4,19.4,0,0,0-6.359,3.228,23.6,23.6,0,0,0-5.458,5.649,16.93,16.93,0,0,0-2.5,4.957c-.283,1.065-.5,2.152-.878,3.184a16.084,16.084,0,0,0-.718,3c-.145.914-.339,1.82-.478,2.734a.637.637,0,0,1-.7.629c-1.313.063-2.623.2-3.935.215a1.5,1.5,0,0,0-1.144.519c-.248.246-.5.532-.317.823a1.086,1.086,0,0,0,.791.376c1.344.038,2.69.016,4.036.018,1.216,0,1.493.281,1.506,1.541a18.106,18.106,0,0,0,.025,2.565c.247,1.589.643,3.155.952,4.736a17.2,17.2,0,0,0,1.579,4.607,30.029,30.029,0,0,0,2.331,3.929,19.024,19.024,0,0,0,4.721,4.637,38.374,38.374,0,0,0,3.672,2.358,22.339,22.339,0,0,0,5.058,2.216c1.522.358,3.044,1.047,4.693.821.508-.07.715.235.707.726-.01.611-.034,1.225.006,1.834.048.743.134,1.486.25,2.221a.838.838,0,0,0,.354.571,1.26,1.26,0,0,0,1.84-1.179q.092-1.908.254-3.812a.784.784,0,0,1,.34-.572,10.706,10.706,0,0,1,1.616-.525c1.662-.421,3.338-.792,4.994-1.237a21.931,21.931,0,0,0,4.428-1.709c1.076-.559,2.167-1.1,3.185-1.753a19.744,19.744,0,0,0,2.888-2.166,31.65,31.65,0,0,0,3.279-3.532,16.482,16.482,0,0,0,1.984-3.328c.559-1.231.811-2.6,1.346-3.844a21.363,21.363,0,0,0,1.608-7.036c.035-.5.118-.839.722-.859C111.229,707.213,111.6,707.075,112.219,706.993Z" transform="translate(529.688 -139.023)" stroke="#000" stroke-width="1"/>
            <path id="Path_28222" data-name="Path 28222" d="M125.019,772.93c1.5-.143,2.93-.212,4.362-.316a2.5,2.5,0,0,0,.862-.271c.406-.194.39-.6.329-.951s-.322-.477-.7-.491c-1.394-.054-2.786-.164-4.18-.229-.887-.041-.87-.02-.738-.976.1-.738.12-1.491.19-2.227a29.018,29.018,0,0,1,1.313-5.106,18.608,18.608,0,0,1,2.844-5.9,16.718,16.718,0,0,1,6.844-5.829,59.56,59.56,0,0,1,5.668-1.96,7.5,7.5,0,0,1,1.582-.031,5.931,5.931,0,0,0,2.115-.2c.671-.291,1.164.215.959,1.015-.429,1.676-.126,3.363-.21,5.042-.014.288.185.581.219.879.07.62.5.7.952.6a.86.86,0,0,0,.761-.917c-.067-.7-.077-1.42-.138-2.115-.11-1.252-.751-2.527-.113-3.829.162-.331-.047-1.013.146-1.121.342-.192.863-.042,1.306-.08a13.248,13.248,0,0,1,6.245,1.464,53.85,53.85,0,0,1,5.434,2.522,34.954,34.954,0,0,1,4.974,3.392,20.618,20.618,0,0,1,6.179,9.92c.161.833.321,1.667.44,2.507a14.22,14.22,0,0,0,.208,2.234c.259.876-.1,1.593-1.295,1.7-1.525.141-3.043.349-4.569.464-.377.028-.386.249-.54.453-.335.442-.192.55.284.548,1.386-.006,2.772,0,4.158,0a2.587,2.587,0,0,1,1.9.734,1.029,1.029,0,0,1,.34.965c-.15,1.035-.306,2.07-.488,3.1a21.179,21.179,0,0,1-1.454,4.534,39.248,39.248,0,0,1-2.7,4.873,2,2,0,0,1-.27.377,33.493,33.493,0,0,1-6.188,5.437,24.2,24.2,0,0,1-6.191,2.776c-1.57.435-3.138.888-4.716,1.3a6.012,6.012,0,0,1-.924.131c-.555.054-.782-.194-.8-.765-.047-1.272-.154-2.542-.233-3.813-.045-.716-.158-.809-1-.8-.811.006-.971.108-.944.849.039,1.109.155,2.216.231,3.324a3.112,3.112,0,0,1,0,.733c-.183,1.059-.38,1.287-1.465,1.19a32.014,32.014,0,0,1-3.662-.6c-1.116-.233-2.211-.564-3.316-.848a13.011,13.011,0,0,1-4.686-2.263,18.046,18.046,0,0,1-2.975-2.524c-1.785-2.12-3.837-4.046-4.754-6.829-.359-1.091-.949-2.142-1.224-3.277a14.618,14.618,0,0,1-.684-3.518c0-.781-.161-1.562-.223-2.345a13.527,13.527,0,0,1,.545-2.917m10.093-19.635c-.711.548-1.389,1.148-2.141,1.633a13.5,13.5,0,0,0-3.361,3.49,18.274,18.274,0,0,0-2.186,5.087,22.268,22.268,0,0,0-1.25,5.113c-.112,1.065-.146,1.065.886,1.07.979,0,1.957,0,2.936,0,1.167,0,1.566.305,1.813,1.38.407,1.77-.406,2.775-2.249,2.779-.856,0-1.713.023-2.569-.005-1.09-.036-1.383-.053-1.3,1.246a14.415,14.415,0,0,0,.217,3.087c.432,1.548.583,3.175,1.029,4.718a15.547,15.547,0,0,0,3.274,6.1,22.527,22.527,0,0,0,5.322,4.571,27.655,27.655,0,0,0,2.983,1.646,26.707,26.707,0,0,0,3.574,1.107,10.94,10.94,0,0,0,3.946.547c.377-.035.494-.134.454-.491-.09-.822-.179-1.644-.242-2.468-.031-.405.14-.9-.038-1.2-.306-.52-.055-.857.159-1.231.278-.486.755-.5,1.259-.509a5.209,5.209,0,0,0,1-.228,1.05,1.05,0,0,1,1.282.907c.171,1.359.342,2.718.483,4.08.041.392.086.434.5.3,1.3-.426,2.638-.715,3.935-1.14,1.252-.41,2.472-.921,3.7-1.39a16.87,16.87,0,0,0,4.705-2.792,28.559,28.559,0,0,0,4.45-4.256,16.89,16.89,0,0,0,2.894-5.264,11.108,11.108,0,0,0,.874-3.069,20.86,20.86,0,0,1,.272-3.317c.081-.433.158-.468-.3-.461-1.631.024-3.262-.007-4.893.02a1,1,0,0,1-1.03-.459,2.451,2.451,0,0,1-.4-1.774,1.454,1.454,0,0,1,1-1.191,12.926,12.926,0,0,1,1.977-.246c.9-.041,1.8.028,2.69-.021.913-.049,1.1-.388.784-1.23a1.471,1.471,0,0,1-.1-.566,13.538,13.538,0,0,0-.476-3.472,15.548,15.548,0,0,0-4.382-7.472,33.545,33.545,0,0,0-3.561-2.881,22.707,22.707,0,0,0-5.931-3.7,29.2,29.2,0,0,0-6.753-1.708,2.187,2.187,0,0,0-.968.021.748.748,0,0,0-.4.6,20.984,20.984,0,0,1,.448,4.7,2.4,2.4,0,0,1-1.5,2.17,2.008,2.008,0,0,1-2.657-1.146,19.633,19.633,0,0,1-.219-5.158c.019-.933.137-.9-.782-.955a11.837,11.837,0,0,0-5.562,1.345A31.477,31.477,0,0,0,135.112,753.295Z" transform="translate(464.712 -205.388)" stroke="#000" stroke-width="1"/>
            <path id="Path_28223" data-name="Path 28223" d="M279.849,875.52c-.58.743-1.063,1.456-1.628,2.1-.591.672-1.256,1.279-1.893,1.911a2.024,2.024,0,0,1-3.17.161,14.163,14.163,0,0,1-3.89-4.474c-.016-.034.013-.108,0-.117-1.187-.659-.592-1.7-.392-2.5.487-1.94,1.282-3.8,1.745-5.747.441-1.852,1.261-3.576,1.645-5.451a13.977,13.977,0,0,1,.769-2.239.868.868,0,0,0-.254-1.117c-.79-.849-1.584-1.7-2.324-2.588a1.26,1.26,0,0,1-.331-.98,1.04,1.04,0,0,1,1.085-.57c2.2.053,4.4.022,6.6.022.2,0,.459-.077.6.018.226.152.634.332.259.732A52.307,52.307,0,0,1,275,858.509c-.5.435-.424.723-.218,1.029a30.869,30.869,0,0,1,2.727,6.212c.8,2.035,1.4,4.148,2.1,6.225.215.644.492,1.271.655,1.928a1.915,1.915,0,0,1-.414,1.618m-3.731,2.508c.345-.427.676-.867,1.041-1.277.324-.364.71-.675,1.024-1.047a2.218,2.218,0,0,0,.585-.965c.031-.211-.364-.473-.542-.731a2.076,2.076,0,0,1-.151-.424c-.467-1.191-.99-2.362-1.4-3.574-.912-2.724-2.1-5.365-2.529-8.239-.025-.17-.213-.316-.325-.473-.133.169-.337.319-.387.509-.376,1.435-.677,2.891-1.088,4.316-.65,2.25-1.4,4.47-2.035,6.725a2.46,2.46,0,0,0,.2,2.177,31.7,31.7,0,0,0,2.725,3.021,2.651,2.651,0,0,0,1.479.782c.4.034.851-.434,1.4-.8m-3.548-21.9c.429.429.846.871,1.3,1.277.11.1.4.17.48.1.815-.692,1.609-1.409,2.391-2.138.077-.072.038-.268.052-.406a1.289,1.289,0,0,0-.328-.03,9.636,9.636,0,0,1-1.123.205c-.767.033-1.536,0-2.3.014-.351.007-.7.061-1.051.094C272.137,855.5,272.292,855.755,272.57,856.13Z" transform="translate(338.264 -298.437)" stroke="#000" stroke-width="1"/>
          </g>
        </g>
      </g>
    </g>
  </g>
</svg>
