<svg xmlns="http://www.w3.org/2000/svg" width="156.301" height="148.124" viewBox="0 0 156.301 148.124"><path d="M1.067,98.808c5.31.573,10.771-.478,16.053-1.051l16.258-1.8c1.788-.191,3.85-5.133,1.461-5.16-.4,0-.778,0-1.174-.014a1.839,1.839,0,0,0-.819.218L18.826,92.556c-3.1.341-6.252.846-9.405,1.078,36.816-12.886,73.332-30.892,97.344-62.671A117.679,117.679,0,0,0,122.641,2.788c.355-.928.464-2.566-.819-2.771s-2.4,1.461-2.785,2.43C104.922,38.622,71.86,62.579,37.555,77.9c-9,4.013-18.21,7.522-27.52,10.771,2.348-2.471,4.682-4.942,7.03-7.4.751-.792,1.474-2.635.71-3.617-.833-1.092-2.17,0-2.812.669q-4.423,4.669-8.846,9.324C3.565,90.331.712,92.925.043,96.747-.094,97.525.057,98.7,1.067,98.808Z" transform="translate(50.976) rotate(31)"/></svg>