<svg xmlns="http://www.w3.org/2000/svg" width="246" height="138" viewBox="0 0 246 138">
  <g id="Group_17718" data-name="Group 17718" transform="translate(2940 -4703)">
    <g id="Rectangle_129" data-name="Rectangle 129" transform="translate(-2832 4781)" fill="#f5e4e5" stroke="#000" stroke-width="2">
      <rect width="60" height="60" stroke="none"/>
      <rect x="1" y="1" width="58" height="58" fill="none"/>
    </g>
    <g id="Rectangle_126" data-name="Rectangle 126" transform="translate(-2940 4703)" fill="#fdc2b4" stroke="#000" stroke-width="2">
      <rect width="60" height="60" stroke="none"/>
      <rect x="1" y="1" width="58" height="58" fill="none"/>
    </g>
    <g id="Rectangle_127" data-name="Rectangle 127" transform="translate(-2910 4781)" fill="#d16c55" stroke="#000" stroke-width="2">
      <rect width="60" height="60" stroke="none"/>
      <rect x="1" y="1" width="58" height="58" fill="none"/>
    </g>
    <g id="Rectangle_130" data-name="Rectangle 130" transform="translate(-2784 4703)" fill="#53a59b" stroke="#000" stroke-width="2">
      <rect width="60" height="60" stroke="none"/>
      <rect x="1" y="1" width="58" height="58" fill="none"/>
    </g>
    <g id="Rectangle_131" data-name="Rectangle 131" transform="translate(-2754 4781)" fill="#f5f8ee" stroke="#000" stroke-width="2">
      <rect width="60" height="60" stroke="none"/>
      <rect x="1" y="1" width="58" height="58" fill="none"/>
    </g>
    <g id="Rectangle_128" data-name="Rectangle 128" transform="translate(-2862 4703)" fill="#a5bdac" stroke="#000" stroke-width="2">
      <rect width="60" height="60" stroke="none"/>
      <rect x="1" y="1" width="58" height="58" fill="none"/>
    </g>
    <g id="Group_17663" data-name="Group 17663" transform="translate(2593.555 1482.017)">
      <path id="Path_27728" data-name="Path 27728" d="M275.169,1200.479a8.021,8.021,0,0,1,.612-1.542,2.534,2.534,0,0,1,2-1.47c1.3-.108,1.976-1.21,2.889-1.951a3.468,3.468,0,0,0,1.11-3.152c-.043-1.584,2.146-4.048,3.7-4.28,1.479-.22,2.249.815,3.076,1.718.98,1.07,2.33,1.309,3.085.09.916-1.479,2.4-1.419,3.8-1.362a6.2,6.2,0,0,1,2.163.767,1.927,1.927,0,0,1,.952,2.782,2.422,2.422,0,0,0,1.453,3.31,2.475,2.475,0,0,0,1.477-.359,3.852,3.852,0,0,1,5.59,2.339,2.925,2.925,0,0,1-.563,1.806,3.783,3.783,0,0,1-1.111,1.134c-1.317.955-1.322,3.262-.678,4.409a2.646,2.646,0,0,0,.979.942c2.109,1.189,1.781,1.862,1.408,3.719a10.852,10.852,0,0,1-.892,2.121,1.673,1.673,0,0,1-2.082,1.131c-1.569-.53-2.249.429-2.981,1.441-.054.075-.078.191-.148.234-1.207.733-.674,1.866-.629,2.861.02.45.325.884.36,1.336a2.137,2.137,0,0,1-1.12,2.217,6.873,6.873,0,0,1-3.607.963,1.9,1.9,0,0,1-1.833-1,1.539,1.539,0,0,0-1.8-.815c-1.011.122-2.025.237-3.027.414a1.324,1.324,0,0,0-.775.48c-1.142,1.6-2.192,2.25-4.057,1.173-.5-.289-1.132-.356-1.618-.662a2.41,2.41,0,0,1-.9-3.219,1.763,1.763,0,0,0-.235-1.759c-.424-.693-.845-1.393-1.33-2.043-.417-.559-.961-.484-1.56-.208a7.756,7.756,0,0,1-1.841.608,1.745,1.745,0,0,1-2.016-1.276,3.373,3.373,0,0,1,.789-3.88,12.934,12.934,0,0,0,1.843-2.422c.568-.885.135-1.616-.487-2.33a13.22,13.22,0,0,1-1.742-2.373,5.494,5.494,0,0,1-.247-1.891m3.9,1.4a2.747,2.747,0,0,1,1.9,3.177,2.091,2.091,0,0,0,.006.895,2.945,2.945,0,0,1-1,3.641.884.884,0,0,0-.171.781c.042.149.421.291.645.285a3.157,3.157,0,0,1,2.88,1.913c.445.766.672,1.657,1.091,2.441.47.877,1.335,1.572,1.148,2.731-.013.08.19.285.245.269a.557.557,0,0,0,.333-.274,2.462,2.462,0,0,1,2.675-1.465c1.572.044,3.15.054,4.709.228a9.981,9.981,0,0,1,1.959.791c.408.143,1,.363,1.251.186s.223-.8.273-1.239c.089-.782-.109-1.73.267-2.317a27,27,0,0,1,2.776-3.257,3.039,3.039,0,0,1,2.4-1.228c.339.006.687-.4,1.03-.612a3.656,3.656,0,0,0-.541-.823c-.4-.352-.9-.585-1.3-.939s-1.054-.81-1.053-1.219c.006-2.486-.095-5.047,2.014-6.941a.338.338,0,1,0-.278-.607,1.043,1.043,0,0,0-.506.208c-1.792,1.181-3.026,1.094-4.455-.488-.6-.667-1.29-1.255-1.893-1.921a3.318,3.318,0,0,1-.894-1.317c-.236-1.086-.72-1.018-1.487-.557-.553.332-1.173.846-1.736.814-1.958-.111-4.039-.123-5.1-2.315-.091-.187-.444-.247-.676-.366a3.3,3.3,0,0,0-.1.752,4.479,4.479,0,0,1-.482,3.239c-.776,1.1-1.517,2.23-2.241,3.367a2.476,2.476,0,0,1-2.478,1.169,4.223,4.223,0,0,0-1.114-.181,2.571,2.571,0,0,0-.81.344C278.566,1201.289,278.766,1201.533,279.066,1201.878Z" transform="translate(-5794.284 2045.93)"/>
      <path id="Path_27732" data-name="Path 27732" d="M332.926,1236.491c2.9,1.914,3.662,4.618,2.519,7.542a11.221,11.221,0,0,1-5.585,5.991,5.221,5.221,0,0,1-6.4-.992,7.755,7.755,0,0,1-2.339-5.41,10.888,10.888,0,0,1,1.847-5.8,10.034,10.034,0,0,1,2.5-2.341,4.593,4.593,0,0,1,5.005-.236c.811.375,1.6.8,2.451,1.245m-.749,7.245c.547-1.775.566-3.428-1.092-4.688-.4-.307-.837-.579-1.216-.913a2.129,2.129,0,0,0-2.676-.18c-2.155,1.265-3.89,4.812-2.288,7.687.881,1.582,2.13,2.231,3.349,1.807A5.762,5.762,0,0,0,332.176,1243.735Z" transform="translate(-5831.407 2008.669)"/>
    </g>
    <path id="Path_28192" data-name="Path 28192" d="M1847.964,136.908a8.023,8.023,0,0,1,1.271.587c1.234.724,1.445,2.074,1.709,3.251a26.9,26.9,0,0,1,.325,4.283c.1,1.661.09,3.334.3,4.979a42.458,42.458,0,0,1,.538,5.01c.007.606.234,1.208.25,1.815a2.351,2.351,0,0,1-2.307,2.668c-2.444.238-4.892.766-7.344.533-5.243-.5-10.5.031-15.726-.309a66.949,66.949,0,0,1-6.765-.287c-1.494-.252-2.987-.025-4.483-.419-1.466-.387-1.688-.319-1.671-1.711a16.174,16.174,0,0,1,.51-3.5,5.63,5.63,0,0,0-.189-1.827c-.071-.578-.255-1.233.392-1.576a5.724,5.724,0,0,1,2.852-1.1c1.055.033,2.112.007,3.168.007a2.057,2.057,0,0,1,2.334,2.226,3.97,3.97,0,0,1-.226,2.381c-.164.266.007.722-.034,1.085-.063.562-.228,1.116-.252,1.678-.021.469-.246,1.136.335,1.34a5.564,5.564,0,0,0,1.739.079c.038,0,.1-.139.112-.218a9.428,9.428,0,0,0,.221-2.9,16.6,16.6,0,0,1-.2-3.757,8.865,8.865,0,0,1,.2-3.071c.189-.555-.2-1.283-.213-1.935-.034-2.112-.012-4.224-.013-6.336a9.224,9.224,0,0,0-.8-4.766c-.232-.409.126-.891.623-.959a1.715,1.715,0,0,1,.686,0c1.689.49,3.415.2,5.123.26a2.151,2.151,0,0,1,2.365,2.362c.005,4.684.089,9.37-.059,14.049a17.178,17.178,0,0,1-.437,3.644,12.433,12.433,0,0,0-.036,3.292c0,.125.236.316.39.35a3.777,3.777,0,0,0,.823.016c.967-.006.952,0,.546-.857a1.883,1.883,0,0,1-.118-.775c-.009-2.112-.072-4.227.018-6.336a27.127,27.127,0,0,1,.554-4.313c.25-1.21.391-1.222,1.638-1.224a27,27,0,0,0,4.4-.071,1.568,1.568,0,0,1,1.562.415,2.071,2.071,0,0,1,.365.8,1.487,1.487,0,0,1,.008.411c.091,2.671.168,5.343.282,8.013.046,1.066.163,2.13.278,3.191a1.389,1.389,0,0,0,.28.7,1.79,1.79,0,0,0,.588.317c.075-.182.231-.372.213-.543-.606-5.695-.061-11.407-.292-17.105a3.084,3.084,0,0,1,1.31-2.767,4.038,4.038,0,0,1,2.853-1.084m-19.708,21.225c.688,0,1.377.006,2.065,0a3.121,3.121,0,0,0,.511-.091c-.1-.13-.184-.347-.308-.375-.7-.154-.648-.59-.274-.935a1.27,1.27,0,0,0,.348-1.107,3.89,3.89,0,0,1,.019-1.232c.594-1.68-.094-3.482.532-5.148q0-5.989,0-11.978c0-.872-.245-1.144-1.126-1.174-.917-.031-1.836-.017-2.753,0-1.016.014-1.2.35-1.015,1.329a11.961,11.961,0,0,1,.1,2.216c0,.251-.156.5-.156.754-.018,5.241.052,10.482-.261,15.72-.134,2.242-.228,2.036,2.322,2.029m21.914-11.439-.276-3.052c-.092-1.017-.156-2.038-.284-3.051-.114-.9-.484-1.188-1.4-1.2-.5-.007-1.01.019-1.514-.006-.693-.035-.97.271-.946.96.045,1.343.162,2.684.23,4.018.162,3.2.078,6.422.04,9.633-.015,1.294-.163,2.586-.268,3.878-.032.4.075.576.515.542,1.383-.109,2.77-.173,4.152-.291.516-.044.6-.453.577-.9-.095-1.705-.084-3.424-.3-5.113a38.89,38.89,0,0,1-.523-5.42m-14.609,4.962c.111,1.9-.2,3.788-.014,5.687.046.481-.03.884.68.812.316-.032.654.235.984.242,1.42.029,2.843-.024,4.262.029.637.024.831-.245.692-.767-.293-1.1-.4-2.229-.587-3.342a29.8,29.8,0,0,1-.51-5.418c.005-.4-.064-.8-.089-1.2-.029-.464-.05-.928-.068-1.393a1.758,1.758,0,0,1,.036-.292c-.09,0-.236-.045-.262-.006-.548.813-1.381.506-2.118.54-.64.029-1.283.016-1.925,0-.568-.011-.817.253-.809.815.012.825.036,1.652-.009,2.475-.028.515-.172,1.025-.264,1.812m-14.885,4.41c0-1.234.028-2.468-.009-3.7-.031-1.048-.43-1.429-1.464-1.387a14.936,14.936,0,0,0-2.349.288.906.906,0,0,0-.568.6,26.992,26.992,0,0,0-.58,5.526c.012.328.062.463.442.481,1.2.056,2.391.215,3.588.25C1821.029,158.158,1821.262,157.675,1820.675,156.065Z" transform="translate(-4587.063 4585.877)"/>
    <g id="Group_17665" data-name="Group 17665" transform="translate(-4104.775 3779.633)">
      <path id="Path_28190" data-name="Path 28190" d="M1720.208,945.715c-.116-1.281-.242-2.388-.344-3.5a13.2,13.2,0,0,1,1.084-5.966,14.237,14.237,0,0,1,7.921-8.384,21.935,21.935,0,0,1,4.853-1.3,35.142,35.142,0,0,1,4.374-.294c.869-.039,1.244.326,1.2,1.2-.128,2.552-.14,5.114-.38,7.655a58.8,58.8,0,0,1-1.055,6.5c-.106.5-.182.79.293.952a4.786,4.786,0,0,0,1.585.335c.705-.015,1.406-.3,2.111-.3a33.871,33.871,0,0,0,5.784-.694c1.148-.211,2.331-.23,3.493-.373.536-.066,1.059-.306,1.592-.319.821-.019,1.74-.286,2.332.637.317.494.013,3.105-.184,3.853a21.189,21.189,0,0,1-3.734,7.822,23.567,23.567,0,0,1-5.247,4.878,13.008,13.008,0,0,1-4.4,1.517,19.932,19.932,0,0,1-8.156.232,9.352,9.352,0,0,1-6.571-3.8c-.962-1.412-2.249-2.607-3.271-4.022a17.334,17.334,0,0,1-2.939-6.077c-.036-.145-.221-.254-.337-.554m27.411,9.195a16.342,16.342,0,0,0,4.772-7.552c.394-1.282.8-2.565,1.1-3.87.112-.48.331-1.2-.818-.667a10.211,10.211,0,0,1-3.269.459,29.281,29.281,0,0,0-4.521.4c-2.275.583-4.538.173-6.8.253a1.35,1.35,0,0,1-1.558-1.144,6.3,6.3,0,0,1,.033-2.409,23.275,23.275,0,0,0,.611-3.892c.272-1.6.248-3.249.392-4.873.093-1.046.25-2.086.4-3.126a4.626,4.626,0,0,1,.219-.715,3.365,3.365,0,0,0-.934.052c-2.117.741-4.208,1.558-6.337,2.263a17.818,17.818,0,0,0-6.455,4.015c-2.194,2.037-2.894,4.918-3.183,7.827a14.52,14.52,0,0,0,7.144,11.864c1.192.6,2.483,1.226,3.051,2.636a1.634,1.634,0,0,0,.6.613,10.406,10.406,0,0,0,8.8,1.811,11.455,11.455,0,0,0,6.75-3.945m-16.828-26.543c-1.52.135-2.6,1.218-3.893,1.834-.076.036-.047.3-.066.452.2.014.431.106.583.03.812-.4,1.573-.925,2.41-1.258,1.333-.53,2.718-.927,4.066-1.423.2-.074.314-.381.467-.58a1.724,1.724,0,0,0-.646-.084,23.632,23.632,0,0,0-2.92,1.028m-2.082,28.1a8.274,8.274,0,0,0,2.765,2.044c.108.059.374-.1.516-.22.041-.034-.052-.34-.158-.42q-1.9-1.416-3.826-2.793a2.265,2.265,0,0,0-.483-.2c-.01.225-.118.546-.01.657C1727.8,955.839,1728.188,956.05,1728.708,956.471Z" transform="translate(-513.05 88.092)"/>
      <path id="Path_28191" data-name="Path 28191" d="M1845.563,941.7a7.8,7.8,0,0,1-1.068.331c-1.383.036-2.769-.019-4.152.031-.648.023-1.34-.249-1.957.3-.192.172-.669.038-1.014.025-1.217-.047-1.934-1-1.363-2.027a18.533,18.533,0,0,0,2.038-5.906,15.948,15.948,0,0,0,.222-2.329c.052-2.179,1.071-2.875,2.947-1.855a18.768,18.768,0,0,1,2.657,1.94,22.276,22.276,0,0,1,2.537,2.211c1.168,1.27,2.226,2.643,3.315,3.984a3.654,3.654,0,0,1,.605.958,1.568,1.568,0,0,1-1.479,2.317c-1.033.073-2.075.015-3.287.015m-5.552-3.99c-.892.892-1.794,1.776-2.663,2.691-.091.1.018.381.033.578a1.647,1.647,0,0,0,.54-.218c.84-.79,1.642-1.619,2.49-2.4.446-.409.967-.735,1.438-1.119.081-.066.076-.237.111-.36-.11-.014-.24-.073-.326-.034a12.584,12.584,0,0,0-1.624.86m.347-5.552c-.2.2-.5.37-.578.611a2.629,2.629,0,0,0,.025.918,5.345,5.345,0,0,0,.7-.3,9.546,9.546,0,0,0,1.061-.723.518.518,0,0,0,.158-.427c-.021-.1-.214-.226-.344-.244a1.981,1.981,0,0,0-1.024.162m4.164,8.327.678-1.057c-.333.179-.664.361-1,.535-.092.047-.249.038-.287.105-.147.26-.258.54-.383.813a3.843,3.843,0,0,0,.992-.4m4.684.173c0-.231,0-.463-.019-.693a1.647,1.647,0,0,0-.308,0A.644.644,0,0,0,1849.206,940.661Z" transform="translate(-608.913 85.166)"/>
    </g>
    <g id="Group_17664" data-name="Group 17664" transform="translate(-6712.029 3587.724)">
      <path id="Path_27172" data-name="Path 27172" d="M2418.937,158.02c2.262-2.779,5.274-3.409,8.421-3.6a55.9,55.9,0,0,1,5.744,0,7.694,7.694,0,0,1,3.264.528c3.475,1.9,7.226,3.251,10.333,5.926a10.373,10.373,0,0,1,3.751,5.449,7.579,7.579,0,0,1,.3,3.585,25.869,25.869,0,0,1-5.435,10.231c-2.178,2.488-5.206,3.364-8.223,4.271a20.836,20.836,0,0,1-6.541.464,4.866,4.866,0,0,1-2.495-.558c-1.237-.824-2.289-.394-3.376.095-1.686.759-3.322,1.63-5.022,2.353a4.817,4.817,0,0,1-1.664.069,5.183,5.183,0,0,1,.02-1.84c1.04-2.567,2.111-5.128,3.339-7.608.439-.888.412-1.35-.288-2.011a15.673,15.673,0,0,1-4.291-7.213,9.964,9.964,0,0,1,2.163-10.137m3.875,4.125a2.242,2.242,0,0,1-.011.746c-1.35,3.562-1.608,7.275.107,10.625,1.416,2.765.809,4.74-.843,6.918a30.789,30.789,0,0,0-2.132,3.61.736.736,0,0,0-.029.65c.115.147.583.25.626.186.962-1.4,3.167-1.207,3.842-3.064a1.147,1.147,0,0,1,1.809-.479,10.016,10.016,0,0,0,3.327.981c1.407.268,2.925.787,4.25.506a18.253,18.253,0,0,0,11.059-7.38,14.577,14.577,0,0,0,1.475-1.892c1.375-2.727.4-8.268-1.675-10.625-4.006-4.552-9.164-6.1-14.954-5.459a8.391,8.391,0,0,0-6.85,4.676m-2,0a7.9,7.9,0,0,1,4-5.018c.193-.094.312-.341.465-.516-.3-.072-.661-.289-.9-.194a10.664,10.664,0,0,0-6.091,5.637c-1.01,2.244-.1,4.3.358,6.416a14.249,14.249,0,0,0,.709,2.19c.056.14.412.16.629.236.033-.158.128-.333.09-.472C2419.339,167.691,2419.993,165.046,2420.812,162.145Z" transform="translate(1446.789 974.935)"/>
    </g>
    <path id="Path_28193" data-name="Path 28193" d="M1979.9,617.817a23.182,23.182,0,0,1-2.935,3.452c-1.842,1.633-3.815,3.118-5.74,4.658-3.094,2.475-6.184,4.956-9.3,7.4a5.389,5.389,0,0,1-1.679.9,1.287,1.287,0,0,1-1.109-.278,2.09,2.09,0,0,0-1.95-.761c-1.994.259-3.1-1.116-4.3-2.333-1.8-1.809-3.227-4.028-5.637-5.161-.654-.308-1.007-.768-.607-1.414.38-.613.923-.718,1.531-.136,2.05,1.961,4.105,3.917,6.21,5.819a9.6,9.6,0,0,0,2.2,1.453c1.372.673,1.559.533,1.556-.97a27.541,27.541,0,0,1,1.119-7.966c.171-.575-.294-.538-.677-.546a24.183,24.183,0,0,0-7.527,1.276,11.006,11.006,0,0,1-2,.562,1.32,1.32,0,0,1-1-.585c-.124-.2.049-.745.264-.962a47.18,47.18,0,0,1,6.072-5.57c2.25-1.595,4.338-3.42,6.491-5.151,2.2-1.771,4.413-3.533,6.587-5.339a15.978,15.978,0,0,0,1.187-1.421,2.474,2.474,0,0,1,1.018-.79c1.635-.4,2.625.291,2.7,1.978.066,1.471,1.2,2.282,1.871,3.347,1.424,2.246,3.063,4.356,4.59,6.538a11.751,11.751,0,0,1,1.066,1.992m-12.943.375c.437-1.75.839-3.51,1.323-5.247.45-1.613,1.007-3.2,1.471-4.807a.874.874,0,0,0-.214-.788c-.2-.111-.574.026-.848.124-.159.057-.261.26-.4.381-1.745,1.5-3.448,3.053-5.25,4.48-3.224,2.553-6.513,5.025-9.758,7.553-.2.156-.253.5-.374.757a2.523,2.523,0,0,0,.86.156,19.953,19.953,0,0,1,3.43-.693,47.87,47.87,0,0,1,7.864.437c.942.155,1.137.125,1.334-.64a9.439,9.439,0,0,1,.564-1.714m-5.252,11.63a102.027,102.027,0,0,0,10.437-8.189c1.2-1.013,2.392-2.046,3.591-3.064.232-.2.243-.552-.03-.624a30.78,30.78,0,0,0-6.022-1.266c-.645-.037-.627.281-.682.768a11.364,11.364,0,0,1-.527,2.58c-.8,2.216-1.418,2.5-3.08,2.294-1.13-.14-2.262-.262-3.4-.375-.7-.07-1.167.157-1.244.965-.043.454-.284.887-.35,1.342-.156,1.065-.247,2.139-.39,3.206a12.516,12.516,0,0,0-.331,2.272c.034.606.4,1.223,1.2.548.168-.141.419-.183.819-.459m11.817-18.57c-.375-.593-.724-1.205-1.137-1.77a4.363,4.363,0,0,0-.78-.669c-.234.311-.6.591-.68.938a24.157,24.157,0,0,1-.878,4.129c-.452,1.047-.041,1.153.687,1.307,1.265.266,2.536.5,3.8.756.573.116,1.139.277,1.717.358.2.028.428-.126.644-.2a3.6,3.6,0,0,0-.286-.628C1975.649,614.125,1974.675,612.784,1973.519,611.252Z" transform="matrix(0.788, 0.616, -0.616, 0.788, -3968.342, 3114.793)"/>
    <g id="Group_17666" data-name="Group 17666" transform="translate(-4155.061 2776.142)">
      <path id="Path_26474" data-name="Path 26474" d="M2250.078,577.337a19.036,19.036,0,0,1-8.579-2.152c-2.113-1.054-4.256-1.974-5.914-3.753a21.1,21.1,0,0,1-5.433-9.573,9.081,9.081,0,0,1,2.253-8.634,4.678,4.678,0,0,1,2.13-1.032,1.134,1.134,0,0,1,.857.088,31.583,31.583,0,0,1,7.113,5.666.952.952,0,0,1,0,.85c-.16.308-.5.516-.746.787-.673.754-.611,1.117.175,1.715.655.5,1.264,1.056,1.895,1.586,1.53,1.288,3.037,2.6,4.6,3.85.853.68,1.032.6,1.647-.3a6.385,6.385,0,0,1,.492-.7c1.421-1.573,1.87-1.441,3.187.116,1.483,1.753,3.213,3.3,4.841,4.926a13.931,13.931,0,0,1,1.162,1.131,1.7,1.7,0,0,1-.246,2.728,9.289,9.289,0,0,1-5.58,2.351c-1.227.071-2.449.234-3.855.356m-13.128-7.111a18.229,18.229,0,0,0,12.737,5.268,28.047,28.047,0,0,0,5.3-.4,4.738,4.738,0,0,0,3.129-1.623.661.661,0,0,0,.03-.62c-1.782-1.822-3.6-3.608-5.384-5.428-.405-.414-.681-.36-1.02.038-.236.276-.54.5-.763.78-1.031,1.313-1.422,1.384-2.75.5a50.248,50.248,0,0,1-4.244-3.427c-1.51-1.256-2.7-2.934-4.642-3.687a1.213,1.213,0,0,1-.219-1.956c.275-.322.721-.556.861-.919s.142-1.015-.079-1.2c-1.427-1.178-2.913-2.29-4.422-3.365a1.586,1.586,0,0,0-2.2.407c-1.139,2.023-2.262,4.068-1.452,6.564A22.155,22.155,0,0,0,2236.949,570.226Z" transform="translate(-813.812 1473.203)"/>
      <path id="Path_26476" data-name="Path 26476" d="M2325.337,532.017a11.978,11.978,0,0,0-2.708-5.186,8.257,8.257,0,0,0-6.992-3.28c-.563.036-1.113.305-1.673.322a1.065,1.065,0,0,1-.841-.488c-.086-.193.173-.629.39-.843a1.573,1.573,0,0,1,.894-.445c2.933-.231,5.751.06,7.981,2.255a15.884,15.884,0,0,1,2.925,3.344c1.357,2.448,2.542,5.021,2.313,7.97-.032.41-.039.746-.572.632-.339-.073-.829.292-.922-.479A30.888,30.888,0,0,0,2325.337,532.017Z" transform="translate(-881.87 1497.827)"/>
      <path id="Path_26478" data-name="Path 26478" d="M2320.178,564.3c-1.016-1.165-1.763-2.374-3.141-3.054a7.241,7.241,0,0,0-2.7-.973c-.381-.028-.75-.326-1.124-.326-.548,0-.884-.2-.658-.7.156-.339.679-.793.965-.746,3.141.51,5.974,1.593,7.765,4.488.427.689,1.026,1.269,1.507,1.928a3.288,3.288,0,0,1,.636,1.183,2.941,2.941,0,0,1-.23,1.113,3.7,3.7,0,0,1-.952-.328,4.665,4.665,0,0,1-.906-.89A10.765,10.765,0,0,1,2320.178,564.3Z" transform="translate(-881.36 1468.004)"/>
    </g>
  </g>
</svg>
